;TYPE=PLATED
;Layer: PTH_Through
;EasyEDA Pro v3.2.148, 2026-07-02 11:30:31
;Gerber Generator version 0.3
M48
METRIC,LZ,0000.00000
;Hole size 1 = 0.50000 METRIC
T01C0.50000
;Hole size 2 = 3.20000 METRIC
T02C3.20000
%
G05
G90
T01
X22.6Y25.0
X23.30294Y26.69706
X23.30294Y23.30294
X25.0Y27.4
X25.0Y22.6
X26.69706Y26.69706
X26.69706Y23.30294
X27.4Y25.0
X7.6Y10.0
X8.30294Y11.69706
X8.30294Y8.30294
X10.0Y12.4
X10.0Y7.6
X11.69706Y11.69706
X11.69706Y8.30294
X12.4Y10.0
X67.6Y10.0
X68.30294Y11.69706
X68.30294Y8.30294
X70.0Y12.4
X70.0Y7.6
X71.69706Y11.69706
X71.69706Y8.30294
X72.4Y10.0
X52.6Y25.0
X53.30294Y26.69706
X53.30294Y23.30294
X55.0Y27.4
X55.0Y22.6
X56.69706Y26.69706
X56.69706Y23.30294
X57.4Y25.0
T02
X25.0Y25.0
X10.0Y10.0
X70.0Y10.0
X55.0Y25.0
M30