G04 Layer: BottomSilkscreenLayer*
G04 EasyEDA Pro v3.2.148, 2026-07-02 11:30:31*
G04 Gerber Generator version 0.3*
G04 Scale: 100 percent, Rotated: No, Reflected: No*
G04 Dimensions in millimeters*
G04 Leading zeros omitted, absolute positions, 4 integers and 5 decimals*
G04 Generated by one-click*
G04 Object Configs: Pad,Via,Track,Text,Image,Dimension,BoardOutline,BoardCutout,CopperFilled,SolidRegion,FPCStiffener,Line,PlaneZone,ComponentProperty,ComponentSilkscreen,TearDrop*
G04 Layer Configs: 1,2,3,4,5,6,7,8,9,10,11,13,14,71,72,73,74,75,76,86,56*
G04 Copper Areas: 0*
%FSLAX45Y45*%
%MOMM*%
%ADD10C,0.15*%
%ADD11C,0.2014*%
G75*


G04 Text Start*
G54D10*
G01X7253813Y456788D02*
G01X7253813Y401162D01*
G01X7253813Y456788D02*
G01X7229937Y456788D01*
G01X7222063Y454248D01*
G01X7219523Y451454D01*
G01X7216729Y446374D01*
G01X7216729Y438246D01*
G01X7219523Y432912D01*
G01X7222063Y430372D01*
G01X7229937Y427578D01*
G01X7253813Y427578D01*
G01X7149165Y443580D02*
G01X7151705Y448914D01*
G01X7157039Y454248D01*
G01X7162373Y456788D01*
G01X7173041Y456788D01*
G01X7178375Y454248D01*
G01X7183709Y448914D01*
G01X7186249Y443580D01*
G01X7189043Y435706D01*
G01X7189043Y422244D01*
G01X7186249Y414370D01*
G01X7183709Y409036D01*
G01X7178375Y403702D01*
G01X7173041Y401162D01*
G01X7162373Y401162D01*
G01X7157039Y403702D01*
G01X7151705Y409036D01*
G01X7149165Y414370D01*
G01X7121479Y456788D02*
G01X7121479Y401162D01*
G01X7121479Y456788D02*
G01X7097603Y456788D01*
G01X7089475Y454248D01*
G01X7086935Y451454D01*
G01X7084141Y446374D01*
G01X7084141Y441040D01*
G01X7086935Y435706D01*
G01X7089475Y432912D01*
G01X7097603Y430372D01*
G01X7121479Y430372D02*
G01X7097603Y430372D01*
G01X7089475Y427578D01*
G01X7086935Y425038D01*
G01X7084141Y419704D01*
G01X7084141Y411830D01*
G01X7086935Y406496D01*
G01X7089475Y403702D01*
G01X7097603Y401162D01*
G01X7121479Y401162D01*
G01X7056455Y425038D02*
G01X7008703Y425038D01*
G01X6965015Y456788D02*
G01X6972889Y454248D01*
G01X6978223Y446374D01*
G01X6981017Y432912D01*
G01X6981017Y425038D01*
G01X6978223Y411830D01*
G01X6972889Y403702D01*
G01X6965015Y401162D01*
G01X6959681Y401162D01*
G01X6951807Y403702D01*
G01X6946473Y411830D01*
G01X6943679Y425038D01*
G01X6943679Y432912D01*
G01X6946473Y446374D01*
G01X6951807Y454248D01*
G01X6959681Y456788D01*
G01X6965015Y456788D01*
G01X6899991Y456788D02*
G01X6907865Y454248D01*
G01X6913199Y446374D01*
G01X6915993Y432912D01*
G01X6915993Y425038D01*
G01X6913199Y411830D01*
G01X6907865Y403702D01*
G01X6899991Y401162D01*
G01X6894657Y401162D01*
G01X6886783Y403702D01*
G01X6881449Y411830D01*
G01X6878655Y425038D01*
G01X6878655Y432912D01*
G01X6881449Y446374D01*
G01X6886783Y454248D01*
G01X6894657Y456788D01*
G01X6899991Y456788D01*
G01X6834967Y456788D02*
G01X6842841Y454248D01*
G01X6848175Y446374D01*
G01X6850969Y432912D01*
G01X6850969Y425038D01*
G01X6848175Y411830D01*
G01X6842841Y403702D01*
G01X6834967Y401162D01*
G01X6829633Y401162D01*
G01X6821759Y403702D01*
G01X6816425Y411830D01*
G01X6813631Y425038D01*
G01X6813631Y432912D01*
G01X6816425Y446374D01*
G01X6821759Y454248D01*
G01X6829633Y456788D01*
G01X6834967Y456788D01*
G01X6759275Y456788D02*
G01X6785945Y419704D01*
G01X6746067Y419704D01*
G01X6759275Y456788D02*
G01X6759275Y401162D01*
G01X7253813Y356966D02*
G01X7253813Y301086D01*
G01X7253813Y356966D02*
G01X7229937Y356966D01*
G01X7222063Y354172D01*
G01X7219523Y351632D01*
G01X7216729Y346298D01*
G01X7216729Y340964D01*
G01X7219523Y335630D01*
G01X7222063Y333090D01*
G01X7229937Y330296D01*
G01X7253813Y330296D01*
G01X7235271Y330296D02*
G01X7216729Y301086D01*
G01X7189043Y356966D02*
G01X7189043Y301086D01*
G01X7189043Y356966D02*
G01X7154499Y356966D01*
G01X7189043Y330296D02*
G01X7167707Y330296D01*
G01X7189043Y301086D02*
G01X7154499Y301086D01*
G01X7126813Y356966D02*
G01X7105477Y301086D01*
G01X7084141Y356966D02*
G01X7105477Y301086D01*
G01X7040453Y356966D02*
G01X7048327Y354172D01*
G01X7053661Y346298D01*
G01X7056455Y333090D01*
G01X7056455Y324962D01*
G01X7053661Y311754D01*
G01X7048327Y303626D01*
G01X7040453Y301086D01*
G01X7035119Y301086D01*
G01X7027245Y303626D01*
G01X7021911Y311754D01*
G01X7019117Y324962D01*
G01X7019117Y333090D01*
G01X7021911Y346298D01*
G01X7027245Y354172D01*
G01X7035119Y356966D01*
G01X7040453Y356966D01*
G01X6975429Y356966D02*
G01X6983303Y354172D01*
G01X6988637Y346298D01*
G01X6991431Y333090D01*
G01X6991431Y324962D01*
G01X6988637Y311754D01*
G01X6983303Y303626D01*
G01X6975429Y301086D01*
G01X6970095Y301086D01*
G01X6962221Y303626D01*
G01X6956887Y311754D01*
G01X6954093Y324962D01*
G01X6954093Y333090D01*
G01X6956887Y346298D01*
G01X6962221Y354172D01*
G01X6970095Y356966D01*
G01X6975429Y356966D01*
G04 Text End*

M02*

