G04 Layer: CustomLayer1*
G04 EasyEDA Pro v3.2.148, 2026-07-02 11:30:31*
G04 Gerber Generator version 0.3*
G04 Scale: 100 percent, Rotated: No, Reflected: No*
G04 Dimensions in millimeters*
G04 Leading zeros omitted, absolute positions, 4 integers and 5 decimals*
G04 Generated by one-click*
G04 Object Configs: Pad,Via,Track,Text,Image,Dimension,BoardOutline,BoardCutout,CopperFilled,SolidRegion,FPCStiffener,Line,PlaneZone,ComponentProperty,ComponentSilkscreen,TearDrop*
G04 Layer Configs: 1,2,3,4,5,6,7,8,9,10,11,13,14,71,72,73,74,75,76,86,56*
G04 Copper Areas: 0*
%FSLAX45Y45*%
%MOMM*%
%ADD10C,0.15*%
%ADD11C,0.3489*%
G75*


G04 Text Start*
G54D10*
G01X1376646Y-353399D02*
G01X1415980Y-392732D01*
G01X1376646Y-353399D02*
G01X1393529Y-336516D01*
G01X1400893Y-332744D01*
G01X1404665Y-332924D01*
G01X1410232Y-334540D01*
G01X1415980Y-340288D01*
G01X1417776Y-346035D01*
G01X1417776Y-349627D01*
G01X1414184Y-357170D01*
G01X1397301Y-374053D01*
G01X1422446Y-307599D02*
G01X1461779Y-346933D01*
G01X1477764Y-278503D02*
G01X1503986Y-304726D01*
G01X1483332Y-284071D02*
G01X1475788Y-284071D01*
G01X1470221Y-286047D01*
G01X1464653Y-291615D01*
G01X1462677Y-297182D01*
G01X1462677Y-304726D01*
G01X1466628Y-312269D01*
G01X1470400Y-316041D01*
G01X1477764Y-319813D01*
G01X1485307Y-319813D01*
G01X1490875Y-317837D01*
G01X1496443Y-312269D01*
G01X1498419Y-306701D01*
G01X1498419Y-299158D01*
G01X1489977Y-240068D02*
G01X1521767Y-271858D01*
G01X1529311Y-275809D01*
G01X1534878Y-273834D01*
G01X1538650Y-270062D01*
G01X1497341Y-258926D02*
G01X1510452Y-245815D01*
G01X1543320Y-235578D02*
G01X1565950Y-212948D01*
G01X1562178Y-209176D01*
G01X1556431Y-207380D01*
G01X1552659Y-207200D01*
G01X1547092Y-209176D01*
G01X1541524Y-214744D01*
G01X1539548Y-220311D01*
G01X1539548Y-227855D01*
G01X1543320Y-235578D01*
G01X1547092Y-239350D01*
G01X1554635Y-242942D01*
G01X1562178Y-242942D01*
G01X1567746Y-240966D01*
G01X1573314Y-235398D01*
G01X1575290Y-229830D01*
G01X1575290Y-222287D01*
G01X1583731Y-146314D02*
G01X1623064Y-185648D01*
G01X1602410Y-164993D02*
G01X1594866Y-164993D01*
G01X1589299Y-166969D01*
G01X1583731Y-172536D01*
G01X1581755Y-178104D01*
G01X1581755Y-185648D01*
G01X1585527Y-193371D01*
G01X1589299Y-197142D01*
G01X1596842Y-200734D01*
G01X1604386Y-200734D01*
G01X1609953Y-198759D01*
G01X1615521Y-193191D01*
G01X1617497Y-187623D01*
G01X1617497Y-180080D01*
G01X1681077Y-75190D02*
G01X1707299Y-101413D01*
G01X1686645Y-80758D02*
G01X1679101Y-80758D01*
G01X1673534Y-82734D01*
G01X1667966Y-88302D01*
G01X1665990Y-93869D01*
G01X1665990Y-101413D01*
G01X1669941Y-108956D01*
G01X1673713Y-112728D01*
G01X1681077Y-116500D01*
G01X1688620Y-116500D01*
G01X1694188Y-114524D01*
G01X1699756Y-108956D01*
G01X1701732Y-103388D01*
G01X1701732Y-95845D01*
G01X1687543Y-42502D02*
G01X1726876Y-81836D01*
G01X1729750Y-26517D02*
G01X1727774Y-32085D01*
G01X1727774Y-39629D01*
G01X1731726Y-47172D01*
G01X1735497Y-50944D01*
G01X1742861Y-54715D01*
G01X1750405Y-54715D01*
G01X1755972Y-52740D01*
G01X1761540Y-47172D01*
G01X1763516Y-41604D01*
G01X1763516Y-34061D01*
G01X1759744Y-26697D01*
G01X1755972Y-22925D01*
G01X1748429Y-18974D01*
G01X1740885Y-18974D01*
G01X1735318Y-20950D01*
G01X1729750Y-26517D01*
G01X1764234Y7967D02*
G01X1790456Y-18256D01*
G01X1771778Y423D02*
G01X1771778Y11918D01*
G01X1773753Y17486D01*
G01X1779321Y23054D01*
G01X1784889Y25029D01*
G01X1792432Y21078D01*
G01X1811111Y2399D01*
G01X1827096Y70829D02*
G01X1857090Y40834D01*
G01X1860862Y33111D01*
G01X1860862Y29519D01*
G01X1858886Y23952D01*
G01X1853318Y18384D01*
G01X1847750Y16408D01*
G01X1832664Y65261D02*
G01X1825120Y65261D01*
G01X1819552Y63285D01*
G01X1813985Y57717D01*
G01X1812009Y52150D01*
G01X1812009Y44606D01*
G01X1815781Y36883D01*
G01X1819552Y33111D01*
G01X1827096Y29519D01*
G01X1834639Y29519D01*
G01X1840207Y31495D01*
G01X1845775Y37063D01*
G01X1847750Y42631D01*
G01X1847750Y50174D01*
G01X1881337Y151292D02*
G01X1913127Y119502D01*
G01X1920670Y115550D01*
G01X1926238Y117526D01*
G01X1930010Y121298D01*
G01X1888880Y132613D02*
G01X1901991Y145724D01*
G01X1910253Y180208D02*
G01X1949587Y140875D01*
G01X1930908Y159553D02*
G01X1930908Y171048D01*
G01X1932883Y176616D01*
G01X1938451Y182184D01*
G01X1944019Y184159D01*
G01X1951562Y180208D01*
G01X1970241Y161529D01*
G01X1950485Y220440D02*
G01X1954256Y220619D01*
G01X1954256Y224211D01*
G01X1950485Y224391D01*
G01X1950485Y220440D01*
G01X1965571Y209304D02*
G01X1991794Y183082D01*
G01X2013167Y245764D02*
G01X2007599Y247740D01*
G01X2000056Y243788D01*
G01X1994488Y238221D01*
G01X1990716Y230857D01*
G01X1992512Y225109D01*
G01X1998260Y223313D01*
G01X2004007Y225109D01*
G01X2015142Y232653D01*
G01X2020890Y234449D01*
G01X2026278Y232653D01*
G01X2028254Y230677D01*
G01X2030229Y225109D01*
G01X2026278Y217566D01*
G01X2020710Y211998D01*
G01X2013346Y208226D01*
G01X2007599Y210023D01*
G01X2071179Y341134D02*
G01X2067408Y337363D01*
G01X2065432Y331795D01*
G01X2069204Y324431D01*
G01X2101173Y292461D01*
G01X2069383Y313116D02*
G01X2082494Y326227D01*
G01X2090756Y360711D02*
G01X2130090Y321378D01*
G01X2146075Y389807D02*
G01X2172297Y363585D01*
G01X2151642Y384239D02*
G01X2144099Y384239D01*
G01X2138531Y382264D01*
G01X2132963Y376696D01*
G01X2130988Y371128D01*
G01X2130988Y363585D01*
G01X2134939Y356041D01*
G01X2138711Y352270D01*
G01X2146075Y348498D01*
G01X2153618Y348498D01*
G01X2159186Y350474D01*
G01X2164754Y356041D01*
G01X2166729Y361609D01*
G01X2166729Y369153D01*
G01X2158288Y428243D02*
G01X2190078Y396453D01*
G01X2197621Y392501D01*
G01X2203189Y394477D01*
G01X2206961Y398249D01*
G01X2165652Y409384D02*
G01X2178763Y422495D01*
G01X2253838Y474940D02*
G01X2276288Y497391D01*
G01X2272517Y501162D01*
G01X2266949Y503138D01*
G01X2262998Y503138D01*
G01X2257430Y501162D01*
G01X2251862Y495595D01*
G01X2249886Y490027D01*
G01X2249886Y482483D01*
G01X2253838Y474940D01*
G01X2257609Y471168D01*
G01X2264973Y467397D01*
G01X2272517Y467397D01*
G01X2278084Y469372D01*
G01X2283652Y474940D01*
G01X2285628Y480508D01*
G01X2285628Y488051D01*
G01X2294069Y564024D02*
G01X2333403Y524691D01*
G01X2312748Y545345D02*
G01X2305205Y545345D01*
G01X2299637Y543370D01*
G01X2294069Y537802D01*
G01X2292094Y532234D01*
G01X2292094Y524691D01*
G01X2295865Y516968D01*
G01X2299637Y513196D01*
G01X2307180Y509604D01*
G01X2314724Y509604D01*
G01X2320292Y511580D01*
G01X2325859Y517147D01*
G01X2327835Y522715D01*
G01X2327835Y530258D01*
G01X2349388Y593120D02*
G01X2379382Y563126D01*
G01X2383153Y555403D01*
G01X2383153Y551811D01*
G01X2381178Y546243D01*
G01X2375610Y540676D01*
G01X2370042Y538700D01*
G01X2354955Y587552D02*
G01X2347412Y587552D01*
G01X2341844Y585577D01*
G01X2336276Y580009D01*
G01X2334301Y574441D01*
G01X2334301Y566898D01*
G01X2338072Y559175D01*
G01X2341844Y555403D01*
G01X2349388Y551811D01*
G01X2356931Y551811D01*
G01X2362499Y553787D01*
G01X2368067Y559354D01*
G01X2370042Y564922D01*
G01X2370042Y572466D01*
G01X2380280Y601382D02*
G01X2402910Y624012D01*
G01X2399138Y627784D01*
G01X2393391Y629580D01*
G01X2389619Y629760D01*
G01X2384051Y627784D01*
G01X2378484Y622216D01*
G01X2376508Y616649D01*
G01X2376508Y609105D01*
G01X2380280Y601382D01*
G01X2384051Y597610D01*
G01X2391595Y594018D01*
G01X2399138Y594018D01*
G01X2404706Y595994D01*
G01X2410274Y601562D01*
G01X2412249Y607129D01*
G01X2412249Y614673D01*
G01X5621601Y623354D02*
G01X5582268Y584020D01*
G01X5621601Y623354D02*
G01X5638484Y606471D01*
G01X5642256Y599107D01*
G01X5642076Y595335D01*
G01X5640460Y589768D01*
G01X5634712Y584020D01*
G01X5628965Y582224D01*
G01X5625373Y582224D01*
G01X5617830Y585816D01*
G01X5600947Y602699D01*
G01X5667401Y577554D02*
G01X5628067Y538221D01*
G01X5696497Y522236D02*
G01X5670274Y496014D01*
G01X5690929Y516668D02*
G01X5690929Y524212D01*
G01X5688953Y529779D01*
G01X5683385Y535347D01*
G01X5677818Y537323D01*
G01X5670274Y537323D01*
G01X5662731Y533372D01*
G01X5658959Y529600D01*
G01X5655187Y522236D01*
G01X5655187Y514693D01*
G01X5657163Y509125D01*
G01X5662731Y503557D01*
G01X5668299Y501581D01*
G01X5675842Y501581D01*
G01X5734932Y510023D02*
G01X5703142Y478233D01*
G01X5699191Y470689D01*
G01X5701166Y465122D01*
G01X5704938Y461350D01*
G01X5716074Y502659D02*
G01X5729185Y489548D01*
G01X5739422Y456680D02*
G01X5762052Y434050D01*
G01X5765824Y437822D01*
G01X5767620Y443569D01*
G01X5767800Y447341D01*
G01X5765824Y452908D01*
G01X5760256Y458476D01*
G01X5754689Y460452D01*
G01X5747145Y460452D01*
G01X5739422Y456680D01*
G01X5735650Y452908D01*
G01X5732058Y445365D01*
G01X5732058Y437822D01*
G01X5734034Y432254D01*
G01X5739602Y426686D01*
G01X5745170Y424710D01*
G01X5752713Y424710D01*
G01X5828686Y416269D02*
G01X5789352Y376936D01*
G01X5810007Y397590D02*
G01X5810007Y405134D01*
G01X5808031Y410701D01*
G01X5802464Y416269D01*
G01X5796896Y418245D01*
G01X5789352Y418245D01*
G01X5781629Y414473D01*
G01X5777858Y410701D01*
G01X5774266Y403158D01*
G01X5774266Y395614D01*
G01X5776241Y390047D01*
G01X5781809Y384479D01*
G01X5787377Y382503D01*
G01X5794920Y382503D01*
G01X5899810Y318923D02*
G01X5873587Y292701D01*
G01X5894242Y313355D02*
G01X5894242Y320899D01*
G01X5892266Y326466D01*
G01X5886698Y332034D01*
G01X5881131Y334010D01*
G01X5873587Y334010D01*
G01X5866044Y330059D01*
G01X5862272Y326287D01*
G01X5858500Y318923D01*
G01X5858500Y311380D01*
G01X5860476Y305812D01*
G01X5866044Y300244D01*
G01X5871612Y298268D01*
G01X5879155Y298268D01*
G01X5932498Y312457D02*
G01X5893164Y273124D01*
G01X5948483Y270250D02*
G01X5942915Y272226D01*
G01X5935371Y272226D01*
G01X5927828Y268274D01*
G01X5924056Y264503D01*
G01X5920285Y257139D01*
G01X5920285Y249595D01*
G01X5922260Y244028D01*
G01X5927828Y238460D01*
G01X5933396Y236484D01*
G01X5940939Y236484D01*
G01X5948303Y240256D01*
G01X5952075Y244028D01*
G01X5956026Y251571D01*
G01X5956026Y259115D01*
G01X5954050Y264682D01*
G01X5948483Y270250D01*
G01X5982967Y235766D02*
G01X5956744Y209544D01*
G01X5975423Y228222D02*
G01X5986918Y228222D01*
G01X5992486Y226247D01*
G01X5998054Y220679D01*
G01X6000029Y215111D01*
G01X5996078Y207568D01*
G01X5977399Y188889D01*
G01X6045829Y172904D02*
G01X6015834Y142910D01*
G01X6008111Y139138D01*
G01X6004519Y139138D01*
G01X5998952Y141114D01*
G01X5993384Y146682D01*
G01X5991408Y152250D01*
G01X6040261Y167336D02*
G01X6040261Y174880D01*
G01X6038285Y180448D01*
G01X6032717Y186015D01*
G01X6027150Y187991D01*
G01X6019606Y187991D01*
G01X6011883Y184219D01*
G01X6008111Y180448D01*
G01X6004519Y172904D01*
G01X6004519Y165361D01*
G01X6006495Y159793D01*
G01X6012063Y154225D01*
G01X6017631Y152250D01*
G01X6025174Y152250D01*
G01X6126292Y118663D02*
G01X6094502Y86873D01*
G01X6090550Y79330D01*
G01X6092526Y73762D01*
G01X6096298Y69990D01*
G01X6107613Y111120D02*
G01X6120724Y98009D01*
G01X6155208Y89747D02*
G01X6115875Y50413D01*
G01X6134553Y69092D02*
G01X6146048Y69092D01*
G01X6151616Y67117D01*
G01X6157184Y61549D01*
G01X6159159Y55981D01*
G01X6155208Y48438D01*
G01X6136529Y29759D01*
G01X6195440Y49515D02*
G01X6195619Y45744D01*
G01X6199211Y45744D01*
G01X6199391Y49515D01*
G01X6195440Y49515D01*
G01X6184304Y34429D02*
G01X6158082Y8206D01*
G01X6220764Y-13167D02*
G01X6222740Y-7599D01*
G01X6218788Y-56D01*
G01X6213220Y5512D01*
G01X6205857Y9284D01*
G01X6200109Y7488D01*
G01X6198313Y1740D01*
G01X6200109Y-4007D01*
G01X6207653Y-15142D01*
G01X6209449Y-20890D01*
G01X6207653Y-26278D01*
G01X6205677Y-28254D01*
G01X6200109Y-30229D01*
G01X6192566Y-26278D01*
G01X6186998Y-20710D01*
G01X6183226Y-13346D01*
G01X6185022Y-7599D01*
G01X6316134Y-71179D02*
G01X6312363Y-67408D01*
G01X6306795Y-65432D01*
G01X6299431Y-69204D01*
G01X6267461Y-101173D01*
G01X6288116Y-69383D02*
G01X6301227Y-82494D01*
G01X6335711Y-90756D02*
G01X6296378Y-130090D01*
G01X6364807Y-146075D02*
G01X6338585Y-172297D01*
G01X6359239Y-151642D02*
G01X6359239Y-144099D01*
G01X6357264Y-138531D01*
G01X6351696Y-132963D01*
G01X6346128Y-130988D01*
G01X6338585Y-130988D01*
G01X6331041Y-134939D01*
G01X6327270Y-138711D01*
G01X6323498Y-146075D01*
G01X6323498Y-153618D01*
G01X6325474Y-159186D01*
G01X6331041Y-164754D01*
G01X6336609Y-166729D01*
G01X6344153Y-166729D01*
G01X6403243Y-158288D02*
G01X6371453Y-190078D01*
G01X6367501Y-197621D01*
G01X6369477Y-203189D01*
G01X6373249Y-206961D01*
G01X6384384Y-165652D02*
G01X6397495Y-178763D01*
G01X6449940Y-253838D02*
G01X6472391Y-276288D01*
G01X6476162Y-272517D01*
G01X6478138Y-266949D01*
G01X6478138Y-262998D01*
G01X6476162Y-257430D01*
G01X6470595Y-251862D01*
G01X6465027Y-249886D01*
G01X6457483Y-249886D01*
G01X6449940Y-253838D01*
G01X6446168Y-257609D01*
G01X6442397Y-264973D01*
G01X6442397Y-272517D01*
G01X6444372Y-278084D01*
G01X6449940Y-283652D01*
G01X6455508Y-285628D01*
G01X6463051Y-285628D01*
G01X6539024Y-294069D02*
G01X6499691Y-333403D01*
G01X6520345Y-312748D02*
G01X6520345Y-305205D01*
G01X6518370Y-299637D01*
G01X6512802Y-294069D01*
G01X6507234Y-292094D01*
G01X6499691Y-292094D01*
G01X6491968Y-295865D01*
G01X6488196Y-299637D01*
G01X6484604Y-307180D01*
G01X6484604Y-314724D01*
G01X6486579Y-320292D01*
G01X6492147Y-325859D01*
G01X6497715Y-327835D01*
G01X6505258Y-327835D01*
G01X6568120Y-349388D02*
G01X6538126Y-379382D01*
G01X6530403Y-383153D01*
G01X6526811Y-383153D01*
G01X6521243Y-381178D01*
G01X6515676Y-375610D01*
G01X6513700Y-370042D01*
G01X6562552Y-354955D02*
G01X6562552Y-347412D01*
G01X6560577Y-341844D01*
G01X6555009Y-336276D01*
G01X6549441Y-334301D01*
G01X6541898Y-334301D01*
G01X6534175Y-338072D01*
G01X6530403Y-341844D01*
G01X6526811Y-349388D01*
G01X6526811Y-356931D01*
G01X6528787Y-362499D01*
G01X6534354Y-368067D01*
G01X6539922Y-370042D01*
G01X6547466Y-370042D01*
G01X6576382Y-380280D02*
G01X6599012Y-402910D01*
G01X6602784Y-399138D01*
G01X6604580Y-393391D01*
G01X6604760Y-389619D01*
G01X6602784Y-384051D01*
G01X6597216Y-378484D01*
G01X6591648Y-376508D01*
G01X6584105Y-376508D01*
G01X6576382Y-380280D01*
G01X6572610Y-384051D01*
G01X6569018Y-391595D01*
G01X6569018Y-399138D01*
G01X6570994Y-404706D01*
G01X6576562Y-410274D01*
G01X6582129Y-412249D01*
G01X6589673Y-412249D01*
G01X507935Y531788D02*
G01X507935Y476162D01*
G01X507935Y476162D02*
G01X539685Y476162D01*
G01X580833Y513246D02*
G01X575499Y510706D01*
G01X570165Y505372D01*
G01X567371Y497244D01*
G01X567371Y491910D01*
G01X570165Y484036D01*
G01X575499Y478702D01*
G01X580833Y476162D01*
G01X588707Y476162D01*
G01X594041Y478702D01*
G01X599375Y484036D01*
G01X601915Y491910D01*
G01X601915Y497244D01*
G01X599375Y505372D01*
G01X594041Y510706D01*
G01X588707Y513246D01*
G01X580833Y513246D01*
G01X637729Y531788D02*
G01X637729Y486830D01*
G01X640269Y478702D01*
G01X645603Y476162D01*
G01X650937Y476162D01*
G01X629601Y513246D02*
G01X648143Y513246D01*
G01X738313Y531788D02*
G01X738313Y476162D01*
G01X738313Y531788D02*
G01X775397Y476162D01*
G01X775397Y531788D02*
G01X775397Y476162D01*
G01X803083Y513246D02*
G01X803083Y486830D01*
G01X805877Y478702D01*
G01X811211Y476162D01*
G01X819085Y476162D01*
G01X824419Y478702D01*
G01X832293Y486830D01*
G01X832293Y513246D02*
G01X832293Y476162D01*
G01X859979Y513246D02*
G01X859979Y476162D01*
G01X859979Y502578D02*
G01X868107Y510706D01*
G01X873441Y513246D01*
G01X881315Y513246D01*
G01X886649Y510706D01*
G01X889189Y502578D01*
G01X889189Y476162D01*
G01X889189Y502578D02*
G01X897317Y510706D01*
G01X902651Y513246D01*
G01X910525Y513246D01*
G01X915859Y510706D01*
G01X918399Y502578D01*
G01X918399Y476162D01*
G01X946085Y531788D02*
G01X946085Y476162D01*
G01X946085Y505372D02*
G01X951419Y510706D01*
G01X956753Y513246D01*
G01X964627Y513246D01*
G01X969961Y510706D01*
G01X975295Y505372D01*
G01X978089Y497244D01*
G01X978089Y491910D01*
G01X975295Y484036D01*
G01X969961Y478702D01*
G01X964627Y476162D01*
G01X956753Y476162D01*
G01X951419Y478702D01*
G01X946085Y484036D01*
G01X1005775Y497244D02*
G01X1037779Y497244D01*
G01X1037779Y502578D01*
G01X1034985Y507912D01*
G01X1032445Y510706D01*
G01X1027111Y513246D01*
G01X1019237Y513246D01*
G01X1013903Y510706D01*
G01X1008569Y505372D01*
G01X1005775Y497244D01*
G01X1005775Y491910D01*
G01X1008569Y484036D01*
G01X1013903Y478702D01*
G01X1019237Y476162D01*
G01X1027111Y476162D01*
G01X1032445Y478702D01*
G01X1037779Y484036D01*
G01X1065465Y513246D02*
G01X1065465Y476162D01*
G01X1065465Y497244D02*
G01X1068259Y505372D01*
G01X1073593Y510706D01*
G01X1078927Y513246D01*
G01X1086801Y513246D01*
G01X1174177Y531788D02*
G01X1174177Y476162D01*
G01X1211261Y531788D02*
G01X1211261Y476162D01*
G01X1174177Y505372D02*
G01X1211261Y505372D01*
G01X1238947Y497244D02*
G01X1270951Y497244D01*
G01X1270951Y502578D01*
G01X1268157Y507912D01*
G01X1265617Y510706D01*
G01X1260283Y513246D01*
G01X1252409Y513246D01*
G01X1247075Y510706D01*
G01X1241741Y505372D01*
G01X1238947Y497244D01*
G01X1238947Y491910D01*
G01X1241741Y484036D01*
G01X1247075Y478702D01*
G01X1252409Y476162D01*
G01X1260283Y476162D01*
G01X1265617Y478702D01*
G01X1270951Y484036D01*
G01X1298637Y513246D02*
G01X1298637Y476162D01*
G01X1298637Y497244D02*
G01X1301431Y505372D01*
G01X1306765Y510706D01*
G01X1312099Y513246D01*
G01X1319973Y513246D01*
G01X1347659Y497244D02*
G01X1379663Y497244D01*
G01X1379663Y502578D01*
G01X1376869Y507912D01*
G01X1374329Y510706D01*
G01X1368995Y513246D01*
G01X1361121Y513246D01*
G01X1355787Y510706D01*
G01X1350453Y505372D01*
G01X1347659Y497244D01*
G01X1347659Y491910D01*
G01X1350453Y484036D01*
G01X1355787Y478702D01*
G01X1361121Y476162D01*
G01X1368995Y476162D01*
G01X1374329Y478702D01*
G01X1379663Y484036D01*
G01X523683Y431966D02*
G01X518349Y429172D01*
G01X513015Y423838D01*
G01X510475Y418504D01*
G01X507935Y410630D01*
G01X507935Y397422D01*
G01X510475Y389294D01*
G01X513015Y383960D01*
G01X518349Y378626D01*
G01X523683Y376086D01*
G01X534351Y376086D01*
G01X539685Y378626D01*
G01X545019Y383960D01*
G01X547559Y389294D01*
G01X550353Y397422D01*
G01X550353Y410630D01*
G01X547559Y418504D01*
G01X545019Y423838D01*
G01X539685Y429172D01*
G01X534351Y431966D01*
G01X523683Y431966D01*
G01X578039Y413170D02*
G01X578039Y376086D01*
G01X578039Y402756D02*
G01X586167Y410630D01*
G01X591501Y413170D01*
G01X599375Y413170D01*
G01X604709Y410630D01*
G01X607249Y402756D01*
G01X607249Y376086D01*
G01X694625Y431966D02*
G01X694625Y376086D01*
G01X694625Y431966D02*
G01X718501Y431966D01*
G01X726375Y429172D01*
G01X728915Y426632D01*
G01X731709Y421298D01*
G01X731709Y415964D01*
G01X728915Y410630D01*
G01X726375Y408090D01*
G01X718501Y405296D01*
G01X694625Y405296D02*
G01X718501Y405296D01*
G01X726375Y402756D01*
G01X728915Y399962D01*
G01X731709Y394628D01*
G01X731709Y386754D01*
G01X728915Y381420D01*
G01X726375Y378626D01*
G01X718501Y376086D01*
G01X694625Y376086D01*
G01X791399Y413170D02*
G01X791399Y376086D01*
G01X791399Y405296D02*
G01X786065Y410630D01*
G01X780731Y413170D01*
G01X772857Y413170D01*
G01X767523Y410630D01*
G01X762189Y405296D01*
G01X759395Y397422D01*
G01X759395Y392088D01*
G01X762189Y383960D01*
G01X767523Y378626D01*
G01X772857Y376086D01*
G01X780731Y376086D01*
G01X786065Y378626D01*
G01X791399Y383960D01*
G01X851089Y405296D02*
G01X845755Y410630D01*
G01X840421Y413170D01*
G01X832547Y413170D01*
G01X827213Y410630D01*
G01X821879Y405296D01*
G01X819085Y397422D01*
G01X819085Y392088D01*
G01X821879Y383960D01*
G01X827213Y378626D01*
G01X832547Y376086D01*
G01X840421Y376086D01*
G01X845755Y378626D01*
G01X851089Y383960D01*
G01X878775Y431966D02*
G01X878775Y376086D01*
G01X905445Y413170D02*
G01X878775Y386754D01*
G01X889443Y397422D02*
G01X907985Y376086D01*
G01X1032445Y423838D02*
G01X1027111Y429172D01*
G01X1019237Y431966D01*
G01X1008569Y431966D01*
G01X1000441Y429172D01*
G01X995361Y423838D01*
G01X995361Y418504D01*
G01X997901Y413170D01*
G01X1000441Y410630D01*
G01X1005775Y408090D01*
G01X1021777Y402756D01*
G01X1027111Y399962D01*
G01X1029651Y397422D01*
G01X1032445Y392088D01*
G01X1032445Y383960D01*
G01X1027111Y378626D01*
G01X1019237Y376086D01*
G01X1008569Y376086D01*
G01X1000441Y378626D01*
G01X995361Y383960D01*
G01X1060131Y431966D02*
G01X1062925Y429172D01*
G01X1065465Y431966D01*
G01X1062925Y434506D01*
G01X1060131Y431966D01*
G01X1062925Y413170D02*
G01X1062925Y376086D01*
G01X1093151Y431966D02*
G01X1093151Y376086D01*
G01X1121091Y431966D02*
G01X1121091Y376086D01*
G01X1147507Y413170D02*
G01X1121091Y386754D01*
G01X1131505Y397422D02*
G01X1150301Y376086D01*
G01X1207197Y405296D02*
G01X1204657Y410630D01*
G01X1196529Y413170D01*
G01X1188655Y413170D01*
G01X1180781Y410630D01*
G01X1177987Y405296D01*
G01X1180781Y399962D01*
G01X1186115Y397422D01*
G01X1199323Y394628D01*
G01X1204657Y392088D01*
G01X1207197Y386754D01*
G01X1207197Y383960D01*
G01X1204657Y378626D01*
G01X1196529Y376086D01*
G01X1188655Y376086D01*
G01X1180781Y378626D01*
G01X1177987Y383960D01*
G01X1266887Y405296D02*
G01X1261553Y410630D01*
G01X1256219Y413170D01*
G01X1248345Y413170D01*
G01X1243011Y410630D01*
G01X1237677Y405296D01*
G01X1234883Y397422D01*
G01X1234883Y392088D01*
G01X1237677Y383960D01*
G01X1243011Y378626D01*
G01X1248345Y376086D01*
G01X1256219Y376086D01*
G01X1261553Y378626D01*
G01X1266887Y383960D01*
G01X1294573Y413170D02*
G01X1294573Y376086D01*
G01X1294573Y397422D02*
G01X1297367Y405296D01*
G01X1302701Y410630D01*
G01X1308035Y413170D01*
G01X1315909Y413170D01*
G01X1343595Y397422D02*
G01X1375599Y397422D01*
G01X1375599Y402756D01*
G01X1372805Y408090D01*
G01X1370265Y410630D01*
G01X1364931Y413170D01*
G01X1357057Y413170D01*
G01X1351723Y410630D01*
G01X1346389Y405296D01*
G01X1343595Y397422D01*
G01X1343595Y392088D01*
G01X1346389Y383960D01*
G01X1351723Y378626D01*
G01X1357057Y376086D01*
G01X1364931Y376086D01*
G01X1370265Y378626D01*
G01X1375599Y383960D01*
G01X1403285Y397422D02*
G01X1435289Y397422D01*
G01X1435289Y402756D01*
G01X1432495Y408090D01*
G01X1429955Y410630D01*
G01X1424621Y413170D01*
G01X1416747Y413170D01*
G01X1411413Y410630D01*
G01X1406079Y405296D01*
G01X1403285Y397422D01*
G01X1403285Y392088D01*
G01X1406079Y383960D01*
G01X1411413Y378626D01*
G01X1416747Y376086D01*
G01X1424621Y376086D01*
G01X1429955Y378626D01*
G01X1435289Y383960D01*
G01X1462975Y413170D02*
G01X1462975Y376086D01*
G01X1462975Y402756D02*
G01X1471103Y410630D01*
G01X1476437Y413170D01*
G01X1484311Y413170D01*
G01X1489645Y410630D01*
G01X1492185Y402756D01*
G01X1492185Y376086D01*
G04 Text End*

M02*

