G04 Layer: BottomLayer*
G04 EasyEDA Pro v3.2.148, 2026-07-02 11:30:31*
G04 Gerber Generator version 0.3*
G04 Scale: 100 percent, Rotated: No, Reflected: No*
G04 Dimensions in millimeters*
G04 Leading zeros omitted, absolute positions, 4 integers and 5 decimals*
G04 Generated by one-click*
G04 Object Configs: Pad,Via,Track,Text,Image,Dimension,BoardOutline,BoardCutout,CopperFilled,SolidRegion,FPCStiffener,Line,PlaneZone,ComponentProperty,ComponentSilkscreen,TearDrop*
G04 Layer Configs: 1,2,3,4,5,6,7,8,9,10,11,13,14,71,72,73,74,75,76,86,56*
G04 Copper Areas: 0*
%FSLAX45Y45*%
%MOMM*%
%ADD10C,0.8*%
%ADD11C,6.4*%
%ADD12C,4.0*%
%ADD13C,2.0*%
%ADD14C,1.0*%
%ADD15C,0.6604*%
G75*


G04 Pad Start*
G54D10*
G01X2260000Y2500000D03*
G01X2330294Y2669706D03*
G01X2330294Y2330294D03*
G01X2500000Y2740000D03*
G54D11*
G01X2500000Y2500000D03*
G54D10*
G01X2500000Y2260000D03*
G01X2669706Y2669706D03*
G01X2669706Y2330294D03*
G01X2740000Y2500000D03*
G01X760000Y1000000D03*
G01X830294Y1169706D03*
G01X830294Y830294D03*
G01X1000000Y1240000D03*
G54D11*
G01X1000000Y1000000D03*
G54D10*
G01X1000000Y760000D03*
G01X1169706Y1169706D03*
G01X1169706Y830294D03*
G01X1240000Y1000000D03*
G01X6760000Y1000000D03*
G01X6830294Y1169706D03*
G01X6830294Y830294D03*
G01X7000000Y1240000D03*
G54D11*
G01X7000000Y1000000D03*
G54D10*
G01X7000000Y760000D03*
G01X7169706Y1169706D03*
G01X7169706Y830294D03*
G01X7240000Y1000000D03*
G01X5260000Y2500000D03*
G01X5330294Y2669706D03*
G01X5330294Y2330294D03*
G01X5500000Y2740000D03*
G54D11*
G01X5500000Y2500000D03*
G54D10*
G01X5500000Y2260000D03*
G01X5669706Y2669706D03*
G01X5669706Y2330294D03*
G01X5740000Y2500000D03*
G54D12*
G01X1750000Y1750000D03*
G04 Pad End*

G04 Track Start*
G54D13*
G01X1575000Y75000D02*
G01X2425000Y925000D01*
G01X6425000Y75000D02*
G01X5575000Y925000D01*
G54D14*
G01X1750000Y1750000D02*
G01X1000000Y1000000D01*
G04 Track End*

M02*

