G04 Layer: TopSilkscreenLayer*
G04 EasyEDA Pro v3.2.148, 2026-07-02 11:30:31*
G04 Gerber Generator version 0.3*
G04 Scale: 100 percent, Rotated: No, Reflected: No*
G04 Dimensions in millimeters*
G04 Leading zeros omitted, absolute positions, 4 integers and 5 decimals*
G04 Generated by one-click*
G04 Object Configs: Pad,Via,Track,Text,Image,Dimension,BoardOutline,BoardCutout,CopperFilled,SolidRegion,FPCStiffener,Line,PlaneZone,ComponentProperty,ComponentSilkscreen,TearDrop*
G04 Layer Configs: 1,2,3,4,5,6,7,8,9,10,11,13,14,71,72,73,74,75,76,86,56*
G04 Copper Areas: 0*
%FSLAX45Y45*%
%MOMM*%
%ADD10C,0.15*%
%ADD11C,2.5*%
%ADD12C,0.7840*%
G75*


G04 Text Start*
G54D10*
G01X4574684Y1229698D02*
G01X4574684Y1233762D01*
G01X4579002Y1242144D01*
G01X4583066Y1246462D01*
G01X4591702Y1250780D01*
G01X4608466Y1250780D01*
G01X4616848Y1246462D01*
G01X4621166Y1242144D01*
G01X4625230Y1233762D01*
G01X4625230Y1225380D01*
G01X4621166Y1216998D01*
G01X4612784Y1204298D01*
G01X4570620Y1162134D01*
G01X4629548Y1162134D01*
G01X5579002Y1250780D02*
G01X5625230Y1250780D01*
G01X5600084Y1216998D01*
G01X5612784Y1216998D01*
G01X5621166Y1212680D01*
G01X5625230Y1208362D01*
G01X5629548Y1195916D01*
G01X5629548Y1187280D01*
G01X5625230Y1174834D01*
G01X5616848Y1166198D01*
G01X5604148Y1162134D01*
G01X5591702Y1162134D01*
G01X5579002Y1166198D01*
G01X5574684Y1170516D01*
G01X5570620Y1178898D01*
G01X2595766Y1250780D02*
G01X2583066Y1246462D01*
G01X2574684Y1233762D01*
G01X2570620Y1212680D01*
G01X2570620Y1199980D01*
G01X2574684Y1178898D01*
G01X2583066Y1166198D01*
G01X2595766Y1162134D01*
G01X2604148Y1162134D01*
G01X2616848Y1166198D01*
G01X2625230Y1178898D01*
G01X2629548Y1199980D01*
G01X2629548Y1212680D01*
G01X2625230Y1233762D01*
G01X2616848Y1246462D01*
G01X2604148Y1250780D01*
G01X2595766Y1250780D01*
G01X3589543Y1233762D02*
G01X3597925Y1238080D01*
G01X3610625Y1250780D01*
G01X3610625Y1162134D01*
G04 Text End*

G04 Circle Start*
G54D11*
G01X6125000Y1750000D02*
G03X6375000Y1750000I125000J0D01*
G03X6125000Y1750000I-125000J0D01*
G04 Circle End*

M02*

