G04 Layer: BottomAssemblyLayer*
G04 EasyEDA Pro v3.2.148, 2026-07-02 11:30:31*
G04 Gerber Generator version 0.3*
G04 Scale: 100 percent, Rotated: No, Reflected: No*
G04 Dimensions in millimeters*
G04 Leading zeros omitted, absolute positions, 4 integers and 5 decimals*
G04 Generated by one-click*
G04 Object Configs: Pad,Via,Track,Text,Image,Dimension,BoardOutline,BoardCutout,CopperFilled,SolidRegion,FPCStiffener,Line,PlaneZone,ComponentProperty,ComponentSilkscreen,TearDrop*
G04 Layer Configs: 1,2,3,4,5,6,7,8,9,10,11,13,14,71,72,73,74,75,76,86,56*
G04 Copper Areas: 0*
%FSLAX45Y45*%
%MOMM*%
%ADD10C,0.15*%
%ADD11C,0.3064*%
G75*


G04 Text Start*
G54D10*
G01X1965840Y2091788D02*
G01X1965840Y2036162D01*
G01X1984382Y2091788D02*
G01X1947298Y2091788D01*
G01X1919612Y2057244D02*
G01X1887608Y2057244D01*
G01X1887608Y2062578D01*
G01X1890402Y2067912D01*
G01X1892942Y2070706D01*
G01X1898276Y2073246D01*
G01X1906150Y2073246D01*
G01X1911484Y2070706D01*
G01X1916818Y2065372D01*
G01X1919612Y2057244D01*
G01X1919612Y2051910D01*
G01X1916818Y2044036D01*
G01X1911484Y2038702D01*
G01X1906150Y2036162D01*
G01X1898276Y2036162D01*
G01X1892942Y2038702D01*
G01X1887608Y2044036D01*
G01X1830712Y2065372D02*
G01X1833252Y2070706D01*
G01X1841380Y2073246D01*
G01X1849254Y2073246D01*
G01X1857128Y2070706D01*
G01X1859922Y2065372D01*
G01X1857128Y2060038D01*
G01X1851794Y2057244D01*
G01X1838586Y2054704D01*
G01X1833252Y2051910D01*
G01X1830712Y2046830D01*
G01X1830712Y2044036D01*
G01X1833252Y2038702D01*
G01X1841380Y2036162D01*
G01X1849254Y2036162D01*
G01X1857128Y2038702D01*
G01X1859922Y2044036D01*
G01X1794898Y2091788D02*
G01X1794898Y2046830D01*
G01X1792358Y2038702D01*
G01X1787024Y2036162D01*
G01X1781690Y2036162D01*
G01X1803026Y2073246D02*
G01X1784484Y2073246D01*
G01X1754004Y2091788D02*
G01X1754004Y2036162D01*
G01X1754004Y2091788D02*
G01X1730128Y2091788D01*
G01X1722000Y2089248D01*
G01X1719460Y2086454D01*
G01X1716666Y2081374D01*
G01X1716666Y2073246D01*
G01X1719460Y2067912D01*
G01X1722000Y2065372D01*
G01X1730128Y2062578D01*
G01X1754004Y2062578D01*
G01X1675518Y2073246D02*
G01X1680852Y2070706D01*
G01X1686186Y2065372D01*
G01X1688980Y2057244D01*
G01X1688980Y2051910D01*
G01X1686186Y2044036D01*
G01X1680852Y2038702D01*
G01X1675518Y2036162D01*
G01X1667644Y2036162D01*
G01X1662310Y2038702D01*
G01X1656976Y2044036D01*
G01X1654436Y2051910D01*
G01X1654436Y2057244D01*
G01X1656976Y2065372D01*
G01X1662310Y2070706D01*
G01X1667644Y2073246D01*
G01X1675518Y2073246D01*
G01X1626750Y2091788D02*
G01X1623956Y2089248D01*
G01X1621416Y2091788D01*
G01X1623956Y2094582D01*
G01X1626750Y2091788D01*
G01X1623956Y2073246D02*
G01X1623956Y2036162D01*
G01X1593730Y2073246D02*
G01X1593730Y2036162D01*
G01X1593730Y2062578D02*
G01X1585602Y2070706D01*
G01X1580268Y2073246D01*
G01X1572394Y2073246D01*
G01X1567060Y2070706D01*
G01X1564520Y2062578D01*
G01X1564520Y2036162D01*
G01X1528706Y2091788D02*
G01X1528706Y2046830D01*
G01X1526166Y2038702D01*
G01X1520832Y2036162D01*
G01X1515498Y2036162D01*
G01X1536834Y2073246D02*
G01X1518292Y2073246D01*
G01X1803026Y1491788D02*
G01X1803026Y1436162D01*
G01X1821568Y1491788D02*
G01X1784484Y1491788D01*
G01X1756798Y1491788D02*
G01X1756798Y1436162D01*
G01X1756798Y1491788D02*
G01X1732922Y1491788D01*
G01X1724794Y1489248D01*
G01X1722254Y1486454D01*
G01X1719460Y1481374D01*
G01X1719460Y1473246D01*
G01X1722254Y1467912D01*
G01X1724794Y1465372D01*
G01X1732922Y1462578D01*
G01X1756798Y1462578D01*
G01X1691774Y1481374D02*
G01X1686440Y1483914D01*
G01X1678312Y1491788D01*
G01X1678312Y1436162D01*
G04 Text End*

M02*

