G04 Layer: TopSolderMaskLayer*
G04 EasyEDA Pro v3.2.148, 2026-07-02 11:30:31*
G04 Gerber Generator version 0.3*
G04 Scale: 100 percent, Rotated: No, Reflected: No*
G04 Dimensions in millimeters*
G04 Leading zeros omitted, absolute positions, 4 integers and 5 decimals*
G04 Generated by one-click*
G04 Object Configs: Pad,Via,Track,Text,Image,Dimension,BoardOutline,BoardCutout,CopperFilled,SolidRegion,FPCStiffener,Line,PlaneZone,ComponentProperty,ComponentSilkscreen,TearDrop*
G04 Layer Configs: 1,2,3,4,5,6,7,8,9,10,11,13,14,71,72,73,74,75,76,86,56*
G04 Copper Areas: 0*
%FSLAX45Y45*%
%MOMM*%
%ADD10C,0.15*%
%ADD11C,2.5*%
%ADD12C,3.0*%
%ADD13C,0.8*%
%ADD14C,6.4*%
%ADD15C,2.0025*%
%ADD16C,2.0*%
G75*


G04 PolygonModel Start*
G54D10*
G01X3000000Y3000000D02*
G01X3000000Y1500000D01*
G01X4000000Y1500000D02*
G01X4000000Y2100000D01*
G01X4000000Y3000000D02*
G01X4000000Y2900000D01*
G01X3000000Y1500000D02*
G01X5000000Y1500000D01*
G01X4400000Y2500000D02*
G01X5000000Y2500000D01*
G01X3500000Y3000000D02*
G01X3500000Y1500000D01*
G01X4500000Y1500000D02*
G01X4500000Y3000000D01*
G01X5000000Y3000000D02*
G01X3000000Y3000000D01*
G01X3600000Y2500000D02*
G01X3000000Y2500000D01*
G01X3000000Y2000000D02*
G01X5000000Y2000000D01*
G01X5000000Y1500000D02*
G01X5000000Y3000000D01*
G01X2500024Y1000050D02*
G01X2500024Y1300050D01*
G01X2600024Y1000050D02*
G01X2600024Y1100050D01*
G01X2700024Y1000050D02*
G01X2700024Y1100050D01*
G01X2800024Y1000050D02*
G01X2800024Y1100050D01*
G01X2900024Y1000050D02*
G01X2900024Y1100050D01*
G01X3000024Y1000050D02*
G01X3000024Y1200050D01*
G01X3100024Y1000050D02*
G01X3100024Y1100050D01*
G01X3200024Y1000050D02*
G01X3200024Y1100050D01*
G01X3300024Y1000050D02*
G01X3300024Y1100050D01*
G01X3400024Y1000050D02*
G01X3400024Y1100050D01*
G01X3500024Y1000050D02*
G01X3500024Y1300050D01*
G01X3600024Y1000050D02*
G01X3600024Y1100050D01*
G01X3700024Y1000050D02*
G01X3700024Y1100050D01*
G01X3800024Y1000050D02*
G01X3800024Y1100050D01*
G01X3900024Y1000050D02*
G01X3900024Y1100050D01*
G01X4000024Y1000050D02*
G01X4000024Y1200050D01*
G01X4100024Y1000050D02*
G01X4100024Y1100050D01*
G01X4200024Y1000050D02*
G01X4200024Y1100050D01*
G01X4300024Y1000050D02*
G01X4300024Y1100050D01*
G01X4400024Y1000050D02*
G01X4400024Y1100050D01*
G01X4500024Y1000050D02*
G01X4500024Y1300050D01*
G01X4600024Y1000050D02*
G01X4600024Y1100050D01*
G01X4700024Y1000050D02*
G01X4700024Y1100050D01*
G01X4800024Y1000050D02*
G01X4800024Y1100050D01*
G01X4900024Y1000050D02*
G01X4900024Y1100050D01*
G01X5000024Y1000050D02*
G01X5000024Y1200050D01*
G01X5100024Y1000050D02*
G01X5100024Y1100050D01*
G01X5200024Y1000050D02*
G01X5200024Y1100050D01*
G01X5300024Y1000050D02*
G01X5300024Y1100050D01*
G01X5400024Y1000050D02*
G01X5400024Y1100050D01*
G01X5500024Y1000050D02*
G01X5500024Y1300050D01*

G04 Circle Start*
G54D11*
G01X1625000Y1750000D02*
G03X1875000Y1750000I125000J0D01*
G03X1625000Y1750000I-125000J0D01*
G54D10*
G01X3600000Y2500000D02*
G03X4400000Y2500000I400000J0D01*
G03X3600000Y2500000I-400000J0D01*
G04 Circle End*

G04 Pad Start*
G54D12*
G01X3000000Y1500000D03*
G01X3000000Y3000000D03*
G54D13*
G01X2260000Y2500000D03*
G01X2330294Y2669706D03*
G01X2330294Y2330294D03*
G01X2500000Y2740000D03*
G54D14*
G01X2500000Y2500000D03*
G54D13*
G01X2500000Y2260000D03*
G01X2669706Y2669706D03*
G01X2669706Y2330294D03*
G01X2740000Y2500000D03*
G01X760000Y1000000D03*
G01X830294Y1169706D03*
G01X830294Y830294D03*
G01X1000000Y1240000D03*
G54D14*
G01X1000000Y1000000D03*
G54D13*
G01X1000000Y760000D03*
G01X1169706Y1169706D03*
G01X1169706Y830294D03*
G01X1240000Y1000000D03*
G01X6760000Y1000000D03*
G01X6830294Y1169706D03*
G01X6830294Y830294D03*
G01X7000000Y1240000D03*
G54D14*
G01X7000000Y1000000D03*
G54D13*
G01X7000000Y760000D03*
G01X7169706Y1169706D03*
G01X7169706Y830294D03*
G01X7240000Y1000000D03*
G01X5260000Y2500000D03*
G01X5330294Y2669706D03*
G01X5330294Y2330294D03*
G01X5500000Y2740000D03*
G54D14*
G01X5500000Y2500000D03*
G54D13*
G01X5500000Y2260000D03*
G01X5669706Y2669706D03*
G01X5669706Y2330294D03*
G01X5740000Y2500000D03*
G54D16*
G01X4000000Y2500000D03*
G54D12*
G01X7500000Y500000D03*
G01X500000Y500000D03*
G01X5000000Y1500000D03*
G01X5000000Y3000000D03*
G04 Pad End*

M02*

