G04 Layer: DrillDrawingLayer*
G04 EasyEDA Pro v3.2.148, 2026-07-02 11:30:31*
G04 Gerber Generator version 0.3*
G04 Scale: 100 percent, Rotated: No, Reflected: No*
G04 Dimensions in millimeters*
G04 Leading zeros omitted, absolute positions, 4 integers and 5 decimals*
G04 Generated by one-click*
G04 Object Configs: Pad,Via,Track,Text,Image,Dimension,BoardOutline,BoardCutout,CopperFilled,SolidRegion,FPCStiffener,Line,PlaneZone,ComponentProperty,ComponentSilkscreen,TearDrop*
G04 Layer Configs: 1,2,3,4,5,6,7,8,9,10,11,13,14,71,72,73,74,75,76,86,56*
G04 Copper Areas: 0*
%FSLAX45Y45*%
%MOMM*%
%AMIconRect*4,1,4,0.28,-0.28,-0.28,-0.28,-0.28,0.28,0.28,0.28,0.28,-0.28,0*4,0,4,0.233333,-0.233333,0.233333,0.233333,-0.233333,0.233333,-0.233333,-0.233333,0.233333,-0.233333,0*%
%ADD10IconRect*%
%ADD11C,0.616X0.522667*%
%ADD12C,0.2032*%
%ADD13C,0.254*%
G75*


G04 Drill Drawing Start*
G54D10*
G01X1000000Y1000000D03*
G01X2500000Y2500000D03*
G01X5500000Y2500000D03*
G01X7000000Y1000000D03*
G54D11*
G01X760000Y1000000D03*
G01X830294Y830294D03*
G01X830294Y1169706D03*
G01X1000000Y760000D03*
G01X1000000Y1240000D03*
G01X1169706Y830294D03*
G01X1169706Y1169706D03*
G01X1240000Y1000000D03*
G01X2260000Y2500000D03*
G01X2330294Y2330294D03*
G01X2330294Y2669706D03*
G01X2500000Y2260000D03*
G01X2500000Y2740000D03*
G01X2669706Y2330294D03*
G01X2669706Y2669706D03*
G01X2740000Y2500000D03*
G01X5260000Y2500000D03*
G01X5330294Y2330294D03*
G01X5330294Y2669706D03*
G01X5500000Y2260000D03*
G01X5500000Y2740000D03*
G01X5669706Y2330294D03*
G01X5669706Y2669706D03*
G01X5740000Y2500000D03*
G01X6760000Y1000000D03*
G01X6830294Y830294D03*
G01X6830294Y1169706D03*
G01X7000000Y760000D03*
G01X7000000Y1240000D03*
G01X7169706Y830294D03*
G01X7169706Y1169706D03*
G01X7240000Y1000000D03*
G04 Drill Drawing End*

G04 Text Start*
G54D12*
G01X10300446Y3278294D02*
G01X10300446Y3158152D01*
G01X10300446Y3278294D02*
G01X10346166Y3158152D01*
G01X10391886Y3278294D02*
G01X10346166Y3158152D01*
G01X10391886Y3278294D02*
G01X10391886Y3158152D01*
G01X10508218Y3238162D02*
G01X10508218Y3158152D01*
G01X10508218Y3221144D02*
G01X10496788Y3232574D01*
G01X10485358Y3238162D01*
G01X10468340Y3238162D01*
G01X10456910Y3232574D01*
G01X10445480Y3221144D01*
G01X10439638Y3203872D01*
G01X10439638Y3192442D01*
G01X10445480Y3175424D01*
G01X10456910Y3163994D01*
G01X10468340Y3158152D01*
G01X10485358Y3158152D01*
G01X10496788Y3163994D01*
G01X10508218Y3175424D01*
G01X10555970Y3238162D02*
G01X10555970Y3158152D01*
G01X10555970Y3203872D02*
G01X10561812Y3221144D01*
G01X10573242Y3232574D01*
G01X10584672Y3238162D01*
G01X10601690Y3238162D01*
G01X10649442Y3278294D02*
G01X10649442Y3158152D01*
G01X10706592Y3238162D02*
G01X10649442Y3181012D01*
G01X10672302Y3203872D02*
G01X10712434Y3158152D01*
G01X11837726Y3249592D02*
G01X11831884Y3261022D01*
G01X11820454Y3272452D01*
G01X11809024Y3278294D01*
G01X11786164Y3278294D01*
G01X11774734Y3272452D01*
G01X11763304Y3261022D01*
G01X11757716Y3249592D01*
G01X11751874Y3232574D01*
G01X11751874Y3203872D01*
G01X11757716Y3186854D01*
G01X11763304Y3175424D01*
G01X11774734Y3163994D01*
G01X11786164Y3158152D01*
G01X11809024Y3158152D01*
G01X11820454Y3163994D01*
G01X11831884Y3175424D01*
G01X11837726Y3186854D01*
G01X11914180Y3238162D02*
G01X11902750Y3232574D01*
G01X11891320Y3221144D01*
G01X11885478Y3203872D01*
G01X11885478Y3192442D01*
G01X11891320Y3175424D01*
G01X11902750Y3163994D01*
G01X11914180Y3158152D01*
G01X11931198Y3158152D01*
G01X11942628Y3163994D01*
G01X11954058Y3175424D01*
G01X11959900Y3192442D01*
G01X11959900Y3203872D01*
G01X11954058Y3221144D01*
G01X11942628Y3232574D01*
G01X11931198Y3238162D01*
G01X11914180Y3238162D01*
G01X12007652Y3238162D02*
G01X12007652Y3181012D01*
G01X12013494Y3163994D01*
G01X12024924Y3158152D01*
G01X12041942Y3158152D01*
G01X12053372Y3163994D01*
G01X12070644Y3181012D01*
G01X12070644Y3238162D02*
G01X12070644Y3158152D01*
G01X12118396Y3238162D02*
G01X12118396Y3158152D01*
G01X12118396Y3215302D02*
G01X12135668Y3232574D01*
G01X12147098Y3238162D01*
G01X12164116Y3238162D01*
G01X12175546Y3232574D01*
G01X12181388Y3215302D01*
G01X12181388Y3158152D01*
G01X12246412Y3278294D02*
G01X12246412Y3181012D01*
G01X12252000Y3163994D01*
G01X12263430Y3158152D01*
G01X12274860Y3158152D01*
G01X12229140Y3238162D02*
G01X12269272Y3238162D01*
G01X13246047Y3261022D02*
G01X13234617Y3272452D01*
G01X13217599Y3278294D01*
G01X13194739Y3278294D01*
G01X13177467Y3272452D01*
G01X13166037Y3261022D01*
G01X13166037Y3249592D01*
G01X13171879Y3238162D01*
G01X13177467Y3232574D01*
G01X13188897Y3226732D01*
G01X13223187Y3215302D01*
G01X13234617Y3209714D01*
G01X13240459Y3203872D01*
G01X13246047Y3192442D01*
G01X13246047Y3175424D01*
G01X13234617Y3163994D01*
G01X13217599Y3158152D01*
G01X13194739Y3158152D01*
G01X13177467Y3163994D01*
G01X13166037Y3175424D01*
G01X13293799Y3278294D02*
G01X13299641Y3272452D01*
G01X13305229Y3278294D01*
G01X13299641Y3283882D01*
G01X13293799Y3278294D01*
G01X13299641Y3238162D02*
G01X13299641Y3158152D01*
G01X13415973Y3238162D02*
G01X13352981Y3158152D01*
G01X13352981Y3238162D02*
G01X13415973Y3238162D01*
G01X13352981Y3158152D02*
G01X13415973Y3158152D01*
G01X13463725Y3203872D02*
G01X13532305Y3203872D01*
G01X13532305Y3215302D01*
G01X13526717Y3226732D01*
G01X13520875Y3232574D01*
G01X13509445Y3238162D01*
G01X13492427Y3238162D01*
G01X13480997Y3232574D01*
G01X13469567Y3221144D01*
G01X13463725Y3203872D01*
G01X13463725Y3192442D01*
G01X13469567Y3175424D01*
G01X13480997Y3163994D01*
G01X13492427Y3158152D01*
G01X13509445Y3158152D01*
G01X13520875Y3163994D01*
G01X13532305Y3175424D01*
G01X17201227Y3278294D02*
G01X17201227Y3158152D01*
G01X17201227Y3278294D02*
G01X17252789Y3278294D01*
G01X17269807Y3272452D01*
G01X17275649Y3266864D01*
G01X17281237Y3255434D01*
G01X17281237Y3238162D01*
G01X17275649Y3226732D01*
G01X17269807Y3221144D01*
G01X17252789Y3215302D01*
G01X17201227Y3215302D01*
G01X17328989Y3278294D02*
G01X17328989Y3158152D01*
G01X17445321Y3238162D02*
G01X17445321Y3158152D01*
G01X17445321Y3221144D02*
G01X17433891Y3232574D01*
G01X17422461Y3238162D01*
G01X17405443Y3238162D01*
G01X17394013Y3232574D01*
G01X17382583Y3221144D01*
G01X17376741Y3203872D01*
G01X17376741Y3192442D01*
G01X17382583Y3175424D01*
G01X17394013Y3163994D01*
G01X17405443Y3158152D01*
G01X17422461Y3158152D01*
G01X17433891Y3163994D01*
G01X17445321Y3175424D01*
G01X17510345Y3278294D02*
G01X17510345Y3181012D01*
G01X17515933Y3163994D01*
G01X17527363Y3158152D01*
G01X17538793Y3158152D01*
G01X17493073Y3238162D02*
G01X17533205Y3238162D01*
G01X17586545Y3203872D02*
G01X17655125Y3203872D01*
G01X17655125Y3215302D01*
G01X17649537Y3226732D01*
G01X17643695Y3232574D01*
G01X17632265Y3238162D01*
G01X17615247Y3238162D01*
G01X17603817Y3232574D01*
G01X17592387Y3221144D01*
G01X17586545Y3203872D01*
G01X17586545Y3192442D01*
G01X17592387Y3175424D01*
G01X17603817Y3163994D01*
G01X17615247Y3158152D01*
G01X17632265Y3158152D01*
G01X17643695Y3163994D01*
G01X17655125Y3175424D01*
G01X17771457Y3278294D02*
G01X17771457Y3158152D01*
G01X17771457Y3221144D02*
G01X17760027Y3232574D01*
G01X17748597Y3238162D01*
G01X17731579Y3238162D01*
G01X17720149Y3232574D01*
G01X17708719Y3221144D01*
G01X17702877Y3203872D01*
G01X17702877Y3192442D01*
G01X17708719Y3175424D01*
G01X17720149Y3163994D01*
G01X17731579Y3158152D01*
G01X17748597Y3158152D01*
G01X17760027Y3163994D01*
G01X17771457Y3175424D01*
G01X18742644Y3261022D02*
G01X18731214Y3272452D01*
G01X18714196Y3278294D01*
G01X18691336Y3278294D01*
G01X18674064Y3272452D01*
G01X18662634Y3261022D01*
G01X18662634Y3249592D01*
G01X18668476Y3238162D01*
G01X18674064Y3232574D01*
G01X18685494Y3226732D01*
G01X18719784Y3215302D01*
G01X18731214Y3209714D01*
G01X18737056Y3203872D01*
G01X18742644Y3192442D01*
G01X18742644Y3175424D01*
G01X18731214Y3163994D01*
G01X18714196Y3158152D01*
G01X18691336Y3158152D01*
G01X18674064Y3163994D01*
G01X18662634Y3175424D01*
G01X18790396Y3278294D02*
G01X18790396Y3158152D01*
G01X18790396Y3215302D02*
G01X18807668Y3232574D01*
G01X18819098Y3238162D01*
G01X18836116Y3238162D01*
G01X18847546Y3232574D01*
G01X18853388Y3215302D01*
G01X18853388Y3158152D01*
G01X18969720Y3238162D02*
G01X18969720Y3158152D01*
G01X18969720Y3221144D02*
G01X18958290Y3232574D01*
G01X18946860Y3238162D01*
G01X18929842Y3238162D01*
G01X18918412Y3232574D01*
G01X18906982Y3221144D01*
G01X18901140Y3203872D01*
G01X18901140Y3192442D01*
G01X18906982Y3175424D01*
G01X18918412Y3163994D01*
G01X18929842Y3158152D01*
G01X18946860Y3158152D01*
G01X18958290Y3163994D01*
G01X18969720Y3175424D01*
G01X19017472Y3238162D02*
G01X19017472Y3118274D01*
G01X19017472Y3221144D02*
G01X19028902Y3232574D01*
G01X19040332Y3238162D01*
G01X19057604Y3238162D01*
G01X19069034Y3232574D01*
G01X19080464Y3221144D01*
G01X19086052Y3203872D01*
G01X19086052Y3192442D01*
G01X19080464Y3175424D01*
G01X19069034Y3163994D01*
G01X19057604Y3158152D01*
G01X19040332Y3158152D01*
G01X19028902Y3163994D01*
G01X19017472Y3175424D01*
G01X19133804Y3203872D02*
G01X19202384Y3203872D01*
G01X19202384Y3215302D01*
G01X19196796Y3226732D01*
G01X19190954Y3232574D01*
G01X19179524Y3238162D01*
G01X19162506Y3238162D01*
G01X19151076Y3232574D01*
G01X19139646Y3221144D01*
G01X19133804Y3203872D01*
G01X19133804Y3192442D01*
G01X19139646Y3175424D01*
G01X19151076Y3163994D01*
G01X19162506Y3158152D01*
G01X19179524Y3158152D01*
G01X19190954Y3163994D01*
G01X19202384Y3175424D01*
G01X20093815Y3278294D02*
G01X20139535Y3158152D01*
G01X20185255Y3278294D02*
G01X20139535Y3158152D01*
G01X20233007Y3278294D02*
G01X20238849Y3272452D01*
G01X20244437Y3278294D01*
G01X20238849Y3283882D01*
G01X20233007Y3278294D01*
G01X20238849Y3238162D02*
G01X20238849Y3158152D01*
G01X20360769Y3238162D02*
G01X20360769Y3158152D01*
G01X20360769Y3221144D02*
G01X20349339Y3232574D01*
G01X20337909Y3238162D01*
G01X20320891Y3238162D01*
G01X20309461Y3232574D01*
G01X20298031Y3221144D01*
G01X20292189Y3203872D01*
G01X20292189Y3192442D01*
G01X20298031Y3175424D01*
G01X20309461Y3163994D01*
G01X20320891Y3158152D01*
G01X20337909Y3158152D01*
G01X20349339Y3163994D01*
G01X20360769Y3175424D01*
G01X20511391Y3301154D02*
G01X20408521Y3118274D01*
G01X20559143Y3278294D02*
G01X20559143Y3158152D01*
G01X20559143Y3278294D02*
G01X20610705Y3278294D01*
G01X20627723Y3272452D01*
G01X20633565Y3266864D01*
G01X20639153Y3255434D01*
G01X20639153Y3238162D01*
G01X20633565Y3226732D01*
G01X20627723Y3221144D01*
G01X20610705Y3215302D01*
G01X20559143Y3215302D01*
G01X20755485Y3238162D02*
G01X20755485Y3158152D01*
G01X20755485Y3221144D02*
G01X20744055Y3232574D01*
G01X20732625Y3238162D01*
G01X20715607Y3238162D01*
G01X20704177Y3232574D01*
G01X20692747Y3221144D01*
G01X20686905Y3203872D01*
G01X20686905Y3192442D01*
G01X20692747Y3175424D01*
G01X20704177Y3163994D01*
G01X20715607Y3158152D01*
G01X20732625Y3158152D01*
G01X20744055Y3163994D01*
G01X20755485Y3175424D01*
G01X20871817Y3278294D02*
G01X20871817Y3158152D01*
G01X20871817Y3221144D02*
G01X20860387Y3232574D01*
G01X20848957Y3238162D01*
G01X20831939Y3238162D01*
G01X20820509Y3232574D01*
G01X20809079Y3221144D01*
G01X20803237Y3203872D01*
G01X20803237Y3192442D01*
G01X20809079Y3175424D01*
G01X20820509Y3163994D01*
G01X20831939Y3158152D01*
G01X20848957Y3158152D01*
G01X20860387Y3163994D01*
G01X20871817Y3175424D01*
G01X21762994Y3278294D02*
G01X21762994Y3158152D01*
G01X21762994Y3278294D02*
G01X21814556Y3278294D01*
G01X21831574Y3272452D01*
G01X21837416Y3266864D01*
G01X21843004Y3255434D01*
G01X21843004Y3238162D01*
G01X21837416Y3226732D01*
G01X21831574Y3221144D01*
G01X21814556Y3215302D01*
G01X21762994Y3215302D01*
G01X21959336Y3238162D02*
G01X21959336Y3158152D01*
G01X21959336Y3221144D02*
G01X21947906Y3232574D01*
G01X21936476Y3238162D01*
G01X21919458Y3238162D01*
G01X21908028Y3232574D01*
G01X21896598Y3221144D01*
G01X21890756Y3203872D01*
G01X21890756Y3192442D01*
G01X21896598Y3175424D01*
G01X21908028Y3163994D01*
G01X21919458Y3158152D01*
G01X21936476Y3158152D01*
G01X21947906Y3163994D01*
G01X21959336Y3175424D01*
G01X22075668Y3278294D02*
G01X22075668Y3158152D01*
G01X22075668Y3221144D02*
G01X22064238Y3232574D01*
G01X22052808Y3238162D01*
G01X22035790Y3238162D01*
G01X22024360Y3232574D01*
G01X22012930Y3221144D01*
G01X22007088Y3203872D01*
G01X22007088Y3192442D01*
G01X22012930Y3175424D01*
G01X22024360Y3163994D01*
G01X22035790Y3158152D01*
G01X22052808Y3158152D01*
G01X22064238Y3163994D01*
G01X22075668Y3175424D01*
G01X22331446Y3261022D02*
G01X22320016Y3272452D01*
G01X22302998Y3278294D01*
G01X22280138Y3278294D01*
G01X22262866Y3272452D01*
G01X22251436Y3261022D01*
G01X22251436Y3249592D01*
G01X22257278Y3238162D01*
G01X22262866Y3232574D01*
G01X22274296Y3226732D01*
G01X22308586Y3215302D01*
G01X22320016Y3209714D01*
G01X22325858Y3203872D01*
G01X22331446Y3192442D01*
G01X22331446Y3175424D01*
G01X22320016Y3163994D01*
G01X22302998Y3158152D01*
G01X22280138Y3158152D01*
G01X22262866Y3163994D01*
G01X22251436Y3175424D01*
G01X22379198Y3278294D02*
G01X22379198Y3158152D01*
G01X22379198Y3215302D02*
G01X22396470Y3232574D01*
G01X22407900Y3238162D01*
G01X22424918Y3238162D01*
G01X22436348Y3232574D01*
G01X22442190Y3215302D01*
G01X22442190Y3158152D01*
G01X22558522Y3238162D02*
G01X22558522Y3158152D01*
G01X22558522Y3221144D02*
G01X22547092Y3232574D01*
G01X22535662Y3238162D01*
G01X22518644Y3238162D01*
G01X22507214Y3232574D01*
G01X22495784Y3221144D01*
G01X22489942Y3203872D01*
G01X22489942Y3192442D01*
G01X22495784Y3175424D01*
G01X22507214Y3163994D01*
G01X22518644Y3158152D01*
G01X22535662Y3158152D01*
G01X22547092Y3163994D01*
G01X22558522Y3175424D01*
G01X22606274Y3238162D02*
G01X22606274Y3118274D01*
G01X22606274Y3221144D02*
G01X22617704Y3232574D01*
G01X22629134Y3238162D01*
G01X22646406Y3238162D01*
G01X22657836Y3232574D01*
G01X22669266Y3221144D01*
G01X22674854Y3203872D01*
G01X22674854Y3192442D01*
G01X22669266Y3175424D01*
G01X22657836Y3163994D01*
G01X22646406Y3158152D01*
G01X22629134Y3158152D01*
G01X22617704Y3163994D01*
G01X22606274Y3175424D01*
G01X22722606Y3203872D02*
G01X22791186Y3203872D01*
G01X22791186Y3215302D01*
G01X22785598Y3226732D01*
G01X22779756Y3232574D01*
G01X22768326Y3238162D01*
G01X22751308Y3238162D01*
G01X22739878Y3232574D01*
G01X22728448Y3221144D01*
G01X22722606Y3203872D01*
G01X22722606Y3192442D01*
G01X22728448Y3175424D01*
G01X22739878Y3163994D01*
G01X22751308Y3158152D01*
G01X22768326Y3158152D01*
G01X22779756Y3163994D01*
G01X22791186Y3175424D01*
G01X23682363Y3278294D02*
G01X23682363Y3158152D01*
G01X23682363Y3158152D02*
G01X23750943Y3158152D01*
G01X23867275Y3238162D02*
G01X23867275Y3158152D01*
G01X23867275Y3221144D02*
G01X23855845Y3232574D01*
G01X23844415Y3238162D01*
G01X23827397Y3238162D01*
G01X23815967Y3232574D01*
G01X23804537Y3221144D01*
G01X23798695Y3203872D01*
G01X23798695Y3192442D01*
G01X23804537Y3175424D01*
G01X23815967Y3163994D01*
G01X23827397Y3158152D01*
G01X23844415Y3158152D01*
G01X23855845Y3163994D01*
G01X23867275Y3175424D01*
G01X23920869Y3238162D02*
G01X23955159Y3158152D01*
G01X23989449Y3238162D02*
G01X23955159Y3158152D01*
G01X23943729Y3135292D01*
G01X23932299Y3123862D01*
G01X23920869Y3118274D01*
G01X23915027Y3118274D01*
G01X24037201Y3203872D02*
G01X24105781Y3203872D01*
G01X24105781Y3215302D01*
G01X24100193Y3226732D01*
G01X24094351Y3232574D01*
G01X24082921Y3238162D01*
G01X24065903Y3238162D01*
G01X24054473Y3232574D01*
G01X24043043Y3221144D01*
G01X24037201Y3203872D01*
G01X24037201Y3192442D01*
G01X24043043Y3175424D01*
G01X24054473Y3163994D01*
G01X24065903Y3158152D01*
G01X24082921Y3158152D01*
G01X24094351Y3163994D01*
G01X24105781Y3175424D01*
G01X24153533Y3238162D02*
G01X24153533Y3158152D01*
G01X24153533Y3203872D02*
G01X24159375Y3221144D01*
G01X24170805Y3232574D01*
G01X24182235Y3238162D01*
G01X24199253Y3238162D01*
G01X24375021Y3278294D02*
G01X24375021Y3158152D01*
G01X24375021Y3278294D02*
G01X24426583Y3278294D01*
G01X24443601Y3272452D01*
G01X24449443Y3266864D01*
G01X24455031Y3255434D01*
G01X24455031Y3238162D01*
G01X24449443Y3226732D01*
G01X24443601Y3221144D01*
G01X24426583Y3215302D01*
G01X24375021Y3215302D01*
G01X24571363Y3238162D02*
G01X24571363Y3158152D01*
G01X24571363Y3221144D02*
G01X24559933Y3232574D01*
G01X24548503Y3238162D01*
G01X24531485Y3238162D01*
G01X24520055Y3232574D01*
G01X24508625Y3221144D01*
G01X24502783Y3203872D01*
G01X24502783Y3192442D01*
G01X24508625Y3175424D01*
G01X24520055Y3163994D01*
G01X24531485Y3158152D01*
G01X24548503Y3158152D01*
G01X24559933Y3163994D01*
G01X24571363Y3175424D01*
G01X24619115Y3278294D02*
G01X24624957Y3272452D01*
G01X24630545Y3278294D01*
G01X24624957Y3283882D01*
G01X24619115Y3278294D01*
G01X24624957Y3238162D02*
G01X24624957Y3158152D01*
G01X24678297Y3238162D02*
G01X24678297Y3158152D01*
G01X24678297Y3203872D02*
G01X24684139Y3221144D01*
G01X24695569Y3232574D01*
G01X24706999Y3238162D01*
G01X24724017Y3238162D01*
G01X11809024Y2697723D02*
G01X11751874Y2617713D01*
G01X11837726Y2617713D01*
G01X11809024Y2697723D02*
G01X11809024Y2577581D01*
G01X13166037Y2674863D02*
G01X13177467Y2680451D01*
G01X13194739Y2697723D01*
G01X13194739Y2577581D01*
G01X13248333Y2669021D02*
G01X13248333Y2674863D01*
G01X13253921Y2686293D01*
G01X13259763Y2691881D01*
G01X13271193Y2697723D01*
G01X13294053Y2697723D01*
G01X13305483Y2691881D01*
G01X13311071Y2686293D01*
G01X13316913Y2674863D01*
G01X13316913Y2663433D01*
G01X13311071Y2652003D01*
G01X13299641Y2634731D01*
G01X13242491Y2577581D01*
G01X13322501Y2577581D01*
G01X13438833Y2680451D02*
G01X13433245Y2691881D01*
G01X13415973Y2697723D01*
G01X13404543Y2697723D01*
G01X13387525Y2691881D01*
G01X13376095Y2674863D01*
G01X13370253Y2646161D01*
G01X13370253Y2617713D01*
G01X13376095Y2594853D01*
G01X13387525Y2583423D01*
G01X13404543Y2577581D01*
G01X13410385Y2577581D01*
G01X13427403Y2583423D01*
G01X13438833Y2594853D01*
G01X13444675Y2611871D01*
G01X13444675Y2617713D01*
G01X13438833Y2634731D01*
G01X13427403Y2646161D01*
G01X13410385Y2652003D01*
G01X13404543Y2652003D01*
G01X13387525Y2646161D01*
G01X13376095Y2634731D01*
G01X13370253Y2617713D01*
G01X13498269Y2606283D02*
G01X13492427Y2600441D01*
G01X13498269Y2594853D01*
G01X13503857Y2600441D01*
G01X13498269Y2606283D01*
G01X13585899Y2697723D02*
G01X13568881Y2691881D01*
G01X13557451Y2674863D01*
G01X13551609Y2646161D01*
G01X13551609Y2629143D01*
G01X13557451Y2600441D01*
G01X13568881Y2583423D01*
G01X13585899Y2577581D01*
G01X13597329Y2577581D01*
G01X13614601Y2583423D01*
G01X13626031Y2600441D01*
G01X13631619Y2629143D01*
G01X13631619Y2646161D01*
G01X13626031Y2674863D01*
G01X13614601Y2691881D01*
G01X13597329Y2697723D01*
G01X13585899Y2697723D01*
G01X13679371Y2657591D02*
G01X13742363Y2577581D01*
G01X13742363Y2657591D02*
G01X13679371Y2577581D01*
G01X13790115Y2674863D02*
G01X13801545Y2680451D01*
G01X13818817Y2697723D01*
G01X13818817Y2577581D01*
G01X13872411Y2669021D02*
G01X13872411Y2674863D01*
G01X13877999Y2686293D01*
G01X13883841Y2691881D01*
G01X13895271Y2697723D01*
G01X13918131Y2697723D01*
G01X13929561Y2691881D01*
G01X13935149Y2686293D01*
G01X13940991Y2674863D01*
G01X13940991Y2663433D01*
G01X13935149Y2652003D01*
G01X13923719Y2634731D01*
G01X13866569Y2577581D01*
G01X13946579Y2577581D01*
G01X14062911Y2680451D02*
G01X14057323Y2691881D01*
G01X14040051Y2697723D01*
G01X14028621Y2697723D01*
G01X14011603Y2691881D01*
G01X14000173Y2674863D01*
G01X13994331Y2646161D01*
G01X13994331Y2617713D01*
G01X14000173Y2594853D01*
G01X14011603Y2583423D01*
G01X14028621Y2577581D01*
G01X14034463Y2577581D01*
G01X14051481Y2583423D01*
G01X14062911Y2594853D01*
G01X14068753Y2611871D01*
G01X14068753Y2617713D01*
G01X14062911Y2634731D01*
G01X14051481Y2646161D01*
G01X14034463Y2652003D01*
G01X14028621Y2652003D01*
G01X14011603Y2646161D01*
G01X14000173Y2634731D01*
G01X13994331Y2617713D01*
G01X14122347Y2606283D02*
G01X14116505Y2600441D01*
G01X14122347Y2594853D01*
G01X14127935Y2600441D01*
G01X14122347Y2606283D01*
G01X14209977Y2697723D02*
G01X14192959Y2691881D01*
G01X14181529Y2674863D01*
G01X14175687Y2646161D01*
G01X14175687Y2629143D01*
G01X14181529Y2600441D01*
G01X14192959Y2583423D01*
G01X14209977Y2577581D01*
G01X14221407Y2577581D01*
G01X14238679Y2583423D01*
G01X14250109Y2600441D01*
G01X14255697Y2629143D01*
G01X14255697Y2646161D01*
G01X14250109Y2674863D01*
G01X14238679Y2691881D01*
G01X14221407Y2697723D01*
G01X14209977Y2697723D01*
G01X14303449Y2657591D02*
G01X14303449Y2577581D01*
G01X14303449Y2634731D02*
G01X14320721Y2652003D01*
G01X14332151Y2657591D01*
G01X14349169Y2657591D01*
G01X14360599Y2652003D01*
G01X14366441Y2634731D01*
G01X14366441Y2577581D01*
G01X14366441Y2634731D02*
G01X14383459Y2652003D01*
G01X14394889Y2657591D01*
G01X14412161Y2657591D01*
G01X14423591Y2652003D01*
G01X14429179Y2634731D01*
G01X14429179Y2577581D01*
G01X14476931Y2697723D02*
G01X14482773Y2691881D01*
G01X14488361Y2697723D01*
G01X14482773Y2703311D01*
G01X14476931Y2697723D01*
G01X14482773Y2657591D02*
G01X14482773Y2577581D01*
G01X14536113Y2697723D02*
G01X14536113Y2577581D01*
G01X14623997Y2720583D02*
G01X14612567Y2709153D01*
G01X14601137Y2691881D01*
G01X14589707Y2669021D01*
G01X14583865Y2640573D01*
G01X14583865Y2617713D01*
G01X14589707Y2589011D01*
G01X14601137Y2566151D01*
G01X14612567Y2549133D01*
G01X14623997Y2537703D01*
G01X14683179Y2697723D02*
G01X14746171Y2697723D01*
G01X14711881Y2652003D01*
G01X14728899Y2652003D01*
G01X14740329Y2646161D01*
G01X14746171Y2640573D01*
G01X14751759Y2623301D01*
G01X14751759Y2611871D01*
G01X14746171Y2594853D01*
G01X14734741Y2583423D01*
G01X14717469Y2577581D01*
G01X14700451Y2577581D01*
G01X14683179Y2583423D01*
G01X14677591Y2589011D01*
G01X14671749Y2600441D01*
G01X14805353Y2606283D02*
G01X14799511Y2600441D01*
G01X14805353Y2594853D01*
G01X14810941Y2600441D01*
G01X14805353Y2606283D01*
G01X14864535Y2669021D02*
G01X14864535Y2674863D01*
G01X14870123Y2686293D01*
G01X14875965Y2691881D01*
G01X14887395Y2697723D01*
G01X14910255Y2697723D01*
G01X14921685Y2691881D01*
G01X14927273Y2686293D01*
G01X14933115Y2674863D01*
G01X14933115Y2663433D01*
G01X14927273Y2652003D01*
G01X14915843Y2634731D01*
G01X14858693Y2577581D01*
G01X14938703Y2577581D01*
G01X15020745Y2697723D02*
G01X15003727Y2691881D01*
G01X14992297Y2674863D01*
G01X14986455Y2646161D01*
G01X14986455Y2629143D01*
G01X14992297Y2600441D01*
G01X15003727Y2583423D01*
G01X15020745Y2577581D01*
G01X15032175Y2577581D01*
G01X15049447Y2583423D01*
G01X15060877Y2600441D01*
G01X15066465Y2629143D01*
G01X15066465Y2646161D01*
G01X15060877Y2674863D01*
G01X15049447Y2691881D01*
G01X15032175Y2697723D01*
G01X15020745Y2697723D01*
G01X15148507Y2697723D02*
G01X15131489Y2691881D01*
G01X15120059Y2674863D01*
G01X15114217Y2646161D01*
G01X15114217Y2629143D01*
G01X15120059Y2600441D01*
G01X15131489Y2583423D01*
G01X15148507Y2577581D01*
G01X15159937Y2577581D01*
G01X15177209Y2583423D01*
G01X15188639Y2600441D01*
G01X15194227Y2629143D01*
G01X15194227Y2646161D01*
G01X15188639Y2674863D01*
G01X15177209Y2691881D01*
G01X15159937Y2697723D01*
G01X15148507Y2697723D01*
G01X15241979Y2657591D02*
G01X15304971Y2577581D01*
G01X15304971Y2657591D02*
G01X15241979Y2577581D01*
G01X15364153Y2697723D02*
G01X15427145Y2697723D01*
G01X15392855Y2652003D01*
G01X15409873Y2652003D01*
G01X15421303Y2646161D01*
G01X15427145Y2640573D01*
G01X15432733Y2623301D01*
G01X15432733Y2611871D01*
G01X15427145Y2594853D01*
G01X15415715Y2583423D01*
G01X15398443Y2577581D01*
G01X15381425Y2577581D01*
G01X15364153Y2583423D01*
G01X15358565Y2589011D01*
G01X15352723Y2600441D01*
G01X15486327Y2606283D02*
G01X15480485Y2600441D01*
G01X15486327Y2594853D01*
G01X15491915Y2600441D01*
G01X15486327Y2606283D01*
G01X15545509Y2669021D02*
G01X15545509Y2674863D01*
G01X15551097Y2686293D01*
G01X15556939Y2691881D01*
G01X15568369Y2697723D01*
G01X15591229Y2697723D01*
G01X15602659Y2691881D01*
G01X15608247Y2686293D01*
G01X15614089Y2674863D01*
G01X15614089Y2663433D01*
G01X15608247Y2652003D01*
G01X15596817Y2634731D01*
G01X15539667Y2577581D01*
G01X15619677Y2577581D01*
G01X15701719Y2697723D02*
G01X15684701Y2691881D01*
G01X15673271Y2674863D01*
G01X15667429Y2646161D01*
G01X15667429Y2629143D01*
G01X15673271Y2600441D01*
G01X15684701Y2583423D01*
G01X15701719Y2577581D01*
G01X15713149Y2577581D01*
G01X15730421Y2583423D01*
G01X15741851Y2600441D01*
G01X15747439Y2629143D01*
G01X15747439Y2646161D01*
G01X15741851Y2674863D01*
G01X15730421Y2691881D01*
G01X15713149Y2697723D01*
G01X15701719Y2697723D01*
G01X15829481Y2697723D02*
G01X15812463Y2691881D01*
G01X15801033Y2674863D01*
G01X15795191Y2646161D01*
G01X15795191Y2629143D01*
G01X15801033Y2600441D01*
G01X15812463Y2583423D01*
G01X15829481Y2577581D01*
G01X15840911Y2577581D01*
G01X15858183Y2583423D01*
G01X15869613Y2600441D01*
G01X15875201Y2629143D01*
G01X15875201Y2646161D01*
G01X15869613Y2674863D01*
G01X15858183Y2691881D01*
G01X15840911Y2697723D01*
G01X15829481Y2697723D01*
G01X15922953Y2657591D02*
G01X15922953Y2577581D01*
G01X15922953Y2634731D02*
G01X15940225Y2652003D01*
G01X15951655Y2657591D01*
G01X15968673Y2657591D01*
G01X15980103Y2652003D01*
G01X15985945Y2634731D01*
G01X15985945Y2577581D01*
G01X15985945Y2634731D02*
G01X16002963Y2652003D01*
G01X16014393Y2657591D01*
G01X16031665Y2657591D01*
G01X16043095Y2652003D01*
G01X16048683Y2634731D01*
G01X16048683Y2577581D01*
G01X16096435Y2657591D02*
G01X16096435Y2577581D01*
G01X16096435Y2634731D02*
G01X16113707Y2652003D01*
G01X16125137Y2657591D01*
G01X16142155Y2657591D01*
G01X16153585Y2652003D01*
G01X16159427Y2634731D01*
G01X16159427Y2577581D01*
G01X16159427Y2634731D02*
G01X16176445Y2652003D01*
G01X16187875Y2657591D01*
G01X16205147Y2657591D01*
G01X16216577Y2652003D01*
G01X16222165Y2634731D01*
G01X16222165Y2577581D01*
G01X16269917Y2720583D02*
G01X16281347Y2709153D01*
G01X16292777Y2691881D01*
G01X16304207Y2669021D01*
G01X16310049Y2640573D01*
G01X16310049Y2617713D01*
G01X16304207Y2589011D01*
G01X16292777Y2566151D01*
G01X16281347Y2549133D01*
G01X16269917Y2537703D01*
G01X17201227Y2697723D02*
G01X17201227Y2577581D01*
G01X17201227Y2697723D02*
G01X17252789Y2697723D01*
G01X17269807Y2691881D01*
G01X17275649Y2686293D01*
G01X17281237Y2674863D01*
G01X17281237Y2657591D01*
G01X17275649Y2646161D01*
G01X17269807Y2640573D01*
G01X17252789Y2634731D01*
G01X17201227Y2634731D01*
G01X17369121Y2697723D02*
G01X17369121Y2577581D01*
G01X17328989Y2697723D02*
G01X17408999Y2697723D01*
G01X17456751Y2697723D02*
G01X17456751Y2577581D01*
G01X17536761Y2697723D02*
G01X17536761Y2577581D01*
G01X17456751Y2640573D02*
G01X17536761Y2640573D01*
G01X18662634Y2697723D02*
G01X18662634Y2577581D01*
G01X18662634Y2697723D02*
G01X18714196Y2697723D01*
G01X18731214Y2691881D01*
G01X18737056Y2686293D01*
G01X18742644Y2674863D01*
G01X18742644Y2663433D01*
G01X18737056Y2652003D01*
G01X18731214Y2646161D01*
G01X18714196Y2640573D01*
G01X18662634Y2640573D01*
G01X18702766Y2640573D02*
G01X18742644Y2577581D01*
G01X18819098Y2657591D02*
G01X18807668Y2652003D01*
G01X18796238Y2640573D01*
G01X18790396Y2623301D01*
G01X18790396Y2611871D01*
G01X18796238Y2594853D01*
G01X18807668Y2583423D01*
G01X18819098Y2577581D01*
G01X18836116Y2577581D01*
G01X18847546Y2583423D01*
G01X18858976Y2594853D01*
G01X18864818Y2611871D01*
G01X18864818Y2623301D01*
G01X18858976Y2640573D01*
G01X18847546Y2652003D01*
G01X18836116Y2657591D01*
G01X18819098Y2657591D01*
G01X18912570Y2657591D02*
G01X18912570Y2600441D01*
G01X18918412Y2583423D01*
G01X18929842Y2577581D01*
G01X18946860Y2577581D01*
G01X18958290Y2583423D01*
G01X18975562Y2600441D01*
G01X18975562Y2657591D02*
G01X18975562Y2577581D01*
G01X19023314Y2657591D02*
G01X19023314Y2577581D01*
G01X19023314Y2634731D02*
G01X19040586Y2652003D01*
G01X19052016Y2657591D01*
G01X19069034Y2657591D01*
G01X19080464Y2652003D01*
G01X19086306Y2634731D01*
G01X19086306Y2577581D01*
G01X19202638Y2697723D02*
G01X19202638Y2577581D01*
G01X19202638Y2640573D02*
G01X19191208Y2652003D01*
G01X19179778Y2657591D01*
G01X19162760Y2657591D01*
G01X19151330Y2652003D01*
G01X19139900Y2640573D01*
G01X19134058Y2623301D01*
G01X19134058Y2611871D01*
G01X19139900Y2594853D01*
G01X19151330Y2583423D01*
G01X19162760Y2577581D01*
G01X19179778Y2577581D01*
G01X19191208Y2583423D01*
G01X19202638Y2594853D01*
G01X20093815Y2697723D02*
G01X20093815Y2577581D01*
G01X20093815Y2697723D02*
G01X20145377Y2697723D01*
G01X20162395Y2691881D01*
G01X20168237Y2686293D01*
G01X20173825Y2674863D01*
G01X20173825Y2657591D01*
G01X20168237Y2646161D01*
G01X20162395Y2640573D01*
G01X20145377Y2634731D01*
G01X20093815Y2634731D01*
G01X20290157Y2657591D02*
G01X20290157Y2577581D01*
G01X20290157Y2640573D02*
G01X20278727Y2652003D01*
G01X20267297Y2657591D01*
G01X20250279Y2657591D01*
G01X20238849Y2652003D01*
G01X20227419Y2640573D01*
G01X20221577Y2623301D01*
G01X20221577Y2611871D01*
G01X20227419Y2594853D01*
G01X20238849Y2583423D01*
G01X20250279Y2577581D01*
G01X20267297Y2577581D01*
G01X20278727Y2583423D01*
G01X20290157Y2594853D01*
G01X20406489Y2697723D02*
G01X20406489Y2577581D01*
G01X20406489Y2640573D02*
G01X20395059Y2652003D01*
G01X20383629Y2657591D01*
G01X20366611Y2657591D01*
G01X20355181Y2652003D01*
G01X20343751Y2640573D01*
G01X20337909Y2623301D01*
G01X20337909Y2611871D01*
G01X20343751Y2594853D01*
G01X20355181Y2583423D01*
G01X20366611Y2577581D01*
G01X20383629Y2577581D01*
G01X20395059Y2583423D01*
G01X20406489Y2594853D01*
G01X21762994Y2697723D02*
G01X21762994Y2577581D01*
G01X21762994Y2697723D02*
G01X21814556Y2697723D01*
G01X21831574Y2691881D01*
G01X21837416Y2686293D01*
G01X21843004Y2674863D01*
G01X21843004Y2663433D01*
G01X21837416Y2652003D01*
G01X21831574Y2646161D01*
G01X21814556Y2640573D01*
G01X21762994Y2640573D01*
G01X21803126Y2640573D02*
G01X21843004Y2577581D01*
G01X21919458Y2657591D02*
G01X21908028Y2652003D01*
G01X21896598Y2640573D01*
G01X21890756Y2623301D01*
G01X21890756Y2611871D01*
G01X21896598Y2594853D01*
G01X21908028Y2583423D01*
G01X21919458Y2577581D01*
G01X21936476Y2577581D01*
G01X21947906Y2583423D01*
G01X21959336Y2594853D01*
G01X21965178Y2611871D01*
G01X21965178Y2623301D01*
G01X21959336Y2640573D01*
G01X21947906Y2652003D01*
G01X21936476Y2657591D01*
G01X21919458Y2657591D01*
G01X22012930Y2657591D02*
G01X22012930Y2600441D01*
G01X22018772Y2583423D01*
G01X22030202Y2577581D01*
G01X22047220Y2577581D01*
G01X22058650Y2583423D01*
G01X22075922Y2600441D01*
G01X22075922Y2657591D02*
G01X22075922Y2577581D01*
G01X22123674Y2657591D02*
G01X22123674Y2577581D01*
G01X22123674Y2634731D02*
G01X22140946Y2652003D01*
G01X22152376Y2657591D01*
G01X22169394Y2657591D01*
G01X22180824Y2652003D01*
G01X22186666Y2634731D01*
G01X22186666Y2577581D01*
G01X22302998Y2697723D02*
G01X22302998Y2577581D01*
G01X22302998Y2640573D02*
G01X22291568Y2652003D01*
G01X22280138Y2657591D01*
G01X22263120Y2657591D01*
G01X22251690Y2652003D01*
G01X22240260Y2640573D01*
G01X22234418Y2623301D01*
G01X22234418Y2611871D01*
G01X22240260Y2594853D01*
G01X22251690Y2583423D01*
G01X22263120Y2577581D01*
G01X22280138Y2577581D01*
G01X22291568Y2583423D01*
G01X22302998Y2594853D01*
G01X23722495Y2697723D02*
G01X23722495Y2577581D01*
G01X23682363Y2697723D02*
G01X23762373Y2697723D01*
G01X23838827Y2657591D02*
G01X23827397Y2652003D01*
G01X23815967Y2640573D01*
G01X23810125Y2623301D01*
G01X23810125Y2611871D01*
G01X23815967Y2594853D01*
G01X23827397Y2583423D01*
G01X23838827Y2577581D01*
G01X23855845Y2577581D01*
G01X23867275Y2583423D01*
G01X23878705Y2594853D01*
G01X23884547Y2611871D01*
G01X23884547Y2623301D01*
G01X23878705Y2640573D01*
G01X23867275Y2652003D01*
G01X23855845Y2657591D01*
G01X23838827Y2657591D01*
G01X23932299Y2657591D02*
G01X23932299Y2537703D01*
G01X23932299Y2640573D02*
G01X23943729Y2652003D01*
G01X23955159Y2657591D01*
G01X23972431Y2657591D01*
G01X23983861Y2652003D01*
G01X23995291Y2640573D01*
G01X24000879Y2623301D01*
G01X24000879Y2611871D01*
G01X23995291Y2594853D01*
G01X23983861Y2583423D01*
G01X23972431Y2577581D01*
G01X23955159Y2577581D01*
G01X23943729Y2583423D01*
G01X23932299Y2594853D01*
G01X24176647Y2697723D02*
G01X24176647Y2577581D01*
G01X24176647Y2577581D02*
G01X24245227Y2577581D01*
G01X24361559Y2657591D02*
G01X24361559Y2577581D01*
G01X24361559Y2640573D02*
G01X24350129Y2652003D01*
G01X24338699Y2657591D01*
G01X24321681Y2657591D01*
G01X24310251Y2652003D01*
G01X24298821Y2640573D01*
G01X24292979Y2623301D01*
G01X24292979Y2611871D01*
G01X24298821Y2594853D01*
G01X24310251Y2583423D01*
G01X24321681Y2577581D01*
G01X24338699Y2577581D01*
G01X24350129Y2583423D01*
G01X24361559Y2594853D01*
G01X24415153Y2657591D02*
G01X24449443Y2577581D01*
G01X24483733Y2657591D02*
G01X24449443Y2577581D01*
G01X24438013Y2554721D01*
G01X24426583Y2543291D01*
G01X24415153Y2537703D01*
G01X24409311Y2537703D01*
G01X24531485Y2623301D02*
G01X24600065Y2623301D01*
G01X24600065Y2634731D01*
G01X24594477Y2646161D01*
G01X24588635Y2652003D01*
G01X24577205Y2657591D01*
G01X24560187Y2657591D01*
G01X24548757Y2652003D01*
G01X24537327Y2640573D01*
G01X24531485Y2623301D01*
G01X24531485Y2611871D01*
G01X24537327Y2594853D01*
G01X24548757Y2583423D01*
G01X24560187Y2577581D01*
G01X24577205Y2577581D01*
G01X24588635Y2583423D01*
G01X24600065Y2594853D01*
G01X24647817Y2657591D02*
G01X24647817Y2577581D01*
G01X24647817Y2623301D02*
G01X24653659Y2640573D01*
G01X24665089Y2652003D01*
G01X24676519Y2657591D01*
G01X24693537Y2657591D01*
G01X24741289Y2629143D02*
G01X24844159Y2629143D01*
G01X24891911Y2697723D02*
G01X24891911Y2577581D01*
G01X24891911Y2697723D02*
G01X24943473Y2697723D01*
G01X24960491Y2691881D01*
G01X24966333Y2686293D01*
G01X24971921Y2674863D01*
G01X24971921Y2663433D01*
G01X24966333Y2652003D01*
G01X24960491Y2646161D01*
G01X24943473Y2640573D01*
G01X24891911Y2640573D02*
G01X24943473Y2640573D01*
G01X24960491Y2634731D01*
G01X24966333Y2629143D01*
G01X24971921Y2617713D01*
G01X24971921Y2600441D01*
G01X24966333Y2589011D01*
G01X24960491Y2583423D01*
G01X24943473Y2577581D01*
G01X24891911Y2577581D01*
G01X25048375Y2657591D02*
G01X25036945Y2652003D01*
G01X25025515Y2640573D01*
G01X25019673Y2623301D01*
G01X25019673Y2611871D01*
G01X25025515Y2594853D01*
G01X25036945Y2583423D01*
G01X25048375Y2577581D01*
G01X25065393Y2577581D01*
G01X25076823Y2583423D01*
G01X25088253Y2594853D01*
G01X25094095Y2611871D01*
G01X25094095Y2623301D01*
G01X25088253Y2640573D01*
G01X25076823Y2652003D01*
G01X25065393Y2657591D01*
G01X25048375Y2657591D01*
G01X25159119Y2697723D02*
G01X25159119Y2600441D01*
G01X25164707Y2583423D01*
G01X25176137Y2577581D01*
G01X25187567Y2577581D01*
G01X25141847Y2657591D02*
G01X25181979Y2657591D01*
G01X25252591Y2697723D02*
G01X25252591Y2600441D01*
G01X25258179Y2583423D01*
G01X25269609Y2577581D01*
G01X25281039Y2577581D01*
G01X25235319Y2657591D02*
G01X25275451Y2657591D01*
G01X25357493Y2657591D02*
G01X25346063Y2652003D01*
G01X25334633Y2640573D01*
G01X25328791Y2623301D01*
G01X25328791Y2611871D01*
G01X25334633Y2594853D01*
G01X25346063Y2583423D01*
G01X25357493Y2577581D01*
G01X25374511Y2577581D01*
G01X25385941Y2583423D01*
G01X25397371Y2594853D01*
G01X25403213Y2611871D01*
G01X25403213Y2623301D01*
G01X25397371Y2640573D01*
G01X25385941Y2652003D01*
G01X25374511Y2657591D01*
G01X25357493Y2657591D01*
G01X25450965Y2657591D02*
G01X25450965Y2577581D01*
G01X25450965Y2634731D02*
G01X25468237Y2652003D01*
G01X25479667Y2657591D01*
G01X25496685Y2657591D01*
G01X25508115Y2652003D01*
G01X25513957Y2634731D01*
G01X25513957Y2577581D01*
G01X25513957Y2634731D02*
G01X25530975Y2652003D01*
G01X25542405Y2657591D01*
G01X25559677Y2657591D01*
G01X25571107Y2652003D01*
G01X25576695Y2634731D01*
G01X25576695Y2577581D01*
G01X25752463Y2697723D02*
G01X25752463Y2577581D01*
G01X25752463Y2577581D02*
G01X25821043Y2577581D01*
G01X25937375Y2657591D02*
G01X25937375Y2577581D01*
G01X25937375Y2640573D02*
G01X25925945Y2652003D01*
G01X25914515Y2657591D01*
G01X25897497Y2657591D01*
G01X25886067Y2652003D01*
G01X25874637Y2640573D01*
G01X25868795Y2623301D01*
G01X25868795Y2611871D01*
G01X25874637Y2594853D01*
G01X25886067Y2583423D01*
G01X25897497Y2577581D01*
G01X25914515Y2577581D01*
G01X25925945Y2583423D01*
G01X25937375Y2594853D01*
G01X25990969Y2657591D02*
G01X26025259Y2577581D01*
G01X26059549Y2657591D02*
G01X26025259Y2577581D01*
G01X26013829Y2554721D01*
G01X26002399Y2543291D01*
G01X25990969Y2537703D01*
G01X25985127Y2537703D01*
G01X26107301Y2623301D02*
G01X26175881Y2623301D01*
G01X26175881Y2634731D01*
G01X26170293Y2646161D01*
G01X26164451Y2652003D01*
G01X26153021Y2657591D01*
G01X26136003Y2657591D01*
G01X26124573Y2652003D01*
G01X26113143Y2640573D01*
G01X26107301Y2623301D01*
G01X26107301Y2611871D01*
G01X26113143Y2594853D01*
G01X26124573Y2583423D01*
G01X26136003Y2577581D01*
G01X26153021Y2577581D01*
G01X26164451Y2583423D01*
G01X26175881Y2594853D01*
G01X26223633Y2657591D02*
G01X26223633Y2577581D01*
G01X26223633Y2623301D02*
G01X26229475Y2640573D01*
G01X26240905Y2652003D01*
G01X26252335Y2657591D01*
G01X26269353Y2657591D01*
G01X11763304Y2117151D02*
G01X11826296Y2117151D01*
G01X11792006Y2071431D01*
G01X11809024Y2071431D01*
G01X11820454Y2065589D01*
G01X11826296Y2060001D01*
G01X11831884Y2042729D01*
G01X11831884Y2031299D01*
G01X11826296Y2014281D01*
G01X11814866Y2002851D01*
G01X11797594Y1997009D01*
G01X11780576Y1997009D01*
G01X11763304Y2002851D01*
G01X11757716Y2008439D01*
G01X11751874Y2019869D01*
G01X11885478Y2088449D02*
G01X11885478Y2094291D01*
G01X11891066Y2105721D01*
G01X11896908Y2111309D01*
G01X11908338Y2117151D01*
G01X11931198Y2117151D01*
G01X11942628Y2111309D01*
G01X11948216Y2105721D01*
G01X11954058Y2094291D01*
G01X11954058Y2082861D01*
G01X11948216Y2071431D01*
G01X11936786Y2054159D01*
G01X11879636Y1997009D01*
G01X11959646Y1997009D01*
G01X13166037Y2094291D02*
G01X13177467Y2099879D01*
G01X13194739Y2117151D01*
G01X13194739Y1997009D01*
G01X13316913Y2077019D02*
G01X13311071Y2060001D01*
G01X13299641Y2048571D01*
G01X13282623Y2042729D01*
G01X13276781Y2042729D01*
G01X13259763Y2048571D01*
G01X13248333Y2060001D01*
G01X13242491Y2077019D01*
G01X13242491Y2082861D01*
G01X13248333Y2099879D01*
G01X13259763Y2111309D01*
G01X13276781Y2117151D01*
G01X13282623Y2117151D01*
G01X13299641Y2111309D01*
G01X13311071Y2099879D01*
G01X13316913Y2077019D01*
G01X13316913Y2048571D01*
G01X13311071Y2019869D01*
G01X13299641Y2002851D01*
G01X13282623Y1997009D01*
G01X13271193Y1997009D01*
G01X13253921Y2002851D01*
G01X13248333Y2014281D01*
G01X13370507Y2025711D02*
G01X13364665Y2019869D01*
G01X13370507Y2014281D01*
G01X13376095Y2019869D01*
G01X13370507Y2025711D01*
G01X13503857Y2117151D02*
G01X13446707Y1997009D01*
G01X13423847Y2117151D02*
G01X13503857Y2117151D01*
G01X13551609Y2077019D02*
G01X13614601Y1997009D01*
G01X13614601Y2077019D02*
G01X13551609Y1997009D01*
G01X13662353Y2094291D02*
G01X13673783Y2099879D01*
G01X13691055Y2117151D01*
G01X13691055Y1997009D01*
G01X13813229Y2077019D02*
G01X13807387Y2060001D01*
G01X13795957Y2048571D01*
G01X13778939Y2042729D01*
G01X13773097Y2042729D01*
G01X13756079Y2048571D01*
G01X13744649Y2060001D01*
G01X13738807Y2077019D01*
G01X13738807Y2082861D01*
G01X13744649Y2099879D01*
G01X13756079Y2111309D01*
G01X13773097Y2117151D01*
G01X13778939Y2117151D01*
G01X13795957Y2111309D01*
G01X13807387Y2099879D01*
G01X13813229Y2077019D01*
G01X13813229Y2048571D01*
G01X13807387Y2019869D01*
G01X13795957Y2002851D01*
G01X13778939Y1997009D01*
G01X13767509Y1997009D01*
G01X13750237Y2002851D01*
G01X13744649Y2014281D01*
G01X13866823Y2025711D02*
G01X13860981Y2019869D01*
G01X13866823Y2014281D01*
G01X13872411Y2019869D01*
G01X13866823Y2025711D01*
G01X14000173Y2117151D02*
G01X13943023Y1997009D01*
G01X13920163Y2117151D02*
G01X14000173Y2117151D01*
G01X14047925Y2077019D02*
G01X14047925Y1997009D01*
G01X14047925Y2054159D02*
G01X14065197Y2071431D01*
G01X14076627Y2077019D01*
G01X14093645Y2077019D01*
G01X14105075Y2071431D01*
G01X14110917Y2054159D01*
G01X14110917Y1997009D01*
G01X14110917Y2054159D02*
G01X14127935Y2071431D01*
G01X14139365Y2077019D01*
G01X14156637Y2077019D01*
G01X14168067Y2071431D01*
G01X14173655Y2054159D01*
G01X14173655Y1997009D01*
G01X14221407Y2117151D02*
G01X14227249Y2111309D01*
G01X14232837Y2117151D01*
G01X14227249Y2122739D01*
G01X14221407Y2117151D01*
G01X14227249Y2077019D02*
G01X14227249Y1997009D01*
G01X14280589Y2117151D02*
G01X14280589Y1997009D01*
G01X14368473Y2140011D02*
G01X14357043Y2128581D01*
G01X14345613Y2111309D01*
G01X14334183Y2088449D01*
G01X14328341Y2060001D01*
G01X14328341Y2037141D01*
G01X14334183Y2008439D01*
G01X14345613Y1985579D01*
G01X14357043Y1968561D01*
G01X14368473Y1957131D01*
G01X14450515Y2117151D02*
G01X14433497Y2111309D01*
G01X14422067Y2094291D01*
G01X14416225Y2065589D01*
G01X14416225Y2048571D01*
G01X14422067Y2019869D01*
G01X14433497Y2002851D01*
G01X14450515Y1997009D01*
G01X14461945Y1997009D01*
G01X14479217Y2002851D01*
G01X14490647Y2019869D01*
G01X14496235Y2048571D01*
G01X14496235Y2065589D01*
G01X14490647Y2094291D01*
G01X14479217Y2111309D01*
G01X14461945Y2117151D01*
G01X14450515Y2117151D01*
G01X14549829Y2025711D02*
G01X14543987Y2019869D01*
G01X14549829Y2014281D01*
G01X14555417Y2019869D01*
G01X14549829Y2025711D01*
G01X14671749Y2117151D02*
G01X14614599Y2117151D01*
G01X14609011Y2065589D01*
G01X14614599Y2071431D01*
G01X14631871Y2077019D01*
G01X14648889Y2077019D01*
G01X14666161Y2071431D01*
G01X14677591Y2060001D01*
G01X14683179Y2042729D01*
G01X14683179Y2031299D01*
G01X14677591Y2014281D01*
G01X14666161Y2002851D01*
G01X14648889Y1997009D01*
G01X14631871Y1997009D01*
G01X14614599Y2002851D01*
G01X14609011Y2008439D01*
G01X14603169Y2019869D01*
G01X14765221Y2117151D02*
G01X14748203Y2111309D01*
G01X14736773Y2094291D01*
G01X14730931Y2065589D01*
G01X14730931Y2048571D01*
G01X14736773Y2019869D01*
G01X14748203Y2002851D01*
G01X14765221Y1997009D01*
G01X14776651Y1997009D01*
G01X14793923Y2002851D01*
G01X14805353Y2019869D01*
G01X14810941Y2048571D01*
G01X14810941Y2065589D01*
G01X14805353Y2094291D01*
G01X14793923Y2111309D01*
G01X14776651Y2117151D01*
G01X14765221Y2117151D01*
G01X14892983Y2117151D02*
G01X14875965Y2111309D01*
G01X14864535Y2094291D01*
G01X14858693Y2065589D01*
G01X14858693Y2048571D01*
G01X14864535Y2019869D01*
G01X14875965Y2002851D01*
G01X14892983Y1997009D01*
G01X14904413Y1997009D01*
G01X14921685Y2002851D01*
G01X14933115Y2019869D01*
G01X14938703Y2048571D01*
G01X14938703Y2065589D01*
G01X14933115Y2094291D01*
G01X14921685Y2111309D01*
G01X14904413Y2117151D01*
G01X14892983Y2117151D01*
G01X14986455Y2077019D02*
G01X15049447Y1997009D01*
G01X15049447Y2077019D02*
G01X14986455Y1997009D01*
G01X15131489Y2117151D02*
G01X15114471Y2111309D01*
G01X15103041Y2094291D01*
G01X15097199Y2065589D01*
G01X15097199Y2048571D01*
G01X15103041Y2019869D01*
G01X15114471Y2002851D01*
G01X15131489Y1997009D01*
G01X15142919Y1997009D01*
G01X15160191Y2002851D01*
G01X15171621Y2019869D01*
G01X15177209Y2048571D01*
G01X15177209Y2065589D01*
G01X15171621Y2094291D01*
G01X15160191Y2111309D01*
G01X15142919Y2117151D01*
G01X15131489Y2117151D01*
G01X15230803Y2025711D02*
G01X15224961Y2019869D01*
G01X15230803Y2014281D01*
G01X15236391Y2019869D01*
G01X15230803Y2025711D01*
G01X15352723Y2117151D02*
G01X15295573Y2117151D01*
G01X15289985Y2065589D01*
G01X15295573Y2071431D01*
G01X15312845Y2077019D01*
G01X15329863Y2077019D01*
G01X15347135Y2071431D01*
G01X15358565Y2060001D01*
G01X15364153Y2042729D01*
G01X15364153Y2031299D01*
G01X15358565Y2014281D01*
G01X15347135Y2002851D01*
G01X15329863Y1997009D01*
G01X15312845Y1997009D01*
G01X15295573Y2002851D01*
G01X15289985Y2008439D01*
G01X15284143Y2019869D01*
G01X15446195Y2117151D02*
G01X15429177Y2111309D01*
G01X15417747Y2094291D01*
G01X15411905Y2065589D01*
G01X15411905Y2048571D01*
G01X15417747Y2019869D01*
G01X15429177Y2002851D01*
G01X15446195Y1997009D01*
G01X15457625Y1997009D01*
G01X15474897Y2002851D01*
G01X15486327Y2019869D01*
G01X15491915Y2048571D01*
G01X15491915Y2065589D01*
G01X15486327Y2094291D01*
G01X15474897Y2111309D01*
G01X15457625Y2117151D01*
G01X15446195Y2117151D01*
G01X15573957Y2117151D02*
G01X15556939Y2111309D01*
G01X15545509Y2094291D01*
G01X15539667Y2065589D01*
G01X15539667Y2048571D01*
G01X15545509Y2019869D01*
G01X15556939Y2002851D01*
G01X15573957Y1997009D01*
G01X15585387Y1997009D01*
G01X15602659Y2002851D01*
G01X15614089Y2019869D01*
G01X15619677Y2048571D01*
G01X15619677Y2065589D01*
G01X15614089Y2094291D01*
G01X15602659Y2111309D01*
G01X15585387Y2117151D01*
G01X15573957Y2117151D01*
G01X15667429Y2077019D02*
G01X15667429Y1997009D01*
G01X15667429Y2054159D02*
G01X15684701Y2071431D01*
G01X15696131Y2077019D01*
G01X15713149Y2077019D01*
G01X15724579Y2071431D01*
G01X15730421Y2054159D01*
G01X15730421Y1997009D01*
G01X15730421Y2054159D02*
G01X15747439Y2071431D01*
G01X15758869Y2077019D01*
G01X15776141Y2077019D01*
G01X15787571Y2071431D01*
G01X15793159Y2054159D01*
G01X15793159Y1997009D01*
G01X15840911Y2077019D02*
G01X15840911Y1997009D01*
G01X15840911Y2054159D02*
G01X15858183Y2071431D01*
G01X15869613Y2077019D01*
G01X15886631Y2077019D01*
G01X15898061Y2071431D01*
G01X15903903Y2054159D01*
G01X15903903Y1997009D01*
G01X15903903Y2054159D02*
G01X15920921Y2071431D01*
G01X15932351Y2077019D01*
G01X15949623Y2077019D01*
G01X15961053Y2071431D01*
G01X15966641Y2054159D01*
G01X15966641Y1997009D01*
G01X16014393Y2140011D02*
G01X16025823Y2128581D01*
G01X16037253Y2111309D01*
G01X16048683Y2088449D01*
G01X16054525Y2060001D01*
G01X16054525Y2037141D01*
G01X16048683Y2008439D01*
G01X16037253Y1985579D01*
G01X16025823Y1968561D01*
G01X16014393Y1957131D01*
G01X17201227Y2117151D02*
G01X17201227Y1997009D01*
G01X17201227Y2117151D02*
G01X17252789Y2117151D01*
G01X17269807Y2111309D01*
G01X17275649Y2105721D01*
G01X17281237Y2094291D01*
G01X17281237Y2077019D01*
G01X17275649Y2065589D01*
G01X17269807Y2060001D01*
G01X17252789Y2054159D01*
G01X17201227Y2054159D01*
G01X17369121Y2117151D02*
G01X17369121Y1997009D01*
G01X17328989Y2117151D02*
G01X17408999Y2117151D01*
G01X17456751Y2117151D02*
G01X17456751Y1997009D01*
G01X17536761Y2117151D02*
G01X17536761Y1997009D01*
G01X17456751Y2060001D02*
G01X17536761Y2060001D01*
G01X18662634Y2117151D02*
G01X18662634Y1997009D01*
G01X18662634Y2117151D02*
G01X18714196Y2117151D01*
G01X18731214Y2111309D01*
G01X18737056Y2105721D01*
G01X18742644Y2094291D01*
G01X18742644Y2082861D01*
G01X18737056Y2071431D01*
G01X18731214Y2065589D01*
G01X18714196Y2060001D01*
G01X18662634Y2060001D01*
G01X18702766Y2060001D02*
G01X18742644Y1997009D01*
G01X18819098Y2077019D02*
G01X18807668Y2071431D01*
G01X18796238Y2060001D01*
G01X18790396Y2042729D01*
G01X18790396Y2031299D01*
G01X18796238Y2014281D01*
G01X18807668Y2002851D01*
G01X18819098Y1997009D01*
G01X18836116Y1997009D01*
G01X18847546Y2002851D01*
G01X18858976Y2014281D01*
G01X18864818Y2031299D01*
G01X18864818Y2042729D01*
G01X18858976Y2060001D01*
G01X18847546Y2071431D01*
G01X18836116Y2077019D01*
G01X18819098Y2077019D01*
G01X18912570Y2077019D02*
G01X18912570Y2019869D01*
G01X18918412Y2002851D01*
G01X18929842Y1997009D01*
G01X18946860Y1997009D01*
G01X18958290Y2002851D01*
G01X18975562Y2019869D01*
G01X18975562Y2077019D02*
G01X18975562Y1997009D01*
G01X19023314Y2077019D02*
G01X19023314Y1997009D01*
G01X19023314Y2054159D02*
G01X19040586Y2071431D01*
G01X19052016Y2077019D01*
G01X19069034Y2077019D01*
G01X19080464Y2071431D01*
G01X19086306Y2054159D01*
G01X19086306Y1997009D01*
G01X19202638Y2117151D02*
G01X19202638Y1997009D01*
G01X19202638Y2060001D02*
G01X19191208Y2071431D01*
G01X19179778Y2077019D01*
G01X19162760Y2077019D01*
G01X19151330Y2071431D01*
G01X19139900Y2060001D01*
G01X19134058Y2042729D01*
G01X19134058Y2031299D01*
G01X19139900Y2014281D01*
G01X19151330Y2002851D01*
G01X19162760Y1997009D01*
G01X19179778Y1997009D01*
G01X19191208Y2002851D01*
G01X19202638Y2014281D01*
G01X20093815Y2117151D02*
G01X20093815Y1997009D01*
G01X20093815Y2117151D02*
G01X20145377Y2117151D01*
G01X20162395Y2111309D01*
G01X20168237Y2105721D01*
G01X20173825Y2094291D01*
G01X20173825Y2077019D01*
G01X20168237Y2065589D01*
G01X20162395Y2060001D01*
G01X20145377Y2054159D01*
G01X20093815Y2054159D01*
G01X20290157Y2077019D02*
G01X20290157Y1997009D01*
G01X20290157Y2060001D02*
G01X20278727Y2071431D01*
G01X20267297Y2077019D01*
G01X20250279Y2077019D01*
G01X20238849Y2071431D01*
G01X20227419Y2060001D01*
G01X20221577Y2042729D01*
G01X20221577Y2031299D01*
G01X20227419Y2014281D01*
G01X20238849Y2002851D01*
G01X20250279Y1997009D01*
G01X20267297Y1997009D01*
G01X20278727Y2002851D01*
G01X20290157Y2014281D01*
G01X20406489Y2117151D02*
G01X20406489Y1997009D01*
G01X20406489Y2060001D02*
G01X20395059Y2071431D01*
G01X20383629Y2077019D01*
G01X20366611Y2077019D01*
G01X20355181Y2071431D01*
G01X20343751Y2060001D01*
G01X20337909Y2042729D01*
G01X20337909Y2031299D01*
G01X20343751Y2014281D01*
G01X20355181Y2002851D01*
G01X20366611Y1997009D01*
G01X20383629Y1997009D01*
G01X20395059Y2002851D01*
G01X20406489Y2014281D01*
G01X21762994Y2117151D02*
G01X21762994Y1997009D01*
G01X21762994Y2117151D02*
G01X21814556Y2117151D01*
G01X21831574Y2111309D01*
G01X21837416Y2105721D01*
G01X21843004Y2094291D01*
G01X21843004Y2082861D01*
G01X21837416Y2071431D01*
G01X21831574Y2065589D01*
G01X21814556Y2060001D01*
G01X21762994Y2060001D01*
G01X21803126Y2060001D02*
G01X21843004Y1997009D01*
G01X21919458Y2077019D02*
G01X21908028Y2071431D01*
G01X21896598Y2060001D01*
G01X21890756Y2042729D01*
G01X21890756Y2031299D01*
G01X21896598Y2014281D01*
G01X21908028Y2002851D01*
G01X21919458Y1997009D01*
G01X21936476Y1997009D01*
G01X21947906Y2002851D01*
G01X21959336Y2014281D01*
G01X21965178Y2031299D01*
G01X21965178Y2042729D01*
G01X21959336Y2060001D01*
G01X21947906Y2071431D01*
G01X21936476Y2077019D01*
G01X21919458Y2077019D01*
G01X22012930Y2077019D02*
G01X22012930Y2019869D01*
G01X22018772Y2002851D01*
G01X22030202Y1997009D01*
G01X22047220Y1997009D01*
G01X22058650Y2002851D01*
G01X22075922Y2019869D01*
G01X22075922Y2077019D02*
G01X22075922Y1997009D01*
G01X22123674Y2077019D02*
G01X22123674Y1997009D01*
G01X22123674Y2054159D02*
G01X22140946Y2071431D01*
G01X22152376Y2077019D01*
G01X22169394Y2077019D01*
G01X22180824Y2071431D01*
G01X22186666Y2054159D01*
G01X22186666Y1997009D01*
G01X22302998Y2117151D02*
G01X22302998Y1997009D01*
G01X22302998Y2060001D02*
G01X22291568Y2071431D01*
G01X22280138Y2077019D01*
G01X22263120Y2077019D01*
G01X22251690Y2071431D01*
G01X22240260Y2060001D01*
G01X22234418Y2042729D01*
G01X22234418Y2031299D01*
G01X22240260Y2014281D01*
G01X22251690Y2002851D01*
G01X22263120Y1997009D01*
G01X22280138Y1997009D01*
G01X22291568Y2002851D01*
G01X22302998Y2014281D01*
G01X23722495Y2117151D02*
G01X23722495Y1997009D01*
G01X23682363Y2117151D02*
G01X23762373Y2117151D01*
G01X23838827Y2077019D02*
G01X23827397Y2071431D01*
G01X23815967Y2060001D01*
G01X23810125Y2042729D01*
G01X23810125Y2031299D01*
G01X23815967Y2014281D01*
G01X23827397Y2002851D01*
G01X23838827Y1997009D01*
G01X23855845Y1997009D01*
G01X23867275Y2002851D01*
G01X23878705Y2014281D01*
G01X23884547Y2031299D01*
G01X23884547Y2042729D01*
G01X23878705Y2060001D01*
G01X23867275Y2071431D01*
G01X23855845Y2077019D01*
G01X23838827Y2077019D01*
G01X23932299Y2077019D02*
G01X23932299Y1957131D01*
G01X23932299Y2060001D02*
G01X23943729Y2071431D01*
G01X23955159Y2077019D01*
G01X23972431Y2077019D01*
G01X23983861Y2071431D01*
G01X23995291Y2060001D01*
G01X24000879Y2042729D01*
G01X24000879Y2031299D01*
G01X23995291Y2014281D01*
G01X23983861Y2002851D01*
G01X23972431Y1997009D01*
G01X23955159Y1997009D01*
G01X23943729Y2002851D01*
G01X23932299Y2014281D01*
G01X24176647Y2117151D02*
G01X24176647Y1997009D01*
G01X24176647Y1997009D02*
G01X24245227Y1997009D01*
G01X24361559Y2077019D02*
G01X24361559Y1997009D01*
G01X24361559Y2060001D02*
G01X24350129Y2071431D01*
G01X24338699Y2077019D01*
G01X24321681Y2077019D01*
G01X24310251Y2071431D01*
G01X24298821Y2060001D01*
G01X24292979Y2042729D01*
G01X24292979Y2031299D01*
G01X24298821Y2014281D01*
G01X24310251Y2002851D01*
G01X24321681Y1997009D01*
G01X24338699Y1997009D01*
G01X24350129Y2002851D01*
G01X24361559Y2014281D01*
G01X24415153Y2077019D02*
G01X24449443Y1997009D01*
G01X24483733Y2077019D02*
G01X24449443Y1997009D01*
G01X24438013Y1974149D01*
G01X24426583Y1962719D01*
G01X24415153Y1957131D01*
G01X24409311Y1957131D01*
G01X24531485Y2042729D02*
G01X24600065Y2042729D01*
G01X24600065Y2054159D01*
G01X24594477Y2065589D01*
G01X24588635Y2071431D01*
G01X24577205Y2077019D01*
G01X24560187Y2077019D01*
G01X24548757Y2071431D01*
G01X24537327Y2060001D01*
G01X24531485Y2042729D01*
G01X24531485Y2031299D01*
G01X24537327Y2014281D01*
G01X24548757Y2002851D01*
G01X24560187Y1997009D01*
G01X24577205Y1997009D01*
G01X24588635Y2002851D01*
G01X24600065Y2014281D01*
G01X24647817Y2077019D02*
G01X24647817Y1997009D01*
G01X24647817Y2042729D02*
G01X24653659Y2060001D01*
G01X24665089Y2071431D01*
G01X24676519Y2077019D01*
G01X24693537Y2077019D01*
G01X24741289Y2048571D02*
G01X24844159Y2048571D01*
G01X24891911Y2117151D02*
G01X24891911Y1997009D01*
G01X24891911Y2117151D02*
G01X24943473Y2117151D01*
G01X24960491Y2111309D01*
G01X24966333Y2105721D01*
G01X24971921Y2094291D01*
G01X24971921Y2082861D01*
G01X24966333Y2071431D01*
G01X24960491Y2065589D01*
G01X24943473Y2060001D01*
G01X24891911Y2060001D02*
G01X24943473Y2060001D01*
G01X24960491Y2054159D01*
G01X24966333Y2048571D01*
G01X24971921Y2037141D01*
G01X24971921Y2019869D01*
G01X24966333Y2008439D01*
G01X24960491Y2002851D01*
G01X24943473Y1997009D01*
G01X24891911Y1997009D01*
G01X25048375Y2077019D02*
G01X25036945Y2071431D01*
G01X25025515Y2060001D01*
G01X25019673Y2042729D01*
G01X25019673Y2031299D01*
G01X25025515Y2014281D01*
G01X25036945Y2002851D01*
G01X25048375Y1997009D01*
G01X25065393Y1997009D01*
G01X25076823Y2002851D01*
G01X25088253Y2014281D01*
G01X25094095Y2031299D01*
G01X25094095Y2042729D01*
G01X25088253Y2060001D01*
G01X25076823Y2071431D01*
G01X25065393Y2077019D01*
G01X25048375Y2077019D01*
G01X25159119Y2117151D02*
G01X25159119Y2019869D01*
G01X25164707Y2002851D01*
G01X25176137Y1997009D01*
G01X25187567Y1997009D01*
G01X25141847Y2077019D02*
G01X25181979Y2077019D01*
G01X25252591Y2117151D02*
G01X25252591Y2019869D01*
G01X25258179Y2002851D01*
G01X25269609Y1997009D01*
G01X25281039Y1997009D01*
G01X25235319Y2077019D02*
G01X25275451Y2077019D01*
G01X25357493Y2077019D02*
G01X25346063Y2071431D01*
G01X25334633Y2060001D01*
G01X25328791Y2042729D01*
G01X25328791Y2031299D01*
G01X25334633Y2014281D01*
G01X25346063Y2002851D01*
G01X25357493Y1997009D01*
G01X25374511Y1997009D01*
G01X25385941Y2002851D01*
G01X25397371Y2014281D01*
G01X25403213Y2031299D01*
G01X25403213Y2042729D01*
G01X25397371Y2060001D01*
G01X25385941Y2071431D01*
G01X25374511Y2077019D01*
G01X25357493Y2077019D01*
G01X25450965Y2077019D02*
G01X25450965Y1997009D01*
G01X25450965Y2054159D02*
G01X25468237Y2071431D01*
G01X25479667Y2077019D01*
G01X25496685Y2077019D01*
G01X25508115Y2071431D01*
G01X25513957Y2054159D01*
G01X25513957Y1997009D01*
G01X25513957Y2054159D02*
G01X25530975Y2071431D01*
G01X25542405Y2077019D01*
G01X25559677Y2077019D01*
G01X25571107Y2071431D01*
G01X25576695Y2054159D01*
G01X25576695Y1997009D01*
G01X25752463Y2117151D02*
G01X25752463Y1997009D01*
G01X25752463Y1997009D02*
G01X25821043Y1997009D01*
G01X25937375Y2077019D02*
G01X25937375Y1997009D01*
G01X25937375Y2060001D02*
G01X25925945Y2071431D01*
G01X25914515Y2077019D01*
G01X25897497Y2077019D01*
G01X25886067Y2071431D01*
G01X25874637Y2060001D01*
G01X25868795Y2042729D01*
G01X25868795Y2031299D01*
G01X25874637Y2014281D01*
G01X25886067Y2002851D01*
G01X25897497Y1997009D01*
G01X25914515Y1997009D01*
G01X25925945Y2002851D01*
G01X25937375Y2014281D01*
G01X25990969Y2077019D02*
G01X26025259Y1997009D01*
G01X26059549Y2077019D02*
G01X26025259Y1997009D01*
G01X26013829Y1974149D01*
G01X26002399Y1962719D01*
G01X25990969Y1957131D01*
G01X25985127Y1957131D01*
G01X26107301Y2042729D02*
G01X26175881Y2042729D01*
G01X26175881Y2054159D01*
G01X26170293Y2065589D01*
G01X26164451Y2071431D01*
G01X26153021Y2077019D01*
G01X26136003Y2077019D01*
G01X26124573Y2071431D01*
G01X26113143Y2060001D01*
G01X26107301Y2042729D01*
G01X26107301Y2031299D01*
G01X26113143Y2014281D01*
G01X26124573Y2002851D01*
G01X26136003Y1997009D01*
G01X26153021Y1997009D01*
G01X26164451Y2002851D01*
G01X26175881Y2014281D01*
G01X26223633Y2077019D02*
G01X26223633Y1997009D01*
G01X26223633Y2042729D02*
G01X26229475Y2060001D01*
G01X26240905Y2071431D01*
G01X26252335Y2077019D01*
G01X26269353Y2077019D01*

G04 Image Start*
G36*
G01X10458269Y1889701D02*
G01X10450529Y1889113D01*
G01X10442686Y1888914D01*
G01X10434843Y1889113D01*
G01X10427102Y1889701D01*
G01X10419475Y1890670D01*
G01X10411970Y1892010D01*
G01X10397364Y1895765D01*
G01X10383362Y1900890D01*
G01X10370040Y1907307D01*
G01X10357474Y1914940D01*
G01X10345742Y1923713D01*
G01X10334920Y1933548D01*
G01X10325084Y1944371D01*
G01X10316311Y1956103D01*
G01X10308678Y1968668D01*
G01X10302261Y1981990D01*
G01X10297137Y1995992D01*
G01X10293382Y2010598D01*
G01X10292042Y2018104D01*
G01X10291072Y2025731D01*
G01X10290484Y2033471D01*
G01X10290286Y2041314D01*
G01X10315686Y2041314D01*
G01X10316343Y2028348D01*
G01X10318271Y2015752D01*
G01X10321405Y2003590D01*
G01X10325682Y1991928D01*
G01X10331037Y1980828D01*
G01X10337405Y1970357D01*
G01X10344723Y1960577D01*
G01X10352925Y1951554D01*
G01X10361949Y1943351D01*
G01X10371728Y1936034D01*
G01X10382200Y1929665D01*
G01X10393299Y1924310D01*
G01X10404962Y1920034D01*
G01X10417123Y1916899D01*
G01X10417123Y1916899D01*
G01X10429719Y1914971D01*
G01X10442686Y1914314D01*
G01X10455652Y1914971D01*
G01X10468248Y1916899D01*
G01X10480410Y1920034D01*
G01X10492072Y1924310D01*
G01X10503172Y1929665D01*
G01X10513643Y1936034D01*
G01X10523423Y1943351D01*
G01X10532446Y1951554D01*
G01X10540649Y1960577D01*
G01X10547966Y1970357D01*
G01X10554335Y1980828D01*
G01X10559690Y1991928D01*
G01X10563966Y2003590D01*
G01X10567101Y2015752D01*
G01X10569029Y2028348D01*
G01X10569686Y2041314D01*
G01X10569029Y2054281D01*
G01X10567101Y2066877D01*
G01X10563966Y2079038D01*
G01X10559690Y2090701D01*
G01X10554335Y2101800D01*
G01X10547966Y2112272D01*
G01X10540649Y2122051D01*
G01X10532446Y2131075D01*
G01X10523423Y2139277D01*
G01X10513643Y2146595D01*
G01X10503172Y2152963D01*
G01X10492072Y2158318D01*
G01X10480410Y2162595D01*
G01X10468248Y2165729D01*
G01X10455652Y2167657D01*
G01X10442686Y2168314D01*
G01X10429719Y2167657D01*
G01X10417123Y2165729D01*
G01X10404962Y2162595D01*
G01X10393299Y2158318D01*
G01X10382200Y2152963D01*
G01X10371728Y2146595D01*
G01X10361949Y2139277D01*
G01X10352925Y2131075D01*
G01X10344723Y2122051D01*
G01X10337405Y2112272D01*
G01X10331037Y2101800D01*
G01X10325682Y2090701D01*
G01X10321405Y2079038D01*
G01X10318271Y2066877D01*
G01X10316343Y2054281D01*
G01X10315686Y2041314D01*
G01X10290286Y2041314D01*
G01X10290484Y2049157D01*
G01X10291072Y2056898D01*
G01X10292042Y2064525D01*
G01X10293382Y2072030D01*
G01X10297137Y2086636D01*
G01X10302261Y2100638D01*
G01X10308678Y2113960D01*
G01X10316311Y2126526D01*
G01X10325084Y2138258D01*
G01X10334920Y2149080D01*
G01X10345742Y2158916D01*
G01X10357474Y2167689D01*
G01X10370040Y2175322D01*
G01X10383362Y2181739D01*
G01X10397364Y2186863D01*
G01X10411970Y2190618D01*
G01X10419475Y2191958D01*
G01X10427102Y2192928D01*
G01X10434843Y2193516D01*
G01X10442686Y2193714D01*
G01X10450529Y2193516D01*
G01X10458269Y2192928D01*
G01X10465896Y2191958D01*
G01X10473402Y2190618D01*
G01X10488008Y2186863D01*
G01X10502010Y2181739D01*
G01X10515332Y2175322D01*
G01X10527897Y2167689D01*
G01X10539629Y2158916D01*
G01X10550452Y2149080D01*
G01X10560287Y2138258D01*
G01X10569060Y2126526D01*
G01X10576693Y2113960D01*
G01X10583110Y2100638D01*
G01X10588235Y2086636D01*
G01X10591990Y2072030D01*
G01X10593330Y2064525D01*
G01X10594299Y2056898D01*
G01X10594887Y2049157D01*
G01X10595086Y2041314D01*
G01X10594887Y2033471D01*
G01X10594299Y2025731D01*
G01X10593330Y2018104D01*
G01X10591990Y2010598D01*
G01X10588235Y1995992D01*
G01X10583110Y1981990D01*
G01X10576693Y1968668D01*
G01X10569060Y1956103D01*
G01X10560287Y1944371D01*
G01X10550452Y1933548D01*
G01X10539629Y1923713D01*
G01X10527897Y1914940D01*
G01X10515332Y1907307D01*
G01X10502010Y1900890D01*
G01X10488008Y1895765D01*
G01X10473402Y1892010D01*
G01X10465896Y1890670D01*
G01X10458269Y1889701D01*
G37*
G36*
G01X10290286Y2774286D02*
G01X10569686Y2774286D01*
G01X10569686Y2494886D01*
G01X10290286Y2494886D01*
G01X10290286Y2748886D01*
G01X10315686Y2748886D01*
G01X10315686Y2520286D01*
G01X10544286Y2520286D01*
G01X10544286Y2748886D01*
G01X10544286Y2748886D01*
G01X10315686Y2748886D01*
G01X10290286Y2748886D01*
G01X10290286Y2774286D01*
G37*

G04 PolygonModel Start*
G54D13*
G01X10000000Y1758286D02*
G01X26860085Y1758286D01*
G01X10000000Y2338857D02*
G01X26860085Y2338857D01*
G01X10000000Y2919429D02*
G01X26860085Y2919429D01*
G01X10000000Y3500000D02*
G01X26860085Y3500000D01*
G01X10000000Y3500000D02*
G01X10000000Y1783686D01*
G01X11451429Y3500000D02*
G01X11451429Y1783686D01*
G01X12865592Y3500000D02*
G01X12865592Y1783686D01*
G01X16900781Y3500000D02*
G01X16900781Y1783686D01*
G01X18362188Y3500000D02*
G01X18362188Y1783686D01*
G01X19793369Y3500000D02*
G01X19793369Y1783686D01*
G01X21462548Y3500000D02*
G01X21462548Y1783686D01*
G01X23381917Y3500000D02*
G01X23381917Y1783686D01*
G01X26860085Y3500000D02*
G01X26860085Y1783686D01*

M02*

