G04 Layer: TopLayer*
G04 EasyEDA Pro v3.2.148, 2026-07-02 11:30:31*
G04 Gerber Generator version 0.3*
G04 Scale: 100 percent, Rotated: No, Reflected: No*
G04 Dimensions in millimeters*
G04 Leading zeros omitted, absolute positions, 4 integers and 5 decimals*
G04 Generated by one-click*
G04 Object Configs: Pad,Via,Track,Text,Image,Dimension,BoardOutline,BoardCutout,CopperFilled,SolidRegion,FPCStiffener,Line,PlaneZone,ComponentProperty,ComponentSilkscreen,TearDrop*
G04 Layer Configs: 1,2,3,4,5,6,7,8,9,10,11,13,14,71,72,73,74,75,76,86,56*
G04 Copper Areas: 1*
%FSLAX45Y45*%
%MOMM*%
%ADD10C,0.15*%
%ADD11C,1.0*%
%ADD12C,0.8*%
%ADD13C,6.4*%
%ADD14C,2.0*%
%ADD15C,0.4819*%
G75*


G04 Copper Start*
G36*
G01X6000537Y3495450D02*
G01X6002634Y3493760D01*
G01X7993759Y1502634D01*
G01X7997162Y1496403D01*
G01X7997450Y1493725D01*
G01X7997450Y506275D01*
G01X7995450Y499463D01*
G01X7993759Y497366D01*
G01X7502634Y6241D01*
G01X7496403Y2838D01*
G01X7493725Y2550D01*
G01X6506275Y2550D01*
G01X6499463Y4550D01*
G01X6497366Y6241D01*
G01X6493763Y9843D01*
G01X6003606Y500000D01*
G01X7349436Y500000D01*
G01X7351489Y475217D01*
G01X7357594Y451112D01*
G01X7357594Y451112D01*
G01X7367583Y428339D01*
G01X7381184Y407521D01*
G01X7398025Y389227D01*
G01X7417649Y373953D01*
G01X7439519Y362117D01*
G01X7439519Y362117D01*
G01X7463038Y354043D01*
G01X7463039Y354043D01*
G01X7471195Y352682D01*
G01X7487566Y349950D01*
G01X7487567Y349950D01*
G01X7512433Y349950D01*
G01X7512434Y349950D01*
G01X7532083Y353229D01*
G01X7536961Y354043D01*
G01X7536961Y354043D01*
G01X7536961Y354043D01*
G01X7536962Y354043D01*
G01X7560481Y362117D01*
G01X7560481Y362117D01*
G01X7582351Y373953D01*
G01X7601975Y389227D01*
G01X7618816Y407521D01*
G01X7632417Y428339D01*
G01X7642406Y451112D01*
G01X7642406Y451112D01*
G01X7648510Y475217D01*
G01X7648511Y475218D01*
G01X7650564Y500000D01*
G01X7648511Y524782D01*
G01X7642406Y548888D01*
G01X7632417Y571661D01*
G01X7618816Y592479D01*
G01X7601974Y610774D01*
G01X7582351Y626048D01*
G01X7560481Y637883D01*
G01X7536961Y645957D01*
G01X7512434Y650050D01*
G01X7487566Y650050D01*
G01X7463039Y645957D01*
G01X7451868Y642122D01*
G01X7439519Y637883D01*
G01X7439519Y637883D01*
G01X7417649Y626048D01*
G01X7398026Y610774D01*
G01X7398025Y610773D01*
G01X7398025Y610773D01*
G01X7381184Y592479D01*
G01X7367583Y571661D01*
G01X7357594Y548888D01*
G01X7357594Y548888D01*
G01X7351489Y524783D01*
G01X7349436Y500000D01*
G01X6003606Y500000D01*
G01X5550868Y952738D01*
G01X5547466Y958969D01*
G01X5547972Y966050D01*
G01X5548866Y967947D01*
G01X5554397Y977527D01*
G01X5554397Y977527D01*
G01X5554398Y977528D01*
G01X5558374Y992368D01*
G01X5558374Y999999D01*
G01X6628691Y999999D01*
G01X6630725Y961189D01*
G01X6636805Y922800D01*
G01X6646864Y885259D01*
G01X6660792Y848976D01*
G01X6660792Y848975D01*
G01X6678436Y814346D01*
G01X6678437Y814346D01*
G01X6699604Y781751D01*
G01X6699605Y781749D01*
G01X6720288Y756209D01*
G01X6720288Y756209D01*
G01X6789401Y825322D01*
G01X6805294Y825322D01*
G01X6809100Y816133D01*
G01X6816133Y809100D01*
G01X6825322Y805294D01*
G01X6835267Y805294D01*
G01X6844456Y809100D01*
G01X6851488Y816133D01*
G01X6855294Y825322D01*
G01X6855294Y835267D01*
G01X6851488Y844456D01*
G01X6844456Y851489D01*
G01X6835267Y855294D01*
G01X6825322Y855294D01*
G01X6816133Y851489D01*
G01X6809100Y844456D01*
G01X6805294Y835267D01*
G01X6805294Y825322D01*
G01X6789401Y825322D01*
G01X6870337Y906258D01*
G01X6877959Y895767D01*
G01X6895767Y877959D01*
G01X6906258Y870337D01*
G01X6756209Y720288D01*
G01X6781749Y699605D01*
G01X6781751Y699604D01*
G01X6814346Y678437D01*
G01X6814346Y678437D01*
G01X6848975Y660792D01*
G01X6848976Y660792D01*
G01X6885259Y646864D01*
G01X6922800Y636805D01*
G01X6961189Y630725D01*
G01X6999999Y628691D01*
G01X7000000Y628691D01*
G01X7038811Y630725D01*
G01X7077199Y636805D01*
G01X7114741Y646864D01*
G01X7151024Y660792D01*
G01X7151025Y660792D01*
G01X7185653Y678437D01*
G01X7185654Y678437D01*
G01X7218250Y699605D01*
G01X7243791Y720288D01*
G01X7138757Y825322D01*
G01X7144706Y825322D01*
G01X7148511Y816133D01*
G01X7155544Y809100D01*
G01X7164733Y805294D01*
G01X7174678Y805294D01*
G01X7183867Y809100D01*
G01X7190900Y816133D01*
G01X7194706Y825322D01*
G01X7194706Y835267D01*
G01X7190900Y844456D01*
G01X7183867Y851489D01*
G01X7174678Y855294D01*
G01X7164733Y855294D01*
G01X7155544Y851489D01*
G01X7148511Y844456D01*
G01X7144706Y835267D01*
G01X7144706Y825322D01*
G01X7138757Y825322D01*
G01X7093742Y870337D01*
G01X7104233Y877959D01*
G01X7122041Y895767D01*
G01X7129663Y906258D01*
G01X7279712Y756209D01*
G01X7300395Y781750D01*
G01X7321563Y814346D01*
G01X7321563Y814346D01*
G01X7339208Y848975D01*
G01X7339208Y848976D01*
G01X7353135Y885259D01*
G01X7363195Y922800D01*
G01X7369275Y961189D01*
G01X7371309Y999999D01*
G01X7371309Y1000001D01*
G01X7369275Y1038811D01*
G01X7363195Y1077200D01*
G01X7353135Y1114741D01*
G01X7339208Y1151024D01*
G01X7339208Y1151025D01*
G01X7321563Y1185654D01*
G01X7300396Y1218249D01*
G01X7300395Y1218250D01*
G01X7279712Y1243791D01*
G01X7129663Y1093742D01*
G01X7122041Y1104233D01*
G01X7104233Y1122041D01*
G01X7093742Y1129663D01*
G01X7128812Y1164733D01*
G01X7144706Y1164733D01*
G01X7148511Y1155544D01*
G01X7155544Y1148512D01*
G01X7164733Y1144706D01*
G01X7174678Y1144706D01*
G01X7183867Y1148512D01*
G01X7190900Y1155544D01*
G01X7194706Y1164733D01*
G01X7194706Y1174678D01*
G01X7190900Y1183867D01*
G01X7183867Y1190900D01*
G01X7174678Y1194706D01*
G01X7164733Y1194706D01*
G01X7155544Y1190900D01*
G01X7148511Y1183867D01*
G01X7144706Y1174678D01*
G01X7144706Y1164733D01*
G01X7128812Y1164733D01*
G01X7243791Y1279712D01*
G01X7218250Y1300395D01*
G01X7185654Y1321563D01*
G01X7185653Y1321564D01*
G01X7151025Y1339208D01*
G01X7151024Y1339208D01*
G01X7114741Y1353135D01*
G01X7077199Y1363195D01*
G01X7038811Y1369275D01*
G01X7000000Y1371309D01*
G01X6999999Y1371309D01*
G01X6961189Y1369275D01*
G01X6922800Y1363195D01*
G01X6885259Y1353135D01*
G01X6848976Y1339208D01*
G01X6848975Y1339208D01*
G01X6814346Y1321563D01*
G01X6781751Y1300396D01*
G01X6781750Y1300395D01*
G01X6756209Y1279712D01*
G01X6906258Y1129663D01*
G01X6895767Y1122041D01*
G01X6877959Y1104233D01*
G01X6870337Y1093742D01*
G01X6799346Y1164733D01*
G01X6805294Y1164733D01*
G01X6809100Y1155544D01*
G01X6816133Y1148512D01*
G01X6825322Y1144706D01*
G01X6835267Y1144706D01*
G01X6844456Y1148512D01*
G01X6851488Y1155544D01*
G01X6855294Y1164733D01*
G01X6855294Y1174678D01*
G01X6851488Y1183867D01*
G01X6844456Y1190900D01*
G01X6835267Y1194706D01*
G01X6825322Y1194706D01*
G01X6816133Y1190900D01*
G01X6809100Y1183867D01*
G01X6805294Y1174678D01*
G01X6805294Y1164733D01*
G01X6799346Y1164733D01*
G01X6720288Y1243791D01*
G01X6699605Y1218250D01*
G01X6699604Y1218249D01*
G01X6678437Y1185654D01*
G01X6660792Y1151025D01*
G01X6660792Y1151024D01*
G01X6646864Y1114741D01*
G01X6636805Y1077200D01*
G01X6630725Y1038811D01*
G01X6628691Y1000001D01*
G01X6628691Y999999D01*
G01X5558374Y999999D01*
G01X5558374Y1307732D01*
G01X5554398Y1322572D01*
G01X5546716Y1335878D01*
G01X5535852Y1346742D01*
G01X5522546Y1354424D01*
G01X5507706Y1358400D01*
G01X5492342Y1358400D01*
G01X5477502Y1354424D01*
G01X5464196Y1346742D01*
G01X5464196Y1346741D01*
G01X5464196Y1346741D01*
G01X5453333Y1335878D01*
G01X5453332Y1335877D01*
G01X5445651Y1322573D01*
G01X5445651Y1322572D01*
G01X5445380Y1321563D01*
G01X5441674Y1307732D01*
G01X5441674Y1307732D01*
G01X5441674Y1165204D01*
G01X5439674Y1158392D01*
G01X5434308Y1153742D01*
G01X5427281Y1152732D01*
G01X5422774Y1154292D01*
G01X5422753Y1154304D01*
G01X5422546Y1154423D01*
G01X5407706Y1158400D01*
G01X5392342Y1158400D01*
G01X5377502Y1154423D01*
G01X5364196Y1146742D01*
G01X5364196Y1146741D01*
G01X5364196Y1146741D01*
G01X5358933Y1141479D01*
G01X5352702Y1138076D01*
G01X5345621Y1138583D01*
G01X5341115Y1141479D01*
G01X5335852Y1146741D01*
G01X5335852Y1146742D01*
G01X5322546Y1154423D01*
G01X5307706Y1158400D01*
G01X5292342Y1158400D01*
G01X5277502Y1154423D01*
G01X5264196Y1146742D01*
G01X5264196Y1146741D01*
G01X5264196Y1146741D01*
G01X5258934Y1141479D01*
G01X5252702Y1138076D01*
G01X5245621Y1138583D01*
G01X5241114Y1141479D01*
G01X5235852Y1146741D01*
G01X5235852Y1146742D01*
G01X5222546Y1154423D01*
G01X5207706Y1158400D01*
G01X5192342Y1158400D01*
G01X5177502Y1154423D01*
G01X5164196Y1146742D01*
G01X5164196Y1146741D01*
G01X5164196Y1146741D01*
G01X5158934Y1141479D01*
G01X5152702Y1138076D01*
G01X5145621Y1138583D01*
G01X5141114Y1141479D01*
G01X5135852Y1146741D01*
G01X5135852Y1146742D01*
G01X5122546Y1154423D01*
G01X5107706Y1158400D01*
G01X5092342Y1158400D01*
G01X5077502Y1154423D01*
G01X5077501Y1154423D01*
G01X5077501Y1154423D01*
G01X5077274Y1154292D01*
G01X5077058Y1154240D01*
G01X5076739Y1154107D01*
G01X5076718Y1154157D01*
G01X5070375Y1152618D01*
G01X5063666Y1154940D01*
G01X5059277Y1160521D01*
G01X5058374Y1165204D01*
G01X5058374Y1207732D01*
G01X5058374Y1207732D01*
G01X5054398Y1222572D01*
G01X5046716Y1235878D01*
G01X5035852Y1246741D01*
G01X5022546Y1254423D01*
G01X5007706Y1258400D01*
G01X4992342Y1258400D01*
G01X4977502Y1254423D01*
G01X4964196Y1246741D01*
G01X4964196Y1246741D01*
G01X4964196Y1246741D01*
G01X4953333Y1235878D01*
G01X4953332Y1235877D01*
G01X4947536Y1225839D01*
G01X4945651Y1222572D01*
G01X4941674Y1207732D01*
G01X4941674Y1207732D01*
G01X4941674Y1165204D01*
G01X4939674Y1158392D01*
G01X4934308Y1153742D01*
G01X4927281Y1152732D01*
G01X4922774Y1154292D01*
G01X4922753Y1154304D01*
G01X4922546Y1154423D01*
G01X4907706Y1158400D01*
G01X4892342Y1158400D01*
G01X4877502Y1154423D01*
G01X4864196Y1146742D01*
G01X4864196Y1146741D01*
G01X4864196Y1146741D01*
G01X4858933Y1141479D01*
G01X4852702Y1138076D01*
G01X4845621Y1138583D01*
G01X4841115Y1141479D01*
G01X4835852Y1146741D01*
G01X4835852Y1146742D01*
G01X4822546Y1154423D01*
G01X4807706Y1158400D01*
G01X4792342Y1158400D01*
G01X4777502Y1154423D01*
G01X4764196Y1146742D01*
G01X4764196Y1146741D01*
G01X4764196Y1146741D01*
G01X4758934Y1141479D01*
G01X4752702Y1138076D01*
G01X4745621Y1138583D01*
G01X4741114Y1141479D01*
G01X4735852Y1146741D01*
G01X4735852Y1146742D01*
G01X4722546Y1154423D01*
G01X4707706Y1158400D01*
G01X4692342Y1158400D01*
G01X4677502Y1154423D01*
G01X4664196Y1146742D01*
G01X4664196Y1146741D01*
G01X4664196Y1146741D01*
G01X4658934Y1141479D01*
G01X4652702Y1138076D01*
G01X4645621Y1138583D01*
G01X4641114Y1141479D01*
G01X4635852Y1146741D01*
G01X4635852Y1146742D01*
G01X4622546Y1154423D01*
G01X4607706Y1158400D01*
G01X4592342Y1158400D01*
G01X4577502Y1154423D01*
G01X4577501Y1154423D01*
G01X4577501Y1154423D01*
G01X4577274Y1154292D01*
G01X4577058Y1154240D01*
G01X4576739Y1154107D01*
G01X4576718Y1154157D01*
G01X4570375Y1152618D01*
G01X4563665Y1154940D01*
G01X4559277Y1160521D01*
G01X4558374Y1165204D01*
G01X4558374Y1307732D01*
G01X4558374Y1307732D01*
G01X4554398Y1322572D01*
G01X4546716Y1335878D01*
G01X4535852Y1346742D01*
G01X4522546Y1354424D01*
G01X4507706Y1358400D01*
G01X4492342Y1358400D01*
G01X4477502Y1354424D01*
G01X4464196Y1346742D01*
G01X4464196Y1346741D01*
G01X4464196Y1346741D01*
G01X4453333Y1335878D01*
G01X4453332Y1335877D01*
G01X4445651Y1322573D01*
G01X4445650Y1322572D01*
G01X4445380Y1321563D01*
G01X4441674Y1307732D01*
G01X4441674Y1307732D01*
G01X4441674Y1165204D01*
G01X4439674Y1158392D01*
G01X4434308Y1153742D01*
G01X4427281Y1152732D01*
G01X4422774Y1154292D01*
G01X4422753Y1154304D01*
G01X4422546Y1154423D01*
G01X4407706Y1158400D01*
G01X4392342Y1158400D01*
G01X4377502Y1154423D01*
G01X4364196Y1146742D01*
G01X4364196Y1146741D01*
G01X4364195Y1146741D01*
G01X4358934Y1141479D01*
G01X4352702Y1138076D01*
G01X4345621Y1138583D01*
G01X4341115Y1141479D01*
G01X4335852Y1146741D01*
G01X4335852Y1146742D01*
G01X4322546Y1154423D01*
G01X4307706Y1158400D01*
G01X4292342Y1158400D01*
G01X4277502Y1154423D01*
G01X4264196Y1146742D01*
G01X4264196Y1146741D01*
G01X4264196Y1146741D01*
G01X4258934Y1141479D01*
G01X4252702Y1138076D01*
G01X4245621Y1138583D01*
G01X4241114Y1141479D01*
G01X4235852Y1146741D01*
G01X4235852Y1146742D01*
G01X4222546Y1154423D01*
G01X4207706Y1158400D01*
G01X4192342Y1158400D01*
G01X4177502Y1154423D01*
G01X4164196Y1146742D01*
G01X4164196Y1146741D01*
G01X4164196Y1146741D01*
G01X4158934Y1141479D01*
G01X4152702Y1138076D01*
G01X4145621Y1138583D01*
G01X4141114Y1141479D01*
G01X4135852Y1146741D01*
G01X4135852Y1146742D01*
G01X4122546Y1154423D01*
G01X4107706Y1158400D01*
G01X4092342Y1158400D01*
G01X4077502Y1154423D01*
G01X4077501Y1154423D01*
G01X4077274Y1154292D01*
G01X4077058Y1154240D01*
G01X4076739Y1154107D01*
G01X4076718Y1154157D01*
G01X4070375Y1152618D01*
G01X4063665Y1154940D01*
G01X4059277Y1160521D01*
G01X4058374Y1165204D01*
G01X4058374Y1207732D01*
G01X4058374Y1207732D01*
G01X4054398Y1222572D01*
G01X4046716Y1235878D01*
G01X4035852Y1246741D01*
G01X4022546Y1254423D01*
G01X4007706Y1258400D01*
G01X3992342Y1258400D01*
G01X3977502Y1254423D01*
G01X3964196Y1246741D01*
G01X3964196Y1246741D01*
G01X3964196Y1246741D01*
G01X3953333Y1235878D01*
G01X3953332Y1235877D01*
G01X3947536Y1225839D01*
G01X3945650Y1222572D01*
G01X3941674Y1207732D01*
G01X3941674Y1207732D01*
G01X3941674Y1165204D01*
G01X3939674Y1158392D01*
G01X3934308Y1153742D01*
G01X3927281Y1152732D01*
G01X3922774Y1154292D01*
G01X3922753Y1154304D01*
G01X3922546Y1154423D01*
G01X3907706Y1158400D01*
G01X3892342Y1158400D01*
G01X3877502Y1154423D01*
G01X3864196Y1146742D01*
G01X3864196Y1146741D01*
G01X3864196Y1146741D01*
G01X3858934Y1141479D01*
G01X3852702Y1138076D01*
G01X3845621Y1138583D01*
G01X3841114Y1141479D01*
G01X3835852Y1146741D01*
G01X3835852Y1146742D01*
G01X3822546Y1154423D01*
G01X3807706Y1158400D01*
G01X3792342Y1158400D01*
G01X3777502Y1154423D01*
G01X3764196Y1146742D01*
G01X3764196Y1146741D01*
G01X3764196Y1146741D01*
G01X3758934Y1141479D01*
G01X3752702Y1138076D01*
G01X3745621Y1138583D01*
G01X3741114Y1141479D01*
G01X3735852Y1146741D01*
G01X3735852Y1146742D01*
G01X3722546Y1154423D01*
G01X3707706Y1158400D01*
G01X3692342Y1158400D01*
G01X3677502Y1154423D01*
G01X3664196Y1146742D01*
G01X3664196Y1146741D01*
G01X3664196Y1146741D01*
G01X3658934Y1141479D01*
G01X3652702Y1138076D01*
G01X3645621Y1138583D01*
G01X3641114Y1141479D01*
G01X3635852Y1146741D01*
G01X3635852Y1146742D01*
G01X3622546Y1154423D01*
G01X3607706Y1158400D01*
G01X3592342Y1158400D01*
G01X3577502Y1154423D01*
G01X3577501Y1154423D01*
G01X3577274Y1154292D01*
G01X3577058Y1154240D01*
G01X3576739Y1154107D01*
G01X3576718Y1154157D01*
G01X3570375Y1152618D01*
G01X3563665Y1154940D01*
G01X3559277Y1160521D01*
G01X3558374Y1165204D01*
G01X3558374Y1307732D01*
G01X3558374Y1307732D01*
G01X3554398Y1322572D01*
G01X3546716Y1335878D01*
G01X3535852Y1346742D01*
G01X3522546Y1354424D01*
G01X3507706Y1358400D01*
G01X3492342Y1358400D01*
G01X3477502Y1354424D01*
G01X3464196Y1346742D01*
G01X3464196Y1346741D01*
G01X3464196Y1346741D01*
G01X3453333Y1335878D01*
G01X3453332Y1335877D01*
G01X3445651Y1322573D01*
G01X3445650Y1322572D01*
G01X3445380Y1321563D01*
G01X3441674Y1307732D01*
G01X3441674Y1307732D01*
G01X3441674Y1165204D01*
G01X3439674Y1158392D01*
G01X3434308Y1153742D01*
G01X3427281Y1152732D01*
G01X3422774Y1154292D01*
G01X3422753Y1154304D01*
G01X3422546Y1154423D01*
G01X3407706Y1158400D01*
G01X3392342Y1158400D01*
G01X3377502Y1154423D01*
G01X3364196Y1146742D01*
G01X3364196Y1146741D01*
G01X3364196Y1146741D01*
G01X3358934Y1141479D01*
G01X3352702Y1138076D01*
G01X3345621Y1138583D01*
G01X3341114Y1141479D01*
G01X3335852Y1146741D01*
G01X3335852Y1146742D01*
G01X3322546Y1154423D01*
G01X3307706Y1158400D01*
G01X3292342Y1158400D01*
G01X3277502Y1154423D01*
G01X3264196Y1146742D01*
G01X3264196Y1146741D01*
G01X3264196Y1146741D01*
G01X3258934Y1141479D01*
G01X3252702Y1138076D01*
G01X3245621Y1138583D01*
G01X3241114Y1141479D01*
G01X3235852Y1146741D01*
G01X3235852Y1146742D01*
G01X3222546Y1154423D01*
G01X3207706Y1158400D01*
G01X3192342Y1158400D01*
G01X3177502Y1154423D01*
G01X3164196Y1146742D01*
G01X3164196Y1146741D01*
G01X3164196Y1146741D01*
G01X3158933Y1141479D01*
G01X3152702Y1138076D01*
G01X3145621Y1138583D01*
G01X3141115Y1141479D01*
G01X3135852Y1146741D01*
G01X3135852Y1146742D01*
G01X3122546Y1154423D01*
G01X3107706Y1158400D01*
G01X3092342Y1158400D01*
G01X3077502Y1154423D01*
G01X3077501Y1154423D01*
G01X3077274Y1154292D01*
G01X3077058Y1154240D01*
G01X3076739Y1154107D01*
G01X3076718Y1154157D01*
G01X3070375Y1152618D01*
G01X3063665Y1154940D01*
G01X3059277Y1160521D01*
G01X3058374Y1165204D01*
G01X3058374Y1207732D01*
G01X3058374Y1207732D01*
G01X3054397Y1222572D01*
G01X3046716Y1235878D01*
G01X3035852Y1246741D01*
G01X3022546Y1254423D01*
G01X3007706Y1258400D01*
G01X2992342Y1258400D01*
G01X2977502Y1254423D01*
G01X2964196Y1246741D01*
G01X2964196Y1246741D01*
G01X2964195Y1246741D01*
G01X2953333Y1235878D01*
G01X2953332Y1235877D01*
G01X2947536Y1225839D01*
G01X2945650Y1222572D01*
G01X2941674Y1207732D01*
G01X2941674Y1207732D01*
G01X2941674Y1165204D01*
G01X2939674Y1158392D01*
G01X2934308Y1153742D01*
G01X2927281Y1152732D01*
G01X2922774Y1154292D01*
G01X2922753Y1154304D01*
G01X2922546Y1154423D01*
G01X2907706Y1158400D01*
G01X2892342Y1158400D01*
G01X2877502Y1154423D01*
G01X2864196Y1146742D01*
G01X2864196Y1146741D01*
G01X2864196Y1146741D01*
G01X2858934Y1141479D01*
G01X2852702Y1138076D01*
G01X2845621Y1138583D01*
G01X2841114Y1141479D01*
G01X2835852Y1146741D01*
G01X2835852Y1146742D01*
G01X2822546Y1154423D01*
G01X2807706Y1158400D01*
G01X2792342Y1158400D01*
G01X2777502Y1154423D01*
G01X2764196Y1146742D01*
G01X2764196Y1146741D01*
G01X2764196Y1146741D01*
G01X2758934Y1141479D01*
G01X2752702Y1138076D01*
G01X2745621Y1138583D01*
G01X2741114Y1141479D01*
G01X2735852Y1146741D01*
G01X2735852Y1146742D01*
G01X2722546Y1154423D01*
G01X2707706Y1158400D01*
G01X2692342Y1158400D01*
G01X2677502Y1154423D01*
G01X2664196Y1146742D01*
G01X2664196Y1146741D01*
G01X2664196Y1146741D01*
G01X2658933Y1141479D01*
G01X2652702Y1138076D01*
G01X2645621Y1138583D01*
G01X2641115Y1141479D01*
G01X2635852Y1146741D01*
G01X2635852Y1146742D01*
G01X2622546Y1154423D01*
G01X2607706Y1158400D01*
G01X2592342Y1158400D01*
G01X2577502Y1154423D01*
G01X2577501Y1154423D01*
G01X2577501Y1154423D01*
G01X2577274Y1154292D01*
G01X2577058Y1154240D01*
G01X2576739Y1154107D01*
G01X2576718Y1154157D01*
G01X2570375Y1152618D01*
G01X2563665Y1154940D01*
G01X2559277Y1160521D01*
G01X2558374Y1165204D01*
G01X2558374Y1307732D01*
G01X2558374Y1307732D01*
G01X2554397Y1322572D01*
G01X2546716Y1335878D01*
G01X2535852Y1346742D01*
G01X2522546Y1354424D01*
G01X2507706Y1358400D01*
G01X2492342Y1358400D01*
G01X2477502Y1354424D01*
G01X2464196Y1346742D01*
G01X2464196Y1346741D01*
G01X2464195Y1346741D01*
G01X2453333Y1335878D01*
G01X2453332Y1335877D01*
G01X2445651Y1322573D01*
G01X2445650Y1322572D01*
G01X2445380Y1321563D01*
G01X2441674Y1307732D01*
G01X2441674Y1307732D01*
G01X2441674Y992368D01*
G01X2441674Y992368D01*
G01X2445650Y977528D01*
G01X2445651Y977527D01*
G01X2451164Y967977D01*
G01X2452838Y961078D01*
G01X2450516Y954369D01*
G01X2449162Y952768D01*
G01X1502634Y6241D01*
G01X1496403Y2838D01*
G01X1493725Y2550D01*
G01X506275Y2550D01*
G01X499463Y4550D01*
G01X497366Y6241D01*
G01X6241Y497366D01*
G01X4802Y500000D01*
G01X349436Y500000D01*
G01X351489Y475217D01*
G01X357593Y451112D01*
G01X357594Y451112D01*
G01X367583Y428339D01*
G01X381183Y407521D01*
G01X398025Y389227D01*
G01X417649Y373953D01*
G01X417649Y373953D01*
G01X439519Y362117D01*
G01X439519Y362117D01*
G01X463038Y354043D01*
G01X463039Y354043D01*
G01X471195Y352682D01*
G01X487566Y349950D01*
G01X487567Y349950D01*
G01X512433Y349950D01*
G01X512434Y349950D01*
G01X532084Y353229D01*
G01X536961Y354043D01*
G01X536961Y354043D01*
G01X536961Y354043D01*
G01X536962Y354043D01*
G01X560481Y362117D01*
G01X560481Y362117D01*
G01X582351Y373953D01*
G01X601975Y389227D01*
G01X618816Y407521D01*
G01X632417Y428339D01*
G01X642406Y451112D01*
G01X642406Y451112D01*
G01X648511Y475217D01*
G01X648511Y475218D01*
G01X650564Y500000D01*
G01X648511Y524782D01*
G01X642406Y548888D01*
G01X632417Y571661D01*
G01X618816Y592479D01*
G01X601974Y610774D01*
G01X582351Y626048D01*
G01X560481Y637883D01*
G01X536961Y645957D01*
G01X512434Y650050D01*
G01X487566Y650050D01*
G01X463039Y645957D01*
G01X451868Y642122D01*
G01X439519Y637883D01*
G01X439519Y637883D01*
G01X417649Y626048D01*
G01X398026Y610774D01*
G01X398025Y610773D01*
G01X398025Y610773D01*
G01X381183Y592479D01*
G01X367583Y571661D01*
G01X357594Y548888D01*
G01X357593Y548888D01*
G01X351489Y524783D01*
G01X349436Y500000D01*
G01X4802Y500000D01*
G01X2838Y503597D01*
G01X2550Y506275D01*
G01X2550Y999999D01*
G01X628691Y999999D01*
G01X630725Y961189D01*
G01X636805Y922800D01*
G01X646864Y885259D01*
G01X660792Y848976D01*
G01X660792Y848975D01*
G01X678437Y814346D01*
G01X678437Y814346D01*
G01X699604Y781751D01*
G01X699605Y781749D01*
G01X720288Y756209D01*
G01X789401Y825322D01*
G01X805294Y825322D01*
G01X809100Y816133D01*
G01X816133Y809100D01*
G01X825322Y805294D01*
G01X835267Y805294D01*
G01X844456Y809100D01*
G01X851489Y816133D01*
G01X855294Y825322D01*
G01X855294Y835267D01*
G01X851489Y844456D01*
G01X844456Y851489D01*
G01X835267Y855294D01*
G01X825322Y855294D01*
G01X816133Y851489D01*
G01X809100Y844456D01*
G01X805294Y835267D01*
G01X805294Y825322D01*
G01X789401Y825322D01*
G01X870337Y906258D01*
G01X877959Y895767D01*
G01X895767Y877959D01*
G01X906258Y870337D01*
G01X756209Y720288D01*
G01X781749Y699605D01*
G01X781751Y699604D01*
G01X814346Y678437D01*
G01X814346Y678437D01*
G01X848975Y660792D01*
G01X848976Y660792D01*
G01X885259Y646864D01*
G01X922800Y636805D01*
G01X961189Y630725D01*
G01X1000000Y628691D01*
G01X1000001Y628691D01*
G01X1038811Y630725D01*
G01X1077200Y636805D01*
G01X1114741Y646864D01*
G01X1151024Y660792D01*
G01X1151025Y660792D01*
G01X1185653Y678437D01*
G01X1185654Y678437D01*
G01X1218250Y699605D01*
G01X1243791Y720288D01*
G01X1138757Y825322D01*
G01X1144706Y825322D01*
G01X1148512Y816133D01*
G01X1155544Y809100D01*
G01X1164733Y805294D01*
G01X1174678Y805294D01*
G01X1183867Y809100D01*
G01X1190900Y816133D01*
G01X1194706Y825322D01*
G01X1194706Y835267D01*
G01X1190900Y844456D01*
G01X1183867Y851489D01*
G01X1174678Y855294D01*
G01X1164733Y855294D01*
G01X1155544Y851489D01*
G01X1148512Y844456D01*
G01X1144706Y835267D01*
G01X1144706Y825322D01*
G01X1138757Y825322D01*
G01X1093742Y870337D01*
G01X1104233Y877959D01*
G01X1122041Y895767D01*
G01X1129663Y906258D01*
G01X1279712Y756209D01*
G01X1300395Y781750D01*
G01X1321563Y814346D01*
G01X1321564Y814346D01*
G01X1339208Y848975D01*
G01X1339208Y848976D01*
G01X1353135Y885259D01*
G01X1363195Y922800D01*
G01X1369275Y961189D01*
G01X1371309Y999999D01*
G01X1371309Y1000001D01*
G01X1369275Y1038811D01*
G01X1363195Y1077200D01*
G01X1353135Y1114741D01*
G01X1339208Y1151024D01*
G01X1339208Y1151025D01*
G01X1321563Y1185654D01*
G01X1300396Y1218249D01*
G01X1300395Y1218250D01*
G01X1279712Y1243791D01*
G01X1129663Y1093742D01*
G01X1122041Y1104233D01*
G01X1104233Y1122041D01*
G01X1093742Y1129663D01*
G01X1128812Y1164733D01*
G01X1144706Y1164733D01*
G01X1148512Y1155544D01*
G01X1155544Y1148512D01*
G01X1164733Y1144706D01*
G01X1174678Y1144706D01*
G01X1183867Y1148512D01*
G01X1190900Y1155544D01*
G01X1194706Y1164733D01*
G01X1194706Y1174678D01*
G01X1190900Y1183867D01*
G01X1183867Y1190900D01*
G01X1174678Y1194706D01*
G01X1164733Y1194706D01*
G01X1155544Y1190900D01*
G01X1148512Y1183867D01*
G01X1144706Y1174678D01*
G01X1144706Y1164733D01*
G01X1128812Y1164733D01*
G01X1243791Y1279712D01*
G01X1218250Y1300395D01*
G01X1185654Y1321563D01*
G01X1185653Y1321564D01*
G01X1151025Y1339208D01*
G01X1151024Y1339208D01*
G01X1114741Y1353135D01*
G01X1077200Y1363195D01*
G01X1038811Y1369275D01*
G01X1000001Y1371309D01*
G01X1000000Y1371309D01*
G01X961189Y1369275D01*
G01X922800Y1363195D01*
G01X885259Y1353135D01*
G01X848976Y1339208D01*
G01X848975Y1339208D01*
G01X814346Y1321563D01*
G01X781751Y1300396D01*
G01X781750Y1300395D01*
G01X756209Y1279712D01*
G01X906258Y1129663D01*
G01X895767Y1122041D01*
G01X877959Y1104233D01*
G01X870337Y1093742D01*
G01X799346Y1164733D01*
G01X805294Y1164733D01*
G01X809100Y1155544D01*
G01X816133Y1148512D01*
G01X825322Y1144706D01*
G01X835267Y1144706D01*
G01X844456Y1148512D01*
G01X851489Y1155544D01*
G01X855294Y1164733D01*
G01X855294Y1174678D01*
G01X851489Y1183867D01*
G01X844456Y1190900D01*
G01X835267Y1194706D01*
G01X825322Y1194706D01*
G01X816133Y1190900D01*
G01X809100Y1183867D01*
G01X805294Y1174678D01*
G01X805294Y1164733D01*
G01X799346Y1164733D01*
G01X720288Y1243791D01*
G01X699605Y1218250D01*
G01X699604Y1218249D01*
G01X678437Y1185654D01*
G01X660792Y1151025D01*
G01X660792Y1151024D01*
G01X646864Y1114741D01*
G01X636805Y1077200D01*
G01X630725Y1038811D01*
G01X628691Y1000001D01*
G01X628691Y999999D01*
G01X2550Y999999D01*
G01X2550Y1493725D01*
G01X4393Y1500000D01*
G01X2849436Y1500000D01*
G01X2851489Y1475217D01*
G01X2857593Y1451112D01*
G01X2857594Y1451111D01*
G01X2867583Y1428339D01*
G01X2881183Y1407521D01*
G01X2898025Y1389227D01*
G01X2917649Y1373953D01*
G01X2939519Y1362117D01*
G01X2939519Y1362117D01*
G01X2963038Y1354043D01*
G01X2963039Y1354043D01*
G01X2971195Y1352682D01*
G01X2987567Y1349950D01*
G01X2987567Y1349950D01*
G01X3012433Y1349950D01*
G01X3012433Y1349950D01*
G01X3032084Y1353229D01*
G01X3036961Y1354043D01*
G01X3036961Y1354043D01*
G01X3036961Y1354043D01*
G01X3036962Y1354043D01*
G01X3060481Y1362117D01*
G01X3060481Y1362117D01*
G01X3082351Y1373953D01*
G01X3082351Y1373953D01*
G01X3101975Y1389227D01*
G01X3118816Y1407521D01*
G01X3132417Y1428339D01*
G01X3142406Y1451111D01*
G01X3142406Y1451112D01*
G01X3148511Y1475217D01*
G01X3148511Y1475218D01*
G01X3150564Y1500000D01*
G01X4849436Y1500000D01*
G01X4851489Y1475217D01*
G01X4857594Y1451112D01*
G01X4857594Y1451111D01*
G01X4867583Y1428339D01*
G01X4881184Y1407521D01*
G01X4898025Y1389227D01*
G01X4917649Y1373953D01*
G01X4939519Y1362117D01*
G01X4939519Y1362117D01*
G01X4963038Y1354043D01*
G01X4963039Y1354043D01*
G01X4971195Y1352682D01*
G01X4987567Y1349950D01*
G01X4987567Y1349950D01*
G01X5012433Y1349950D01*
G01X5012433Y1349950D01*
G01X5032084Y1353229D01*
G01X5036961Y1354043D01*
G01X5036961Y1354043D01*
G01X5036961Y1354043D01*
G01X5036962Y1354043D01*
G01X5060481Y1362117D01*
G01X5060481Y1362117D01*
G01X5082351Y1373953D01*
G01X5082351Y1373953D01*
G01X5101975Y1389227D01*
G01X5118816Y1407521D01*
G01X5132417Y1428339D01*
G01X5142406Y1451111D01*
G01X5142406Y1451112D01*
G01X5148511Y1475217D01*
G01X5148511Y1475218D01*
G01X5150564Y1500000D01*
G01X5148511Y1524782D01*
G01X5142406Y1548888D01*
G01X5132417Y1571661D01*
G01X5118816Y1592478D01*
G01X5101974Y1610774D01*
G01X5082351Y1626047D01*
G01X5060481Y1637883D01*
G01X5036961Y1645957D01*
G01X5012433Y1650050D01*
G01X4987567Y1650050D01*
G01X4963039Y1645957D01*
G01X4951868Y1642122D01*
G01X4939519Y1637883D01*
G01X4939519Y1637883D01*
G01X4917649Y1626047D01*
G01X4898026Y1610774D01*
G01X4898026Y1610774D01*
G01X4898025Y1610773D01*
G01X4881184Y1592478D01*
G01X4867583Y1571661D01*
G01X4857594Y1548888D01*
G01X4857594Y1548888D01*
G01X4851489Y1524783D01*
G01X4849436Y1500000D01*
G01X3150564Y1500000D01*
G01X3148511Y1524782D01*
G01X3142406Y1548888D01*
G01X3132417Y1571661D01*
G01X3118816Y1592478D01*
G01X3101974Y1610774D01*
G01X3082351Y1626047D01*
G01X3060481Y1637883D01*
G01X3036961Y1645957D01*
G01X3012433Y1650050D01*
G01X2987567Y1650050D01*
G01X2963039Y1645957D01*
G01X2951868Y1642122D01*
G01X2939519Y1637883D01*
G01X2939519Y1637883D01*
G01X2917649Y1626047D01*
G01X2898026Y1610774D01*
G01X2898025Y1610774D01*
G01X2898025Y1610773D01*
G01X2881183Y1592478D01*
G01X2867583Y1571661D01*
G01X2857594Y1548888D01*
G01X2857593Y1548888D01*
G01X2851489Y1524783D01*
G01X2849436Y1500000D01*
G01X4393Y1500000D01*
G01X4550Y1500537D01*
G01X6241Y1502634D01*
G01X1003606Y2499999D01*
G01X2128691Y2499999D01*
G01X2130725Y2461189D01*
G01X2136805Y2422800D01*
G01X2146864Y2385258D01*
G01X2160792Y2348976D01*
G01X2160792Y2348975D01*
G01X2178437Y2314346D01*
G01X2178437Y2314346D01*
G01X2199604Y2281751D01*
G01X2199605Y2281749D01*
G01X2220288Y2256209D01*
G01X2220288Y2256209D01*
G01X2289401Y2325321D01*
G01X2305294Y2325321D01*
G01X2309100Y2316133D01*
G01X2316133Y2309100D01*
G01X2325321Y2305294D01*
G01X2335267Y2305294D01*
G01X2344456Y2309100D01*
G01X2351488Y2316133D01*
G01X2355295Y2325321D01*
G01X2355295Y2335267D01*
G01X2351488Y2344456D01*
G01X2344456Y2351488D01*
G01X2335267Y2355295D01*
G01X2325321Y2355295D01*
G01X2316133Y2351488D01*
G01X2309100Y2344456D01*
G01X2305294Y2335267D01*
G01X2305294Y2325321D01*
G01X2289401Y2325321D01*
G01X2370337Y2406258D01*
G01X2377959Y2395767D01*
G01X2395767Y2377959D01*
G01X2406258Y2370337D01*
G01X2256209Y2220288D01*
G01X2256209Y2220288D01*
G01X2281749Y2199605D01*
G01X2281751Y2199604D01*
G01X2314346Y2178437D01*
G01X2314346Y2178437D01*
G01X2348975Y2160792D01*
G01X2348976Y2160792D01*
G01X2385258Y2146864D01*
G01X2422800Y2136805D01*
G01X2461189Y2130725D01*
G01X2499999Y2128691D01*
G01X2500001Y2128691D01*
G01X2538811Y2130725D01*
G01X2577200Y2136805D01*
G01X2614741Y2146864D01*
G01X2651024Y2160792D01*
G01X2651025Y2160792D01*
G01X2685654Y2178437D01*
G01X2685654Y2178437D01*
G01X2718250Y2199605D01*
G01X2743791Y2220288D01*
G01X2638757Y2325321D01*
G01X2644706Y2325321D01*
G01X2648512Y2316133D01*
G01X2655544Y2309100D01*
G01X2664733Y2305294D01*
G01X2674678Y2305294D01*
G01X2683867Y2309100D01*
G01X2690900Y2316133D01*
G01X2694706Y2325321D01*
G01X2694706Y2335267D01*
G01X2690900Y2344456D01*
G01X2683867Y2351488D01*
G01X2674678Y2355295D01*
G01X2664733Y2355295D01*
G01X2655544Y2351488D01*
G01X2648512Y2344456D01*
G01X2644706Y2335267D01*
G01X2644706Y2325321D01*
G01X2638757Y2325321D01*
G01X2593742Y2370337D01*
G01X2604233Y2377959D01*
G01X2622041Y2395767D01*
G01X2629663Y2406258D01*
G01X2779712Y2256209D01*
G01X2800395Y2281750D01*
G01X2821563Y2314346D01*
G01X2821563Y2314346D01*
G01X2839208Y2348975D01*
G01X2839208Y2348976D01*
G01X2853136Y2385258D01*
G01X2863195Y2422800D01*
G01X2869275Y2461189D01*
G01X2871309Y2499999D01*
G01X2871309Y2500000D01*
G01X3899466Y2500000D01*
G01X3901397Y2480387D01*
G01X3901397Y2480387D01*
G01X3907119Y2461527D01*
G01X3916409Y2444146D01*
G01X3928912Y2428912D01*
G01X3944146Y2416409D01*
G01X3961527Y2407119D01*
G01X3980388Y2401397D01*
G01X4000000Y2399466D01*
G01X4000000Y2399466D01*
G01X4000000Y2399466D01*
G01X4019612Y2401397D01*
G01X4038473Y2407119D01*
G01X4055854Y2416409D01*
G01X4071088Y2428912D01*
G01X4083591Y2444146D01*
G01X4092881Y2461527D01*
G01X4098602Y2480387D01*
G01X4098602Y2480387D01*
G01X4098602Y2480387D01*
G01X4098602Y2480387D01*
G01X4100534Y2499999D01*
G01X5128691Y2499999D01*
G01X5130725Y2461189D01*
G01X5136805Y2422800D01*
G01X5146864Y2385258D01*
G01X5160792Y2348976D01*
G01X5160792Y2348975D01*
G01X5178436Y2314346D01*
G01X5178437Y2314346D01*
G01X5199604Y2281751D01*
G01X5199605Y2281749D01*
G01X5220288Y2256209D01*
G01X5220288Y2256209D01*
G01X5289401Y2325321D01*
G01X5305294Y2325321D01*
G01X5309100Y2316133D01*
G01X5316133Y2309100D01*
G01X5325322Y2305294D01*
G01X5335267Y2305294D01*
G01X5344456Y2309100D01*
G01X5351488Y2316133D01*
G01X5355294Y2325321D01*
G01X5355294Y2335267D01*
G01X5351488Y2344456D01*
G01X5344456Y2351488D01*
G01X5335267Y2355295D01*
G01X5325322Y2355295D01*
G01X5316133Y2351488D01*
G01X5309100Y2344456D01*
G01X5305294Y2335267D01*
G01X5305294Y2325321D01*
G01X5289401Y2325321D01*
G01X5370337Y2406258D01*
G01X5377959Y2395767D01*
G01X5395767Y2377959D01*
G01X5406258Y2370337D01*
G01X5256209Y2220288D01*
G01X5281749Y2199605D01*
G01X5281751Y2199604D01*
G01X5314346Y2178437D01*
G01X5314346Y2178437D01*
G01X5348975Y2160792D01*
G01X5348976Y2160792D01*
G01X5385258Y2146864D01*
G01X5422800Y2136805D01*
G01X5461188Y2130725D01*
G01X5499999Y2128691D01*
G01X5500001Y2128691D01*
G01X5538811Y2130725D01*
G01X5577199Y2136805D01*
G01X5614741Y2146864D01*
G01X5651024Y2160792D01*
G01X5651025Y2160792D01*
G01X5685654Y2178437D01*
G01X5685654Y2178437D01*
G01X5718250Y2199605D01*
G01X5743791Y2220288D01*
G01X5638757Y2325321D01*
G01X5644706Y2325321D01*
G01X5648512Y2316133D01*
G01X5655544Y2309100D01*
G01X5664733Y2305294D01*
G01X5674679Y2305294D01*
G01X5683867Y2309100D01*
G01X5690900Y2316133D01*
G01X5694706Y2325321D01*
G01X5694706Y2335267D01*
G01X5690900Y2344456D01*
G01X5683867Y2351488D01*
G01X5674679Y2355295D01*
G01X5664733Y2355295D01*
G01X5655544Y2351488D01*
G01X5648512Y2344456D01*
G01X5644706Y2335267D01*
G01X5644706Y2325321D01*
G01X5638757Y2325321D01*
G01X5593742Y2370337D01*
G01X5604233Y2377959D01*
G01X5622041Y2395767D01*
G01X5629663Y2406258D01*
G01X5779712Y2256209D01*
G01X5800395Y2281750D01*
G01X5821563Y2314346D01*
G01X5821563Y2314346D01*
G01X5839208Y2348975D01*
G01X5839208Y2348976D01*
G01X5853136Y2385258D01*
G01X5863195Y2422800D01*
G01X5869275Y2461189D01*
G01X5871309Y2499999D01*
G01X5871309Y2500001D01*
G01X5869275Y2538811D01*
G01X5863195Y2577200D01*
G01X5853136Y2614741D01*
G01X5839208Y2651024D01*
G01X5839208Y2651025D01*
G01X5821563Y2685655D01*
G01X5800396Y2718249D01*
G01X5800395Y2718250D01*
G01X5779712Y2743791D01*
G01X5629663Y2593742D01*
G01X5622041Y2604233D01*
G01X5604233Y2622041D01*
G01X5593742Y2629663D01*
G01X5628812Y2664733D01*
G01X5644706Y2664733D01*
G01X5648512Y2655544D01*
G01X5655544Y2648512D01*
G01X5664733Y2644706D01*
G01X5674679Y2644706D01*
G01X5683867Y2648512D01*
G01X5690900Y2655544D01*
G01X5694706Y2664733D01*
G01X5694706Y2674678D01*
G01X5690900Y2683867D01*
G01X5683867Y2690900D01*
G01X5674679Y2694706D01*
G01X5664733Y2694706D01*
G01X5655544Y2690900D01*
G01X5648512Y2683867D01*
G01X5644706Y2674678D01*
G01X5644706Y2664733D01*
G01X5628812Y2664733D01*
G01X5743791Y2779712D01*
G01X5718250Y2800395D01*
G01X5685654Y2821563D01*
G01X5685654Y2821563D01*
G01X5651025Y2839208D01*
G01X5651024Y2839208D01*
G01X5614741Y2853136D01*
G01X5577199Y2863195D01*
G01X5538811Y2869275D01*
G01X5500001Y2871309D01*
G01X5499999Y2871309D01*
G01X5461188Y2869275D01*
G01X5422800Y2863195D01*
G01X5385258Y2853136D01*
G01X5348976Y2839208D01*
G01X5348975Y2839208D01*
G01X5314345Y2821563D01*
G01X5281751Y2800396D01*
G01X5281750Y2800395D01*
G01X5256209Y2779712D01*
G01X5406258Y2629663D01*
G01X5395767Y2622041D01*
G01X5377959Y2604233D01*
G01X5370337Y2593742D01*
G01X5299346Y2664733D01*
G01X5305294Y2664733D01*
G01X5309100Y2655544D01*
G01X5316133Y2648512D01*
G01X5325322Y2644706D01*
G01X5335267Y2644706D01*
G01X5344456Y2648512D01*
G01X5351488Y2655544D01*
G01X5355294Y2664733D01*
G01X5355294Y2674678D01*
G01X5351488Y2683867D01*
G01X5344456Y2690900D01*
G01X5335267Y2694706D01*
G01X5325322Y2694706D01*
G01X5316133Y2690900D01*
G01X5309100Y2683867D01*
G01X5305294Y2674678D01*
G01X5305294Y2664733D01*
G01X5299346Y2664733D01*
G01X5220288Y2743791D01*
G01X5199605Y2718250D01*
G01X5199604Y2718249D01*
G01X5178437Y2685655D01*
G01X5160792Y2651025D01*
G01X5160792Y2651024D01*
G01X5146864Y2614741D01*
G01X5136805Y2577200D01*
G01X5130725Y2538811D01*
G01X5128691Y2500001D01*
G01X5128691Y2499999D01*
G01X4100534Y2499999D01*
G01X4100534Y2500000D01*
G01X4100534Y2500000D01*
G01X4098602Y2519612D01*
G01X4098602Y2519613D01*
G01X4098602Y2519613D01*
G01X4092881Y2538473D01*
G01X4083591Y2555854D01*
G01X4071088Y2571088D01*
G01X4055854Y2583591D01*
G01X4038473Y2592881D01*
G01X4019613Y2598602D01*
G01X4019612Y2598602D01*
G01X4019612Y2598603D01*
G01X4000000Y2600534D01*
G01X4000000Y2600534D01*
G01X3980388Y2598603D01*
G01X3980387Y2598603D01*
G01X3980387Y2598602D01*
G01X3980387Y2598602D01*
G01X3961527Y2592881D01*
G01X3944146Y2583591D01*
G01X3928912Y2571088D01*
G01X3916409Y2555854D01*
G01X3907119Y2538473D01*
G01X3901397Y2519613D01*
G01X3901397Y2519612D01*
G01X3899466Y2500000D01*
G01X3899466Y2500000D01*
G01X2871309Y2500000D01*
G01X2871309Y2500001D01*
G01X2869275Y2538811D01*
G01X2863195Y2577200D01*
G01X2853136Y2614741D01*
G01X2839208Y2651024D01*
G01X2839208Y2651025D01*
G01X2821563Y2685655D01*
G01X2800396Y2718249D01*
G01X2800395Y2718250D01*
G01X2779712Y2743791D01*
G01X2629663Y2593742D01*
G01X2622041Y2604233D01*
G01X2604233Y2622041D01*
G01X2593742Y2629663D01*
G01X2628812Y2664733D01*
G01X2644706Y2664733D01*
G01X2648512Y2655544D01*
G01X2655544Y2648512D01*
G01X2664733Y2644706D01*
G01X2674678Y2644706D01*
G01X2683867Y2648512D01*
G01X2690900Y2655544D01*
G01X2694706Y2664733D01*
G01X2694706Y2674678D01*
G01X2690900Y2683867D01*
G01X2683867Y2690900D01*
G01X2674678Y2694706D01*
G01X2664733Y2694706D01*
G01X2655544Y2690900D01*
G01X2648512Y2683867D01*
G01X2644706Y2674678D01*
G01X2644706Y2664733D01*
G01X2628812Y2664733D01*
G01X2743791Y2779712D01*
G01X2718250Y2800395D01*
G01X2685654Y2821563D01*
G01X2685654Y2821563D01*
G01X2651025Y2839208D01*
G01X2651024Y2839208D01*
G01X2614741Y2853136D01*
G01X2577200Y2863195D01*
G01X2538811Y2869275D01*
G01X2500001Y2871309D01*
G01X2499999Y2871309D01*
G01X2461189Y2869275D01*
G01X2422800Y2863195D01*
G01X2385258Y2853136D01*
G01X2348976Y2839208D01*
G01X2348975Y2839208D01*
G01X2314345Y2821563D01*
G01X2281751Y2800396D01*
G01X2281750Y2800395D01*
G01X2256209Y2779712D01*
G01X2406258Y2629663D01*
G01X2395767Y2622041D01*
G01X2377959Y2604233D01*
G01X2370337Y2593742D01*
G01X2299346Y2664733D01*
G01X2305294Y2664733D01*
G01X2309100Y2655544D01*
G01X2316133Y2648512D01*
G01X2325321Y2644706D01*
G01X2335267Y2644706D01*
G01X2344456Y2648512D01*
G01X2351488Y2655544D01*
G01X2355295Y2664733D01*
G01X2355295Y2674678D01*
G01X2351488Y2683867D01*
G01X2344456Y2690900D01*
G01X2335267Y2694706D01*
G01X2325321Y2694706D01*
G01X2316133Y2690900D01*
G01X2309100Y2683867D01*
G01X2305294Y2674678D01*
G01X2305294Y2664733D01*
G01X2299346Y2664733D01*
G01X2220288Y2743791D01*
G01X2199605Y2718250D01*
G01X2199604Y2718249D01*
G01X2178437Y2685655D01*
G01X2160792Y2651025D01*
G01X2160792Y2651024D01*
G01X2146864Y2614741D01*
G01X2136805Y2577200D01*
G01X2130725Y2538811D01*
G01X2128691Y2500001D01*
G01X2128691Y2499999D01*
G01X1003606Y2499999D01*
G01X1503606Y3000000D01*
G01X2849436Y3000000D01*
G01X2851489Y2975217D01*
G01X2857593Y2951112D01*
G01X2857594Y2951111D01*
G01X2867583Y2928339D01*
G01X2881183Y2907521D01*
G01X2898025Y2889227D01*
G01X2917649Y2873953D01*
G01X2939519Y2862117D01*
G01X2939519Y2862117D01*
G01X2963038Y2854043D01*
G01X2963039Y2854043D01*
G01X2971195Y2852682D01*
G01X2987567Y2849950D01*
G01X2987567Y2849950D01*
G01X3012433Y2849950D01*
G01X3012433Y2849950D01*
G01X3032084Y2853229D01*
G01X3036961Y2854043D01*
G01X3036961Y2854043D01*
G01X3036961Y2854043D01*
G01X3036962Y2854043D01*
G01X3060481Y2862117D01*
G01X3060481Y2862117D01*
G01X3082351Y2873953D01*
G01X3082351Y2873953D01*
G01X3101975Y2889227D01*
G01X3118816Y2907521D01*
G01X3132417Y2928339D01*
G01X3142406Y2951111D01*
G01X3142406Y2951112D01*
G01X3148511Y2975217D01*
G01X3148511Y2975218D01*
G01X3150564Y3000000D01*
G01X4849436Y3000000D01*
G01X4851489Y2975217D01*
G01X4857594Y2951112D01*
G01X4857594Y2951111D01*
G01X4867583Y2928339D01*
G01X4881184Y2907521D01*
G01X4898025Y2889227D01*
G01X4917649Y2873953D01*
G01X4939519Y2862117D01*
G01X4939519Y2862117D01*
G01X4963038Y2854043D01*
G01X4963039Y2854043D01*
G01X4971195Y2852682D01*
G01X4987567Y2849950D01*
G01X4987567Y2849950D01*
G01X5012433Y2849950D01*
G01X5012433Y2849950D01*
G01X5032084Y2853229D01*
G01X5036961Y2854043D01*
G01X5036961Y2854043D01*
G01X5036961Y2854043D01*
G01X5036962Y2854043D01*
G01X5060481Y2862117D01*
G01X5060481Y2862117D01*
G01X5082351Y2873953D01*
G01X5082351Y2873953D01*
G01X5101975Y2889227D01*
G01X5118816Y2907521D01*
G01X5132417Y2928339D01*
G01X5142406Y2951111D01*
G01X5142406Y2951112D01*
G01X5148511Y2975217D01*
G01X5148511Y2975218D01*
G01X5150564Y3000000D01*
G01X5148511Y3024782D01*
G01X5142406Y3048888D01*
G01X5132417Y3071661D01*
G01X5118816Y3092478D01*
G01X5101974Y3110774D01*
G01X5082351Y3126047D01*
G01X5060481Y3137883D01*
G01X5036961Y3145957D01*
G01X5012433Y3150050D01*
G01X4987567Y3150050D01*
G01X4963039Y3145957D01*
G01X4951868Y3142122D01*
G01X4939519Y3137883D01*
G01X4939519Y3137883D01*
G01X4917649Y3126047D01*
G01X4898026Y3110774D01*
G01X4898026Y3110774D01*
G01X4898025Y3110773D01*
G01X4881184Y3092478D01*
G01X4867583Y3071661D01*
G01X4857594Y3048888D01*
G01X4857594Y3048888D01*
G01X4851489Y3024783D01*
G01X4849436Y3000000D01*
G01X3150564Y3000000D01*
G01X3148511Y3024782D01*
G01X3142406Y3048888D01*
G01X3132417Y3071661D01*
G01X3118816Y3092478D01*
G01X3101974Y3110774D01*
G01X3082351Y3126047D01*
G01X3060481Y3137883D01*
G01X3036961Y3145957D01*
G01X3012433Y3150050D01*
G01X2987567Y3150050D01*
G01X2963039Y3145957D01*
G01X2951868Y3142122D01*
G01X2939519Y3137883D01*
G01X2939519Y3137883D01*
G01X2917649Y3126047D01*
G01X2898026Y3110774D01*
G01X2898025Y3110774D01*
G01X2898025Y3110773D01*
G01X2881183Y3092478D01*
G01X2867583Y3071661D01*
G01X2857594Y3048888D01*
G01X2857593Y3048888D01*
G01X2851489Y3024783D01*
G01X2849436Y3000000D01*
G01X1503606Y3000000D01*
G01X1997366Y3493760D01*
G01X2003597Y3497162D01*
G01X2006275Y3497450D01*
G01X5993725Y3497450D01*
G01X6000537Y3495450D01*
G37*
G04 Copper End*

G04 PolygonModel Start*
G54D10*
G01X2500024Y1000050D02*
G01X2500024Y1300050D01*
G01X2600024Y1000050D02*
G01X2600024Y1100050D01*
G01X2700024Y1000050D02*
G01X2700024Y1100050D01*
G01X2800024Y1000050D02*
G01X2800024Y1100050D01*
G01X2900024Y1000050D02*
G01X2900024Y1100050D01*
G01X3000024Y1000050D02*
G01X3000024Y1200050D01*
G01X3100024Y1000050D02*
G01X3100024Y1100050D01*
G01X3200024Y1000050D02*
G01X3200024Y1100050D01*
G01X3300024Y1000050D02*
G01X3300024Y1100050D01*
G01X3400024Y1000050D02*
G01X3400024Y1100050D01*
G01X3500024Y1000050D02*
G01X3500024Y1300050D01*
G01X3600024Y1000050D02*
G01X3600024Y1100050D01*
G01X3700024Y1000050D02*
G01X3700024Y1100050D01*
G01X3800024Y1000050D02*
G01X3800024Y1100050D01*
G01X3900024Y1000050D02*
G01X3900024Y1100050D01*
G01X4000024Y1000050D02*
G01X4000024Y1200050D01*
G01X4100024Y1000050D02*
G01X4100024Y1100050D01*
G01X4200024Y1000050D02*
G01X4200024Y1100050D01*
G01X4300024Y1000050D02*
G01X4300024Y1100050D01*
G01X4400024Y1000050D02*
G01X4400024Y1100050D01*
G01X4500024Y1000050D02*
G01X4500024Y1300050D01*
G01X4600024Y1000050D02*
G01X4600024Y1100050D01*
G01X4700024Y1000050D02*
G01X4700024Y1100050D01*
G01X4800024Y1000050D02*
G01X4800024Y1100050D01*
G01X4900024Y1000050D02*
G01X4900024Y1100050D01*
G01X5000024Y1000050D02*
G01X5000024Y1200050D01*
G01X5100024Y1000050D02*
G01X5100024Y1100050D01*
G01X5200024Y1000050D02*
G01X5200024Y1100050D01*
G01X5300024Y1000050D02*
G01X5300024Y1100050D01*
G01X5400024Y1000050D02*
G01X5400024Y1100050D01*
G01X5500024Y1000050D02*
G01X5500024Y1300050D01*

G04 Pad Start*
G54D11*
G01X3000000Y1500000D03*
G01X3000000Y3000000D03*
G54D12*
G01X2260000Y2500000D03*
G01X2330294Y2669706D03*
G01X2330294Y2330294D03*
G01X2500000Y2740000D03*
G54D13*
G01X2500000Y2500000D03*
G54D12*
G01X2500000Y2260000D03*
G01X2669706Y2669706D03*
G01X2669706Y2330294D03*
G01X2740000Y2500000D03*
G01X760000Y1000000D03*
G01X830294Y1169706D03*
G01X830294Y830294D03*
G01X1000000Y1240000D03*
G54D13*
G01X1000000Y1000000D03*
G54D12*
G01X1000000Y760000D03*
G01X1169706Y1169706D03*
G01X1169706Y830294D03*
G01X1240000Y1000000D03*
G01X6760000Y1000000D03*
G01X6830294Y1169706D03*
G01X6830294Y830294D03*
G01X7000000Y1240000D03*
G54D13*
G01X7000000Y1000000D03*
G54D12*
G01X7000000Y760000D03*
G01X7169706Y1169706D03*
G01X7169706Y830294D03*
G01X7240000Y1000000D03*
G01X5260000Y2500000D03*
G01X5330294Y2669706D03*
G01X5330294Y2330294D03*
G01X5500000Y2740000D03*
G54D13*
G01X5500000Y2500000D03*
G54D12*
G01X5500000Y2260000D03*
G01X5669706Y2669706D03*
G01X5669706Y2330294D03*
G01X5740000Y2500000D03*
G54D11*
G01X4000000Y2500000D03*
G01X7500000Y500000D03*
G01X500000Y500000D03*
G01X5000000Y1500000D03*
G01X5000000Y3000000D03*
G04 Pad End*

G04 Track Start*
G54D14*
G01X6425000Y75000D02*
G01X5575000Y925000D01*
G01X1575000Y75000D02*
G01X2425000Y925000D01*
G04 Track End*

M02*

